<?xml version="1.0" encoding="utf-8"?>
<!-- Generator: Adobe Illustrator 23.1.0, SVG Export Plug-In . SVG Version: 6.00 Build 0)  -->
<svg version="1.1" id="Capa_1" xmlns="http://www.w3.org/2000/svg" xmlns:xlink="http://www.w3.org/1999/xlink" x="0px" y="0px"
	 viewBox="0 0 146.8 76" style="enable-background:new 0 0 146.8 76;" xml:space="preserve">
<style type="text/css">
	.st0{fill:#F7F9FB;}
	.st1{fill:#F1F1F0;}
	.st2{fill:#EB3C46;}
	.st3{fill:#0F69B4;}
	.st4{fill:#838384;}
</style>
<rect y="-0.2" class="st0" width="146.8" height="76"/>
<path class="st1" d="M39.8,38c0-18.5,15-33.5,33.5-33.5s33.5,15,33.5,33.5s-15,33.5-33.5,33.5l0,0C54.8,71.5,39.8,56.5,39.8,38"/>
<path class="st2" d="M73.3,0c-2.8,0-5.7,0.3-8.5,0.9l1.1,5c17.7-4,35.3,7.1,39.4,24.8S98.3,66,80.5,70.1c-4.8,1.1-9.8,1.1-14.6,0
	l-1.1,5c20.5,4.7,40.8-8.2,45.5-28.6C114.9,26,102.1,5.6,81.7,1C78.9,0.3,76.1,0,73.3,0"/>
<path class="st3" d="M40.4,38C40.4,22.7,51,9.4,65.9,5.9l-1.1-5C44.3,5.6,31.6,26,36.2,46.5c3.3,14.2,14.4,25.3,28.6,28.6l1.1-5
	C51,66.6,40.4,53.3,40.4,38"/>
<path class="st4" d="M67.8,19.5c1.8,0.6,3.4,1.8,4.5,3.4c0.9,1.3,1.5,2.7,1.9,4.3c0.3,1.4,0.5,2.9,0.5,4.4c0.1,3.1-0.6,6.2-2.1,8.9
	c-1.8,3.2-5.2,5.1-8.8,4.9H52.4V19h11.4C65.1,18.9,66.5,19.1,67.8,19.5 M57.7,23.5v17.2h5.1c2.5,0.1,4.7-1.5,5.4-3.8
	c0.6-1.6,0.9-3.3,0.8-5c0.1-2.1-0.3-4.3-1.3-6.2c-0.8-1.4-2.5-2.2-5-2.2L57.7,23.5z"/>
<path class="st4" d="M94.2,19v4.7h-7.9v21.7h-5.5V23.6h-7.9V19H94.2z"/>
<path class="st4" d="M56.7,49.3c0.3,0.1,0.6,0.3,0.8,0.6c0.2,0.2,0.3,0.5,0.3,0.7c0.1,0.2,0.1,0.5,0.1,0.8c0,0.5-0.1,1-0.4,1.5
	c-0.3,0.5-0.9,0.9-1.5,0.8h-1.9v-4.5H56C56.3,49.2,56.5,49.2,56.7,49.3 M55,50v2.9h0.9c0.4,0,0.8-0.3,0.9-0.7
	c0.1-0.3,0.2-0.6,0.1-0.9c0-0.4,0-0.7-0.2-1.1c-0.2-0.3-0.5-0.4-0.9-0.4L55,50z"/>
<path class="st4" d="M59.4,50h-0.9v-0.8h0.9V50z M58.6,50.4h0.9v3.3h-0.9V50.4z"/>
<path class="st4" d="M62.1,50.3L62.1,50.3l0.1,0.9c-0.1,0-0.1,0-0.2,0H62c-0.3,0-0.6,0.1-0.7,0.3c-0.1,0.2-0.1,0.4-0.1,0.6v1.6h-0.9
	v-3.3h0.8V51c0.1-0.2,0.2-0.3,0.3-0.5C61.6,50.4,61.9,50.3,62.1,50.3L62.1,50.3"/>
<path class="st4" d="M64.9,50.4c0.2,0.1,0.4,0.3,0.6,0.5c0.1,0.2,0.2,0.4,0.3,0.7c0,0.2,0,0.4,0,0.7h-2.4c0,0.3,0.1,0.5,0.3,0.7
	c0.1,0.1,0.3,0.1,0.5,0.1c0.3,0,0.5-0.1,0.7-0.4h0.9c0,0.2-0.2,0.4-0.3,0.6c-0.3,0.3-0.8,0.5-1.3,0.5c-0.4,0-0.8-0.1-1.2-0.4
	c-0.4-0.3-0.5-0.8-0.5-1.3c0-0.5,0.1-1,0.5-1.3c0.3-0.3,0.8-0.5,1.2-0.5C64.4,50.3,64.6,50.3,64.9,50.4 M63.6,51.2
	c-0.1,0.1-0.2,0.3-0.2,0.5h1.5c0-0.2-0.1-0.4-0.2-0.5C64.5,51,64.3,51,64.1,51C63.9,51,63.7,51,63.6,51.2"/>
<path class="st4" d="M68.2,51.6c0-0.1-0.1-0.2-0.1-0.3C68,51.1,67.8,51,67.6,51c-0.3,0-0.5,0.2-0.6,0.4c-0.1,0.2-0.1,0.4-0.1,0.6
	c0,0.2,0,0.4,0.1,0.6c0.1,0.3,0.3,0.4,0.6,0.4c0.2,0,0.3,0,0.4-0.2c0.1-0.1,0.2-0.3,0.2-0.4h0.9c0,0.3-0.1,0.5-0.3,0.8
	c-0.3,0.4-0.7,0.6-1.2,0.6c-0.4,0-0.9-0.1-1.2-0.5C66.1,53,66,52.5,66,52.1c0-0.5,0.1-1,0.4-1.3c0.3-0.3,0.7-0.5,1.2-0.5
	c0.4,0,0.7,0.1,1,0.3c0.3,0.3,0.5,0.6,0.5,1L68.2,51.6L68.2,51.6z"/>
<path class="st4" d="M71.7,51.6c0-0.1-0.1-0.2-0.1-0.3c-0.1-0.1-0.3-0.2-0.5-0.2c-0.3,0-0.5,0.2-0.6,0.4c-0.1,0.2-0.1,0.4-0.1,0.6
	c0,0.2,0,0.4,0.1,0.6c0.1,0.3,0.3,0.4,0.6,0.4c0.2,0,0.3,0,0.4-0.2c0.1-0.1,0.2-0.3,0.2-0.4h0.9c0,0.3-0.1,0.5-0.3,0.8
	c-0.3,0.4-0.7,0.6-1.2,0.6c-0.4,0-0.9-0.1-1.2-0.5c-0.3-0.4-0.4-0.8-0.4-1.2c0-0.5,0.1-1,0.4-1.3c0.3-0.3,0.7-0.5,1.2-0.5
	c0.4,0,0.7,0.1,1,0.3c0.3,0.3,0.5,0.6,0.5,1L71.7,51.6L71.7,51.6z"/>
<path class="st4" d="M74.1,50h-0.9v-0.8h0.9V50z M73.2,50.4H74v3.3h-0.9V50.4z"/>
<path class="st4" d="M77.7,53.3c-0.7,0.7-1.8,0.7-2.6,0c-0.6-0.7-0.6-1.8,0-2.5c0.7-0.7,1.8-0.7,2.6,0
	C78.2,51.5,78.2,52.6,77.7,53.3 M77,52.8c0.3-0.5,0.3-1.1,0-1.5c-0.3-0.3-0.8-0.4-1.1-0.1c0,0-0.1,0-0.1,0.1c-0.3,0.5-0.3,1.1,0,1.5
	C76.1,53.1,76.6,53.2,77,52.8C76.9,52.9,76.9,52.8,77,52.8 M77.4,49l-0.9,0.9h-0.6l0.6-0.9H77.4z"/>
<path class="st4" d="M81.4,50.6c0.2,0.2,0.4,0.6,0.3,0.9v2.2h-0.9v-2c0-0.1,0-0.3-0.1-0.4c-0.1-0.2-0.3-0.3-0.5-0.3
	c-0.3,0-0.5,0.1-0.6,0.4c-0.1,0.2-0.1,0.3-0.1,0.5v1.8h-0.9v-3.3h0.8v0.5c0.1-0.1,0.2-0.3,0.3-0.4c0.2-0.1,0.4-0.2,0.7-0.2
	C80.9,50.3,81.2,50.4,81.4,50.6"/>
<path class="st4" d="M86,50.4c0.2,0.1,0.3,0.2,0.4,0.4v-1.6h0.9v4.5h-0.8v-0.5c-0.1,0.2-0.3,0.3-0.4,0.4s-0.4,0.1-0.6,0.1
	c-0.4,0-0.8-0.2-1-0.5C84.2,53,84,52.6,84,52.1c0-0.5,0.1-1,0.4-1.3c0.3-0.3,0.6-0.5,1.1-0.5C85.7,50.3,85.9,50.3,86,50.4
	 M86.3,52.8c0.1-0.2,0.2-0.5,0.2-0.7c0-0.3-0.1-0.6-0.3-0.9c-0.1-0.1-0.3-0.2-0.4-0.2c-0.2,0-0.4,0.1-0.6,0.3c-0.2,0.5-0.2,1,0,1.5
	c0.1,0.2,0.3,0.3,0.6,0.3C85.9,53.1,86.1,53,86.3,52.8"/>
<path class="st4" d="M90.3,50.4c0.2,0.1,0.4,0.3,0.6,0.5c0.1,0.2,0.2,0.4,0.3,0.7c0,0.2,0,0.4,0,0.7h-2.4c0,0.3,0.1,0.5,0.3,0.7
	c0.1,0.1,0.3,0.1,0.5,0.1c0.2,0,0.3,0,0.5-0.2c0.1-0.1,0.1-0.1,0.2-0.2h0.9c0,0.2-0.2,0.4-0.3,0.6c-0.3,0.3-0.8,0.5-1.3,0.5
	c-0.4,0-0.8-0.1-1.2-0.4c-0.4-0.3-0.6-0.8-0.5-1.3c0-0.5,0.1-1,0.5-1.3c0.3-0.3,0.8-0.5,1.2-0.5C89.8,50.3,90,50.3,90.3,50.4
	 M89,51.2c-0.1,0.1-0.2,0.3-0.2,0.5h1.5c0-0.2-0.1-0.4-0.2-0.5C89.9,51,89.7,51,89.5,51C89.3,51,89.1,51,89,51.2"/>
<rect x="91.6" y="49.2" class="st4" width="0.9" height="4.5"/>
<path class="st4" d="M65.9,56.7v0.8h-1.3v3.7h-1v-3.7h-1.3v-0.8H65.9z"/>
<path class="st4" d="M67.9,57.8L67.9,57.8l0.1,0.9c-0.1,0-0.1,0-0.2,0h-0.1c-0.3,0-0.6,0.1-0.7,0.3c-0.1,0.2-0.1,0.4-0.1,0.6v1.6H66
	v-3.3h0.8v0.6c0.1-0.2,0.2-0.3,0.3-0.5C67.4,57.9,67.6,57.8,67.9,57.8L67.9,57.8"/>
<path class="st4" d="M69.8,59.2c0.1,0,0.2,0,0.3-0.1c0.1,0,0.2-0.1,0.2-0.3c0-0.1,0-0.2-0.1-0.3c-0.1-0.1-0.3-0.1-0.4-0.1
	c-0.2,0-0.3,0-0.4,0.2c-0.1,0.1-0.1,0.2-0.1,0.3h-0.8c0-0.3,0.1-0.5,0.3-0.7c0.3-0.3,0.8-0.5,1.2-0.4c0.3,0,0.7,0.1,1,0.2
	c0.3,0.2,0.5,0.5,0.4,0.8v1.5c0,0.1,0,0.2,0,0.4c0,0.1,0,0.2,0.1,0.2c0,0,0.1,0.1,0.1,0.1v0.1h-0.9c0-0.1,0-0.1-0.1-0.2
	c0-0.1,0-0.1,0-0.2c-0.1,0.1-0.3,0.2-0.4,0.3c-0.2,0.1-0.4,0.2-0.6,0.2c-0.3,0-0.5-0.1-0.8-0.3c-0.2-0.2-0.3-0.5-0.3-0.7
	c0-0.4,0.2-0.7,0.5-0.9c0.2-0.1,0.5-0.2,0.8-0.2L69.8,59.2z M70.3,59.6c-0.1,0-0.1,0.1-0.2,0.1c-0.1,0-0.2,0-0.2,0.1l-0.2,0
	c-0.1,0-0.3,0.1-0.4,0.1c-0.1,0.1-0.2,0.2-0.2,0.4c0,0.1,0,0.2,0.1,0.3c0.1,0.1,0.2,0.1,0.3,0.1c0.2,0,0.4-0.1,0.5-0.2
	c0.2-0.2,0.3-0.4,0.3-0.6L70.3,59.6L70.3,59.6z"/>
<path class="st4" d="M74.8,58.3c0.3,0.3,0.4,0.8,0.4,1.2c0,0.5-0.1,0.9-0.4,1.3c-0.4,0.5-1.1,0.7-1.7,0.3c-0.1-0.1-0.2-0.2-0.3-0.3
	v0.4h-0.9v-4.5h0.9v1.6c0.1-0.1,0.2-0.3,0.4-0.3c0.2-0.1,0.4-0.2,0.6-0.2C74.1,57.8,74.5,58,74.8,58.3 M74.1,60.3
	c0.1-0.2,0.2-0.5,0.2-0.7c0-0.2,0-0.4-0.1-0.6c-0.1-0.3-0.4-0.5-0.7-0.4c-0.3,0-0.6,0.2-0.7,0.4c-0.1,0.2-0.1,0.4-0.1,0.6
	c0,0.3,0.1,0.5,0.2,0.7c0.1,0.2,0.3,0.3,0.6,0.3C73.7,60.6,73.9,60.5,74.1,60.3"/>
<path class="st4" d="M77.1,59.2c0.1,0,0.2,0,0.3-0.1c0.1,0,0.2-0.1,0.2-0.3c0-0.1,0-0.2-0.1-0.3c-0.1-0.1-0.3-0.1-0.4-0.1
	c-0.2,0-0.3,0-0.4,0.2c-0.1,0.1-0.1,0.2-0.1,0.3h-0.8c0-0.3,0.1-0.5,0.3-0.7c0.3-0.3,0.8-0.5,1.2-0.4c0.3,0,0.7,0.1,1,0.2
	c0.3,0.2,0.5,0.5,0.4,0.8v1.5c0,0.1,0,0.2,0,0.4c0,0.1,0,0.2,0.1,0.2c0,0,0.1,0.1,0.1,0.1v0.1h-0.9c0-0.1,0-0.1-0.1-0.2
	c0-0.1,0-0.1,0-0.2c-0.1,0.1-0.3,0.2-0.4,0.3c-0.2,0.1-0.4,0.2-0.6,0.2c-0.3,0-0.5-0.1-0.8-0.3c-0.2-0.2-0.3-0.5-0.3-0.7
	c0-0.4,0.2-0.7,0.5-0.9c0.2-0.1,0.5-0.2,0.8-0.2L77.1,59.2z M77.6,59.6c-0.1,0-0.1,0.1-0.2,0.1c-0.1,0-0.2,0-0.2,0.1l-0.2,0
	c-0.1,0-0.3,0.1-0.4,0.1c-0.1,0.1-0.2,0.2-0.2,0.4c0,0.1,0,0.2,0.1,0.3c0.1,0.1,0.2,0.1,0.3,0.1c0.2,0,0.4-0.1,0.5-0.2
	c0.2-0.2,0.3-0.4,0.3-0.6L77.6,59.6L77.6,59.6z"/>
<path class="st4" d="M78.9,61.8L78.9,61.8l0.2,0c0.1,0,0.1,0,0.2-0.1c0.1-0.1,0.1-0.2,0.1-0.2v-3.7h0.9v3.7c0,0.3-0.1,0.5-0.2,0.8
	c-0.2,0.2-0.5,0.3-0.8,0.2c0,0-0.1,0-0.1,0l-0.2,0V61.8z M80.2,57.5h-0.9v-0.8h0.9V57.5z"/>
<path class="st4" d="M83.8,60.8c-0.7,0.7-1.8,0.7-2.6,0c-0.6-0.7-0.6-1.8,0-2.5c0.7-0.7,1.8-0.7,2.6,0C84.3,59,84.3,60.1,83.8,60.8
	 M83.1,60.3c0.3-0.5,0.3-1.1,0-1.5c-0.3-0.3-0.8-0.4-1.1-0.1c0,0-0.1,0-0.1,0.1c-0.3,0.5-0.3,1.1,0,1.5
	C82.2,60.7,82.6,60.7,83.1,60.3C83,60.4,83,60.4,83.1,60.3"/>
</svg>
