<?xml version="1.0" encoding="utf-8"?>
<!-- Generator: Adobe Illustrator 23.1.0, SVG Export Plug-In . SVG Version: 6.00 Build 0)  -->
<svg version="1.1" id="Capa_1" xmlns="http://www.w3.org/2000/svg" xmlns:xlink="http://www.w3.org/1999/xlink" x="0px" y="0px"
	 viewBox="0 0 173 57.6" style="enable-background:new 0 0 173 57.6;" xml:space="preserve">
<style type="text/css">
	.st0{fill:#FFFFFF;}
</style>
<g id="Grupo_14675" transform="translate(2243.511 -957.345)">
	<g id="Grupo_1" transform="translate(-2243.511 965.255)">
		<g id="Trazado_2" transform="translate(0 8.586)">
			<path id="Trazado_3538" class="st0" d="M7.7,4.4c1.2-0.6,2.5-1,3.9-1c1.2,0,2.3,0.3,3.4,0.8c1,0.5,1.9,1.4,2.6,2.4l3-2
				c-0.8-1.5-2.1-2.7-3.6-3.5C15.3,0.4,13.5,0,11.6,0c-2.1,0-4.2,0.5-6,1.4c-1.7,0.9-3.1,2.3-4.1,4c-2,3.6-2,8,0,11.6
				c1,1.7,2.4,3.1,4.1,4c1.8,1,3.9,1.5,6,1.5c1.9,0,3.7-0.4,5.3-1.2c1.5-0.8,2.8-2,3.6-3.5l-3-1.9c-0.6,1-1.5,1.8-2.6,2.4
				c-1.1,0.5-2.2,0.8-3.4,0.8c-1.4,0-2.7-0.3-3.9-1c-1.1-0.6-2.1-1.6-2.7-2.7c-0.7-1.3-1-2.7-1-4.1c0-1.4,0.3-2.8,1-4
				C5.6,6,6.6,5.1,7.7,4.4z"/>
		</g>
		<g id="Rectángulo_1" transform="translate(24.396)">
			<rect id="Rectángulo_3483" x="0" y="0" class="st0" width="4" height="30.8"/>
		</g>
		<g id="Trazado_3" transform="translate(32.899 8.586)">
			<path id="Trazado_3539" class="st0" d="M16.7,1.4C14.9,0.5,13,0,11,0c-2,0-3.9,0.5-5.7,1.4c-1.7,0.9-3,2.3-3.9,4
				C0.5,7.2,0,9.2,0,11.2c0,2,0.5,4,1.5,5.8c1,1.7,2.4,3.1,4.2,4c3.5,1.7,7.5,1.9,11.1,0.5c1.4-0.6,2.7-1.5,3.7-2.7l-2.2-2.6
				c-1.6,1.8-3.9,2.8-6.3,2.7c-2,0.1-3.9-0.6-5.4-1.8C5.1,16,4.2,14.4,4,12.5h17.8c0-0.4,0.1-0.8,0.1-1.2c0-2-0.4-4.1-1.4-5.9
				C19.6,3.8,18.3,2.4,16.7,1.4z M4,9.7c0.2-1.8,1-3.4,2.3-4.6c2.8-2.3,6.8-2.3,9.6,0c1.3,1.2,2.1,2.8,2.3,4.5L4,9.7z"/>
		</g>
		<g id="Trazado_4" transform="translate(55.016 8.796)">
			<path id="Trazado_3540" class="st0" d="M11.7,17.6L4.1,0H0l9.6,22h4.1l9.6-22h-3.9L11.7,17.6z"/>
		</g>
		<g id="Trazado_5" transform="translate(78.37 8.586)">
			<path id="Trazado_3541" class="st0" d="M16.7,1.4C14.9,0.5,13,0,11,0c-2,0-3.9,0.5-5.7,1.4c-1.7,0.9-3,2.3-3.9,4
				C0.5,7.2,0,9.2,0,11.2c0,2,0.5,4,1.5,5.8c1,1.7,2.4,3.1,4.2,4c3.5,1.7,7.5,1.9,11.1,0.5c1.4-0.6,2.7-1.5,3.7-2.6l-2.2-2.6
				c-1.6,1.8-3.9,2.8-6.3,2.7c-2,0.1-3.9-0.6-5.4-1.8C5.1,16,4.2,14.4,4,12.5h17.8c0-0.4,0.1-0.8,0.1-1.2c0-2-0.4-4.1-1.4-5.9
				C19.6,3.8,18.3,2.4,16.7,1.4z M4,9.7c0.2-1.8,1-3.4,2.3-4.6c2.8-2.3,6.8-2.3,9.6,0c1.3,1.2,2.1,2.8,2.3,4.5L4,9.7z"/>
		</g>
		<g id="Trazado_6" transform="translate(104.758 8.584)">
			<path id="Trazado_3542" class="st0" d="M3.8,3.9V0.2H0v22h4v-11c-0.1-2,0.5-4,1.8-5.5c1.3-1.3,3.2-2,5.1-1.9c0.3,0,0.6,0,0.9,0V0
				c-1.7,0-3.4,0.3-4.9,1C5.6,1.6,4.5,2.6,3.8,3.9z"/>
		</g>
	</g>
	<g id="Grupo_14664" transform="translate(-2243.067 1003.167)">
		<path id="Trazado_3543" class="st0" d="M4.7,4.5L7.6,0h1.8L5.7,5.8l3.8,5.9H7.6L4.7,7.2l-2.9,4.6H0l3.8-5.9L0.1,0h1.8L4.7,4.5z"/>
		<path id="Trazado_3544" class="st0" d="M16.5,7h-2.8v4.8h-1.6V0H16c1.1-0.1,2.2,0.2,3.1,0.9c0.7,0.7,1.1,1.6,1.1,2.6
			c0,0.7-0.2,1.4-0.6,1.9c-0.4,0.6-1,1-1.6,1.2l2.8,5v0.1H19L16.5,7z M13.7,5.7h2.4c0.7,0,1.3-0.2,1.8-0.6c0.5-0.4,0.7-1,0.7-1.6
			c0-0.6-0.2-1.2-0.6-1.7c-0.5-0.4-1.2-0.6-1.9-0.6h-2.4L13.7,5.7z"/>
	</g>
	<g id="Grupo_14665" transform="translate(-2117.222 957.345)">
		<path id="Trazado_3545" class="st0" d="M35.9,19.9l-8,8c-1.2,1.2-2.8,1.9-4.5,1.8c-0.6,0-1.1-0.1-1.6-0.2c-1.1-0.3-2-0.8-2.8-1.6
			c-0.1-0.1-0.1-0.3,0-0.4l2.1-2.1c0,0,0.1-0.1,0.2-0.1c0.1,0,0.1,0,0.2,0.1c1.1,1.1,2.8,1.1,3.9,0l0.1-0.1l3.7-3.7l4.4-4.4
			c-3-2.8-6.4-4.4-10.1-4.4c-4.2,0-7.9,2.1-11.2,5.6c-1.1,1.2-2.2,2.5-3.1,3.9c-0.2,0.4-0.5,0.7-0.7,1.1c0.2,0.3,0.4,0.7,0.7,1.1
			c0.6,0.9,1.1,1.7,1.8,2.5l8-8c1.2-1.2,2.8-1.9,4.5-1.8c0.6,0,1.1,0.1,1.6,0.2c1.1,0.3,2,0.9,2.8,1.6l0,0c0.1,0.1,0.1,0.3,0,0.4
			c0,0,0,0,0,0l-2.1,2.1l0,0c-0.1,0.1-0.3,0.1-0.4,0c-1.1-1.1-2.8-1.1-3.9,0l0,0l0,0l-0.1,0.1l-3.7,3.7l-4.4,4.4
			c3,2.8,6.4,4.4,10.1,4.4c4.2,0,7.9-2.1,11.2-5.6c1.1-1.2,2.2-2.5,3.1-3.9c0.2-0.4,0.5-0.7,0.7-1.1c-0.2-0.3-0.4-0.7-0.7-1.1
			C37.2,21.6,36.6,20.7,35.9,19.9z"/>
		<path id="Trazado_3546" class="st0" d="M34.9,0h-23C5.3,0,0,5.3,0,11.8l0,0v23c0,6.5,5.3,11.8,11.8,11.8l0,0h23
			c6.5,0,11.8-5.3,11.8-11.8l0,0v-23C46.7,5.3,41.4,0,34.9,0L34.9,0z M41.4,24.2c-0.4,0.7-0.8,1.4-1.2,2c-1,1.6-2.1,3-3.4,4.4
			c-3.8,4.1-8.3,6.5-13.4,6.5c-4.6,0-8.7-2-12.2-5.3c-0.4-0.4-0.8-0.8-1.2-1.2c-0.4-0.5-0.8-0.9-1.2-1.4c-0.8-1-1.5-1.9-2.2-3
			c-0.4-0.7-0.8-1.3-1.2-2c-0.2-0.4-0.2-0.9,0-1.4c0.4-0.7,0.8-1.4,1.2-2c1-1.6,2.1-3,3.4-4.4c3.8-4.1,8.3-6.5,13.4-6.5
			c4.6,0,8.7,2,12.2,5.3c0.4,0.4,0.8,0.8,1.2,1.2c0.4,0.5,0.8,0.9,1.2,1.4c0.8,0.9,1.5,1.9,2.2,3c0.4,0.7,0.8,1.3,1.2,2
			C41.6,23.2,41.6,23.7,41.4,24.2L41.4,24.2z"/>
	</g>
</g>
</svg>
