<?xml version="1.0" encoding="utf-8"?>
<!-- Generator: Adobe Illustrator 23.1.0, SVG Export Plug-In . SVG Version: 6.00 Build 0)  -->
<svg version="1.1" id="Capa_1" xmlns="http://www.w3.org/2000/svg" xmlns:xlink="http://www.w3.org/1999/xlink" x="0px" y="0px"
	 viewBox="0 0 173 61.1" style="enable-background:new 0 0 173 61.1;" xml:space="preserve">
<style type="text/css">
	.st0{fill:#FFFFFF;}
</style>
<g id="Grupo_14678" transform="translate(2412.735 -541.012)">
	<g id="Grupo_1" transform="translate(-2412.735 548.922)">
		<g id="Trazado_2" transform="translate(0 8.585)">
			<path id="Trazado_3580" class="st0" d="M7.7,4.4c1.2-0.6,2.5-1,3.9-1c1.2,0,2.3,0.3,3.4,0.8c1,0.5,1.9,1.4,2.6,2.4l3-2
				c-0.8-1.5-2.1-2.7-3.6-3.5C15.3,0.4,13.5,0,11.6,0c-2.1,0-4.1,0.5-6,1.4c-1.7,0.9-3.1,2.3-4.1,4c-2,3.6-2,8,0,11.6
				c1,1.7,2.4,3.1,4.1,4c1.8,1,3.9,1.5,6,1.5c1.9,0,3.7-0.4,5.3-1.2c1.5-0.8,2.8-2,3.6-3.5l-3-1.9c-0.6,1-1.5,1.8-2.6,2.4
				c-1.1,0.5-2.2,0.8-3.4,0.8c-1.4,0-2.7-0.3-3.9-1c-1.1-0.6-2.1-1.6-2.7-2.7c-0.7-1.3-1-2.7-1-4.1c0-1.4,0.3-2.8,1-4
				C5.6,6,6.6,5.1,7.7,4.4z"/>
		</g>
		<g id="Rectángulo_1" transform="translate(24.396)">
			<rect id="Rectángulo_3491" x="0" y="0" class="st0" width="4" height="30.8"/>
		</g>
		<g id="Trazado_3" transform="translate(32.899 8.586)">
			<path id="Trazado_3581" class="st0" d="M16.7,1.4C15,0.5,13,0,11,0c-2,0-3.9,0.5-5.7,1.4c-1.7,0.9-3,2.3-3.9,4
				C0.5,7.2,0,9.2,0,11.2c0,2,0.5,4,1.5,5.8c1,1.7,2.4,3.1,4.2,4c3.5,1.7,7.5,1.9,11.1,0.5c1.4-0.6,2.7-1.5,3.7-2.7l-2.2-2.6
				c-1.6,1.8-3.9,2.8-6.3,2.7c-2,0.1-3.9-0.6-5.4-1.8C5.1,16,4.2,14.4,4,12.5h17.8c0-0.4,0.1-0.8,0.1-1.2c0-2-0.4-4.1-1.4-5.9
				C19.6,3.8,18.3,2.4,16.7,1.4z M4,9.7c0.2-1.8,1-3.4,2.3-4.6c2.8-2.3,6.8-2.3,9.6,0c1.3,1.2,2.1,2.8,2.3,4.5L4,9.7z"/>
		</g>
		<g id="Trazado_4" transform="translate(55.016 8.796)">
			<path id="Trazado_3582" class="st0" d="M11.7,17.6L4.1,0H0l9.6,22h4.1l9.6-22h-3.9L11.7,17.6z"/>
		</g>
		<g id="Trazado_5" transform="translate(78.371 8.586)">
			<path id="Trazado_3583" class="st0" d="M16.7,1.4C14.9,0.5,13,0,11,0c-2,0-3.9,0.5-5.7,1.4c-1.7,0.9-3,2.3-3.9,4
				C0.5,7.2,0,9.2,0,11.2c0,2,0.5,4,1.5,5.8c1,1.7,2.4,3.1,4.2,4c3.5,1.7,7.5,1.9,11.1,0.5c1.4-0.6,2.7-1.5,3.7-2.7l-2.2-2.6
				c-1.6,1.8-3.9,2.8-6.3,2.7c-2,0.1-3.9-0.6-5.4-1.8C5.1,16,4.2,14.4,4,12.5h17.8c0-0.4,0.1-0.8,0.1-1.2c0-2-0.4-4.1-1.4-5.9
				C19.6,3.8,18.3,2.4,16.7,1.4z M4,9.7c0.2-1.8,1-3.4,2.3-4.6c2.8-2.3,6.8-2.3,9.6,0c1.3,1.2,2.1,2.8,2.3,4.5L4,9.7z"/>
		</g>
		<g id="Trazado_6" transform="translate(104.758 8.584)">
			<path id="Trazado_3584" class="st0" d="M3.8,3.9V0.2H0v22h4v-11c-0.1-2,0.5-4,1.8-5.5c1.3-1.3,3.2-2,5.1-1.9c0.3,0,0.6,0,0.9,0V0
				c-1.7,0-3.4,0.3-4.9,1C5.6,1.6,4.5,2.6,3.8,3.9z"/>
		</g>
	</g>
	<g id="Grupo_14672" transform="translate(-2411.87 586.188)">
		<path id="Trazado_3585" class="st0" d="M9.5,6.9c0,1-0.2,2-0.5,2.9c-0.3,0.8-0.8,1.4-1.5,1.9l2.1,1.6l-1.1,1l-2.5-2
			c-0.4,0.1-0.8,0.1-1.2,0.1c-0.9,0-1.7-0.2-2.5-0.7C1.5,11.4,1,10.7,0.6,9.9C0.2,9,0,8,0,7V6.2c0-1,0.2-2,0.6-3
			c0.3-0.8,0.9-1.5,1.7-2C3,0.7,3.9,0.5,4.7,0.5c0.9,0,1.8,0.2,2.5,0.7c0.7,0.5,1.3,1.2,1.7,2c0.4,0.9,0.6,2,0.6,3L9.5,6.9z
			 M7.9,6.1C8,5,7.7,3.9,7.1,2.9C6.5,2.2,5.6,1.8,4.7,1.8C3.8,1.8,3,2.2,2.4,2.9C1.8,3.8,1.5,4.9,1.6,6v0.9C1.5,8,1.8,9.1,2.4,10.1
			c0.5,0.8,1.4,1.2,2.3,1.2c0.9,0,1.8-0.4,2.3-1.1C7.7,9.2,8,8.1,7.9,7L7.9,6.1z"/>
		<path id="Trazado_3586" class="st0" d="M17.9,11.5c-0.7,0.7-1.6,1.1-2.6,1c-0.8,0.1-1.6-0.2-2.1-0.8c-0.5-0.7-0.8-1.5-0.7-2.4V3.7
			H14v5.6c0,1.3,0.5,2,1.6,2c1,0.1,1.9-0.4,2.3-1.3V3.7h1.5v8.7h-1.4L17.9,11.5z"/>
		<path id="Trazado_3587" class="st0" d="M27.8,12.4c-0.1-0.3-0.2-0.6-0.2-0.9c-0.6,0.7-1.5,1.1-2.5,1.1c-0.8,0-1.5-0.2-2.1-0.7
			c-0.5-0.5-0.8-1.1-0.8-1.9c0-0.8,0.4-1.6,1-2.1c0.9-0.6,1.9-0.8,2.9-0.8h1.5V6.4c0-0.5-0.1-0.9-0.5-1.2c-0.4-0.3-0.9-0.5-1.4-0.5
			c-0.5,0-0.9,0.1-1.3,0.4c-0.3,0.2-0.5,0.6-0.5,1h-1.5c0-0.5,0.2-0.9,0.5-1.3c0.3-0.4,0.8-0.8,1.3-1c0.6-0.2,1.1-0.4,1.7-0.4
			c0.9-0.1,1.7,0.2,2.4,0.8c0.6,0.5,0.9,1.3,0.9,2.1v4c0,0.7,0.1,1.3,0.3,1.9v0.1L27.8,12.4z M25.3,11.3c0.5,0,0.9-0.1,1.3-0.4
			c0.4-0.2,0.7-0.5,0.9-0.9V8.2h-1.2c-1.8,0-2.7,0.5-2.7,1.6c0,0.4,0.2,0.8,0.5,1.1C24.5,11.1,24.9,11.3,25.3,11.3L25.3,11.3z"/>
		<path id="Trazado_3588" class="st0" d="M33.8,12.4h-1.5V0h1.5V12.4z"/>
		<path id="Trazado_3589" class="st0" d="M36.9,1.3c0-0.2,0.1-0.4,0.2-0.6c0.2-0.2,0.4-0.3,0.7-0.3c0.2,0,0.5,0.1,0.7,0.3
			c0.2,0.2,0.2,0.4,0.2,0.6c0,0.2-0.1,0.4-0.2,0.6c-0.2,0.2-0.4,0.3-0.7,0.2c-0.2,0-0.5-0.1-0.7-0.2C37,1.8,36.9,1.6,36.9,1.3z
			 M38.5,12.4H37V3.7h1.5V12.4z"/>
		<path id="Trazado_3590" class="st0" d="M43.9,1.5v2.1h1.6v1.1h-1.6v5.4c0,0.3,0.1,0.6,0.2,0.8c0.2,0.2,0.5,0.3,0.7,0.3
			c0.2,0,0.5,0,0.7-0.1v1.2c-0.4,0.1-0.8,0.2-1.1,0.2c-0.6,0-1.1-0.2-1.5-0.6c-0.4-0.5-0.5-1.1-0.5-1.7V4.8h-1.6V3.7h1.6V1.5
			L43.9,1.5z"/>
		<path id="Trazado_3591" class="st0" d="M51.3,10.2l2-6.5H55l-3.5,10.1c-0.5,1.5-1.4,2.2-2.6,2.2l-0.3,0L48,15.8v-1.2l0.4,0
			c0.4,0,0.8-0.1,1.2-0.3c0.3-0.3,0.6-0.7,0.7-1.1l0.3-0.9l-3.1-8.6h1.6L51.3,10.2z"/>
	</g>
	<path id="Trazado_3592" class="st0" d="M-2251.6,541h-23c-6.5,0-11.8,5.3-11.8,11.8v23c0,6.5,5.3,11.8,11.8,11.8l0,0h23
		c6.5,0,11.8-5.3,11.8-11.8l0,0v-23C-2239.7,546.3-2245,541-2251.6,541C-2251.6,541-2251.6,541-2251.6,541z M-2249.3,552.8l1.8,1.6
		l-15.4,16.9l-8.4-8l1.7-1.8l6.6,6.2L-2249.3,552.8z M-2252,575.5c-2.9,2.9-6.9,4.6-11.1,4.6c-4.1,0-8.1-1.6-11.1-4.6
		c-2.9-2.9-4.6-6.9-4.6-11.1c0-4.1,1.6-8.1,4.6-11.1c2.9-2.9,6.9-4.6,11.1-4.6c3.8,0,7.6,1.4,10.4,4l-1.6,1.8
		c-2.4-2.2-5.5-3.4-8.8-3.4c-7.3,0-13.2,5.9-13.2,13.2c0,7.3,5.9,13.2,13.2,13.2c7.3,0,13.2-5.9,13.2-13.2c0-1.1-0.1-2.2-0.4-3.3
		l1.9-2.1c0.6,1.7,1,3.6,1,5.4C-2247.4,568.6-2249.1,572.6-2252,575.5L-2252,575.5z"/>
</g>
</svg>
