<?xml version="1.0" encoding="utf-8"?>
<!-- Generator: Adobe Illustrator 23.1.0, SVG Export Plug-In . SVG Version: 6.00 Build 0)  -->
<svg version="1.1" id="Capa_1" xmlns="http://www.w3.org/2000/svg" xmlns:xlink="http://www.w3.org/1999/xlink" x="0px" y="0px"
	 viewBox="0 0 173 60.9" style="enable-background:new 0 0 173 60.9;" xml:space="preserve">
<style type="text/css">
	.st0{fill:#FFFFFF;}
</style>
<g id="Grupo_14674" transform="translate(0 416)">
	<g id="Grupo_1" transform="translate(0 -408.09)">
		<g id="Trazado_2" transform="translate(0 8.586)">
			<path id="Trazado_3523" class="st0" d="M7.7,4.4c1.2-0.6,2.5-1,3.9-1c1.2,0,2.3,0.3,3.4,0.8c1,0.5,1.9,1.4,2.6,2.4l3-2
				C19.7,3.2,18.5,2,17,1.2C15.3,0.4,13.5,0,11.6,0c-2.1,0-4.1,0.5-6,1.4c-1.7,0.9-3.2,2.3-4.1,4c-2,3.6-2,8,0,11.6
				c1,1.7,2.4,3.1,4.1,4c1.8,1,3.9,1.5,6,1.5c1.9,0,3.7-0.4,5.3-1.2c1.5-0.8,2.8-2,3.6-3.5l-3-1.9c-0.6,1-1.5,1.8-2.6,2.4
				c-1.1,0.5-2.2,0.8-3.4,0.8c-1.4,0-2.7-0.3-3.9-1c-1.1-0.6-2.1-1.6-2.7-2.7c-0.7-1.3-1-2.7-1-4.1c0-1.4,0.3-2.8,1-4
				C5.6,6,6.6,5.1,7.7,4.4z"/>
		</g>
		<g id="Rectángulo_1" transform="translate(24.396)">
			<rect id="Rectángulo_3482" x="0" y="0" class="st0" width="4" height="30.8"/>
		</g>
		<g id="Trazado_3" transform="translate(32.899 8.586)">
			<path id="Trazado_3524" class="st0" d="M16.7,1.4C14.9,0.5,13,0,11,0c-2,0-3.9,0.5-5.7,1.4c-1.7,0.9-3,2.3-3.9,4
				C0.5,7.2,0,9.2,0,11.2c0,2,0.5,4,1.5,5.8c1,1.7,2.4,3.1,4.2,4c3.5,1.7,7.5,1.9,11.1,0.5c1.4-0.6,2.7-1.5,3.7-2.7l-2.2-2.6
				c-1.6,1.8-3.9,2.8-6.3,2.7c-2,0.1-3.9-0.6-5.4-1.8C5.1,16,4.2,14.4,4,12.5h17.8c0-0.4,0.1-0.8,0.1-1.2c0-2-0.4-4.1-1.4-5.9
				C19.6,3.8,18.3,2.4,16.7,1.4z M4,9.7c0.2-1.8,1-3.4,2.3-4.6c2.8-2.3,6.8-2.3,9.6,0c1.3,1.2,2.1,2.8,2.3,4.5L4,9.7z"/>
		</g>
		<g id="Trazado_4" transform="translate(55.016 8.796)">
			<path id="Trazado_3525" class="st0" d="M11.7,17.6L4.2,0H0l9.6,22h4.1l9.6-22h-3.9L11.7,17.6z"/>
		</g>
		<g id="Trazado_5" transform="translate(78.371 8.586)">
			<path id="Trazado_3526" class="st0" d="M16.7,1.4C14.9,0.5,13,0,11,0c-2,0-3.9,0.5-5.7,1.4c-1.7,0.9-3,2.3-3.9,4
				C0.5,7.2,0,9.2,0,11.2c0,2,0.5,4,1.5,5.8c1,1.7,2.4,3.1,4.2,4c3.5,1.7,7.5,1.9,11.1,0.5c1.4-0.6,2.7-1.5,3.7-2.6l-2.2-2.6
				c-1.6,1.8-3.9,2.8-6.3,2.7c-2,0.1-3.9-0.6-5.4-1.8C5.1,16,4.2,14.4,4,12.5h17.8c0-0.4,0.1-0.8,0.1-1.2c0-2-0.4-4.1-1.4-5.9
				C19.6,3.8,18.3,2.4,16.7,1.4z M4,9.7c0.2-1.8,1-3.4,2.3-4.6c2.8-2.3,6.8-2.3,9.6,0c1.3,1.2,2.1,2.8,2.3,4.5L4,9.7z"/>
		</g>
		<g id="Trazado_6" transform="translate(104.758 8.584)">
			<path id="Trazado_3527" class="st0" d="M3.8,3.9V0.2H0v22h4v-11c-0.1-2,0.5-4,1.8-5.5c1.3-1.3,3.2-2,5.1-1.9c0.3,0,0.6,0,0.9,0V0
				c-1.7,0-3.4,0.3-4.9,1C5.6,1.6,4.5,2.6,3.8,3.9z"/>
		</g>
	</g>
	<g id="Grupo_14662" transform="translate(1.348 -370.339)">
		<path id="Trazado_3528" class="st0" d="M0,11.9V0.2h3.3c0.9,0,1.9,0.2,2.7,0.7C6.8,1.3,7.4,2,7.8,2.8c0.4,0.9,0.7,1.9,0.6,2.9v0.8
			c0,1-0.2,2-0.6,2.9c-0.4,0.8-1,1.5-1.8,1.9c-0.9,0.5-1.8,0.7-2.8,0.7L0,11.9z M1.5,1.4v9.2h1.6c1,0.1,2.1-0.3,2.8-1.1
			c0.7-0.9,1.1-2,1-3.2V5.7C7,4.6,6.7,3.4,6,2.6C5.4,1.8,4.4,1.4,3.4,1.4L1.5,1.4z"/>
		<path id="Trazado_3529" class="st0" d="M15,12.1c-1.1,0-2.1-0.4-2.9-1.2c-0.8-0.9-1.2-2-1.1-3.1V7.5c0-0.8,0.2-1.6,0.5-2.3
			c0.3-0.7,0.8-1.2,1.4-1.6C13.5,3.2,14.2,3,14.9,3c1-0.1,2,0.4,2.6,1.1c0.7,0.9,1,2.1,0.9,3.2V8h-5.9c0,0.8,0.3,1.5,0.8,2.1
			c0.5,0.5,1.1,0.8,1.8,0.8c0.5,0,0.9-0.1,1.3-0.3c0.4-0.2,0.7-0.5,1-0.9l0.9,0.7C17.6,11.5,16.4,12.1,15,12.1z M14.9,4.2
			c-0.6,0-1.1,0.2-1.5,0.7c-0.4,0.5-0.7,1.2-0.8,1.8H17V6.6c0-0.6-0.2-1.3-0.6-1.8C16,4.4,15.4,4.2,14.9,4.2z"/>
		<path id="Trazado_3530" class="st0" d="M23.7,9.9l2.2-6.7h1.5l-3.1,8.7h-1.1L20,3.2h1.5L23.7,9.9z"/>
		<path id="Trazado_3531" class="st0" d="M39.1,6.4c0,1-0.2,2.1-0.6,3c-0.3,0.8-0.9,1.5-1.6,2c-0.7,0.5-1.6,0.7-2.5,0.7
			c-0.9,0-1.7-0.2-2.5-0.7c-0.7-0.5-1.3-1.1-1.7-1.9c-0.4-0.9-0.6-1.9-0.6-2.9V5.7c0-1,0.2-2,0.6-3c0.3-0.8,0.9-1.5,1.7-2
			C32.6,0.2,33.5,0,34.3,0c0.9,0,1.7,0.2,2.5,0.7c0.7,0.5,1.3,1.2,1.7,2c0.4,1,0.6,2,0.6,3L39.1,6.4z M37.5,5.7
			c0.1-1.1-0.2-2.3-0.8-3.2c-0.5-0.7-1.4-1.2-2.3-1.1c-0.9,0-1.8,0.4-2.3,1.1c-0.6,0.9-0.9,2-0.9,3.1v0.9c-0.1,1.1,0.2,2.2,0.9,3.2
			c0.5,0.8,1.4,1.2,2.3,1.2c0.9,0,1.8-0.4,2.3-1.1c0.6-0.9,0.9-2,0.8-3.1L37.5,5.7z"/>
		<path id="Trazado_3532" class="st0" d="M49.5,7.6c0.1,1.1-0.3,2.3-0.9,3.2c-0.6,0.8-1.5,1.3-2.5,1.2c-0.9,0-1.9-0.3-2.5-1v4.2
			h-1.5V3.2h1.4l0.1,1C44.1,3.4,45.1,3,46.1,3c1,0,1.9,0.4,2.5,1.2c0.7,1,1,2.1,0.9,3.3L49.5,7.6z M48,7.5c0-0.8-0.2-1.6-0.6-2.3
			c-0.4-0.6-1-0.9-1.7-0.9c-0.9,0-1.6,0.4-2,1.2v4.2c0.4,0.8,1.2,1.2,2,1.2c0.7,0,1.3-0.3,1.7-0.9C47.8,9.2,48,8.4,48,7.5L48,7.5z"
			/>
		<path id="Trazado_3533" class="st0" d="M57.2,9.6c0-0.4-0.2-0.7-0.5-0.9c-0.5-0.3-1-0.5-1.6-0.6c-0.6-0.1-1.2-0.3-1.8-0.6
			c-0.4-0.2-0.7-0.5-1-0.8C52.2,6.4,52,6,52.1,5.6c0-0.7,0.3-1.4,0.9-1.8C53.6,3.2,54.4,3,55.3,3c0.9,0,1.7,0.2,2.4,0.8
			c0.6,0.5,0.9,1.2,0.9,2h-1.5c0-0.4-0.2-0.8-0.5-1.1c-0.4-0.3-0.8-0.5-1.3-0.4c-0.5,0-0.9,0.1-1.3,0.4c-0.3,0.2-0.5,0.6-0.5,0.9
			c0,0.3,0.1,0.6,0.4,0.8c0.5,0.3,1,0.4,1.5,0.5c0.6,0.1,1.2,0.3,1.8,0.6c0.4,0.2,0.8,0.5,1,0.8c0.2,0.4,0.3,0.8,0.3,1.2
			c0,0.7-0.3,1.4-0.9,1.9c-0.7,0.5-1.6,0.7-2.4,0.7c-0.6,0-1.3-0.1-1.9-0.4c-0.5-0.2-0.9-0.6-1.3-1c-0.3-0.4-0.5-0.9-0.5-1.4h1.5
			c0,0.5,0.2,0.9,0.6,1.2c0.4,0.3,1,0.5,1.5,0.4c0.5,0,1-0.1,1.4-0.3C57,10.3,57.2,10,57.2,9.6z"/>
	</g>
	<g id="Grupo_14663" transform="translate(126.288 -416)">
		<path id="Trazado_3534" class="st0" d="M34.3,10.6c-0.5,0.2-0.9,0.4-1.4,0.6l2.3,2.3c0.3-0.4,0.5-0.9,0.6-1.4
			c0.4-1.1,0.3-1.7,0.2-1.7S35.4,10.2,34.3,10.6z"/>
		<path id="Trazado_3535" class="st0" d="M22.1,21.9l-1.7-1.7c0.5-0.5,1.3-1.3,2.2-2.2c-1.5,0.2-3.1,0.3-4.6,0.3c-1,0-1.9,0-2.7,0.1
			c-0.9,0.1-1.8,0.4-2.6,1l3.1,5.6l0.2-0.2c0.8-0.8,1.8-1.2,2.9-1.2c1.1,0,2.1,0.4,2.9,1.2c0.8,0.8,1.2,1.8,1.2,2.9
			c0,1.1-0.4,2.1-1.2,2.9l0,0l-0.2,0.2l5.5,3.1c0.6-0.8,1-1.8,1-2.8c0-0.7,0.1-1.5,0.1-2.3c0-1.7,0.1-3.4,0.3-5l-2.3,2.3l-1.7-1.7
			l9-9l-2.5-2.5C30.5,13.4,23.4,20.7,22.1,21.9z"/>
		<path id="Trazado_3536" class="st0" d="M19,25.8c-0.5,0-0.9,0.2-1.2,0.5l0,0L16,28l2.5,2.5l1.7-1.7c0.3-0.3,0.5-0.8,0.5-1.2
			c0-0.5-0.2-0.9-0.5-1.2C19.9,26,19.5,25.8,19,25.8z"/>
		<path id="Trazado_3537" class="st0" d="M34.9,0h-23C5.3,0,0,5.3,0,11.8v0v23c0,6.5,5.3,11.8,11.8,11.8h0h23
			c6.5,0,11.8-5.3,11.8-11.8v0v-23C46.7,5.3,41.4,0,34.9,0L34.9,0z M10,38.1l-1.7-1.7l4.7-4.7l1.7,1.7L10,38.1z M8.4,30.5l1.7-1.7
			l1.7,1.7l-1.7,1.7L8.4,30.5z M16,38.1l-1.7-1.7l1.7-1.7l1.7,1.7L16,38.1z M38.1,12.8c-0.4,1.2-1.1,2.4-1.9,3.3l-3.3,3.3
			c-2,2-2.1,6-2.2,9.3c0,0.9,0,1.7-0.1,2.4c-0.1,1.8-0.9,3.5-2.2,4.8l-0.7,0.7l-7.7-4.3l-1.4,1.4L12.7,28l1.5-1.4l-4.3-7.7l0.6-0.6
			c1.3-1.3,2.9-2,4.7-2.2c0.9-0.1,1.9-0.1,2.9-0.1c3,0,6.3-0.1,8.5-1.9c2-2,3.7-3.7,3.7-3.8l0,0c1-0.9,2.1-1.5,3.3-1.9
			c1.8-0.6,3.2-0.5,4.1,0.4S38.7,11,38.1,12.8z"/>
	</g>
</g>
</svg>
