<?xml version="1.0" encoding="utf-8"?>
<!-- Generator: Adobe Illustrator 19.0.0, SVG Export Plug-In . SVG Version: 6.00 Build 0)  -->
<svg version="1.1" id="Capa_1" xmlns="http://www.w3.org/2000/svg" xmlns:xlink="http://www.w3.org/1999/xlink" x="0px" y="0px"
	 viewBox="-140 163 118 42" style="enable-background:new -140 163 118 42;" xml:space="preserve">
<style type="text/css">
	.st0{fill:#0C0C0C;}
	.st1{fill:#7DDBC1;}
	.st2{fill:#979797;}
	.st3{fill:#FFFFFF;}
</style>
<g id="Grupo_1_14_" transform="translate(59.812 59.06)">
	<path id="Trazado_2_14_" class="st0" d="M-189.6,118.5c0.7-0.4,1.6-0.6,2.4-0.6c0.7,0,1.4,0.2,2.1,0.5c0.7,0.3,1.2,0.8,1.6,1.5
		l1.9-1.2c-0.5-0.9-1.3-1.7-2.3-2.2c-1-0.5-2.2-0.8-3.3-0.8c-1.3,0-2.6,0.3-3.7,0.9c-1.1,0.6-1.9,1.4-2.6,2.5
		c-1.2,2.2-1.2,4.9,0,7.2c0.6,1,1.5,1.9,2.6,2.5c1.1,0.6,2.4,0.9,3.7,0.9c1.1,0,2.3-0.2,3.3-0.8c0.9-0.5,1.7-1.2,2.3-2.2l-1.9-1.2
		c-0.4,0.6-0.9,1.1-1.6,1.5c-0.6,0.3-1.4,0.5-2.1,0.5c-0.8,0-1.7-0.2-2.4-0.6c-0.7-0.4-1.3-1-1.7-1.7c-0.4-0.8-0.6-1.7-0.6-2.5
		c0-0.9,0.2-1.7,0.6-2.5C-190.8,119.5-190.3,118.9-189.6,118.5z"/>
	<rect id="Rectángulo_1_14_" x="-179.2" y="110.4" class="st0" width="2.5" height="19"/>
	<path id="Trazado_3_14_" class="st0" d="M-163.7,116.6c-1.1-0.6-2.3-0.9-3.5-0.9c-1.2,0-2.4,0.3-3.5,0.9c-1,0.6-1.9,1.4-2.4,2.5
		c-0.6,1.1-0.9,2.3-0.9,3.6c0,1.3,0.3,2.5,0.9,3.6c0.6,1.1,1.5,1.9,2.6,2.5c2.2,1.1,4.7,1.2,6.9,0.3c0.9-0.4,1.7-0.9,2.3-1.6
		l-1.4-1.6c-1,1.1-2.4,1.7-3.9,1.6c-1.2,0-2.4-0.3-3.4-1.1c-0.9-0.7-1.5-1.8-1.6-2.9h11c0-0.3,0.1-0.5,0.1-0.8
		c0-1.3-0.3-2.5-0.9-3.7C-161.8,118.1-162.6,117.2-163.7,116.6z M-171.5,121.7c0.1-1.1,0.6-2.1,1.4-2.8c1.7-1.4,4.2-1.4,5.9,0
		c0.8,0.7,1.3,1.7,1.4,2.8H-171.5z"/>
	<path id="Trazado_4_14_" class="st0" d="M-153,126.8l-4.7-10.9h-2.6l6,13.6h2.5l6-13.6h-2.4L-153,126.8z"/>
	<path id="Trazado_5_14_" class="st0" d="M-135.5,116.6c-1.1-0.6-2.3-0.9-3.5-0.9c-1.2,0-2.4,0.3-3.5,0.9c-1,0.6-1.9,1.4-2.4,2.5
		c-0.6,1.1-0.9,2.3-0.9,3.6c0,1.3,0.3,2.5,0.9,3.6c0.6,1.1,1.5,1.9,2.6,2.5c2.2,1.1,4.6,1.2,6.9,0.3c0.9-0.4,1.7-0.9,2.3-1.6
		l-1.4-1.6c-1,1.1-2.4,1.7-3.9,1.6c-1.2,0-2.4-0.3-3.4-1.1c-0.9-0.7-1.5-1.8-1.6-2.9h11.1c0-0.3,0.1-0.5,0.1-0.8
		c0-1.3-0.3-2.5-0.9-3.7C-133.7,118.1-134.5,117.2-135.5,116.6z M-143.4,121.7c0.1-1.1,0.6-2.1,1.4-2.8c1.7-1.4,4.2-1.4,5.9,0
		c0.8,0.7,1.3,1.7,1.4,2.8H-143.4z"/>
	<path id="Trazado_6_14_" class="st0" d="M-127.1,118.2v-2.3h-2.4v13.6h2.5v-6.8c-0.1-1.2,0.3-2.5,1.1-3.4c0.8-0.8,2-1.3,3.1-1.2
		c0.2,0,0.4,0,0.6,0v-2.4c-1,0-2.1,0.2-3.1,0.6C-126,116.7-126.7,117.4-127.1,118.2z"/>
</g>
<g>
	<path class="st1" d="M-35,193.5h-13.8c-4.2,0-7.6-3.4-7.6-7.6v-13.8c0-4.2,3.4-7.6,7.6-7.6H-35c4.2,0,7.6,3.4,7.6,7.6v13.8
		C-27.4,190.1-30.8,193.5-35,193.5z"/>
</g>
<g>
	<path class="st2" d="M-132.8,191.7c0.5-0.1,1.1-0.1,1.7-0.1c1.2,0,2,0.3,2.5,0.8c0.6,0.5,0.9,1.2,0.9,2.2c0,1-0.3,1.9-0.9,2.4
		c-0.6,0.6-1.6,0.9-2.8,0.9c-0.6,0-1.1,0-1.5-0.1V191.7z M-132,197.2c0.2,0,0.5,0,0.8,0c1.7,0,2.7-1,2.7-2.7c0-1.5-0.8-2.4-2.5-2.4
		c-0.4,0-0.7,0-0.9,0.1V197.2z"/>
	<path class="st2" d="M-125.7,195.8c0,1.1,0.7,1.6,1.5,1.6c0.6,0,0.9-0.1,1.2-0.2l0.1,0.6c-0.3,0.1-0.8,0.3-1.5,0.3
		c-1.4,0-2.2-0.9-2.2-2.3c0-1.4,0.8-2.4,2.1-2.4c1.5,0,1.9,1.3,1.9,2.1c0,0.2,0,0.3,0,0.4H-125.7z M-123.3,195.2
		c0-0.5-0.2-1.3-1.1-1.3c-0.8,0-1.2,0.8-1.3,1.3H-123.3z"/>
	<path class="st2" d="M-120.8,193.4l0.9,2.5c0.1,0.4,0.3,0.8,0.4,1.2h0c0.1-0.4,0.2-0.7,0.4-1.2l0.9-2.5h0.9l-1.8,4.5h-0.8l-1.7-4.5
		H-120.8z"/>
	<path class="st2" d="M-115.9,195.8c0,1.1,0.7,1.6,1.5,1.6c0.6,0,0.9-0.1,1.2-0.2l0.1,0.6c-0.3,0.1-0.8,0.3-1.5,0.3
		c-1.4,0-2.2-0.9-2.2-2.3c0-1.4,0.8-2.4,2.1-2.4c1.5,0,1.9,1.3,1.9,2.1c0,0.2,0,0.3,0,0.4H-115.9z M-113.5,195.2
		c0-0.5-0.2-1.3-1.1-1.3c-0.8,0-1.2,0.8-1.3,1.3H-113.5z"/>
	<path class="st2" d="M-111.2,191.3h0.8v6.6h-0.8V191.3z"/>
	<path class="st2" d="M-104.5,195.6c0,1.7-1.2,2.4-2.2,2.4c-1.2,0-2.2-0.9-2.2-2.3c0-1.5,1-2.4,2.2-2.4
		C-105.4,193.3-104.5,194.2-104.5,195.6z M-108.1,195.6c0,1,0.6,1.7,1.4,1.7c0.8,0,1.4-0.7,1.4-1.7c0-0.8-0.4-1.7-1.3-1.7
		C-107.7,193.9-108.1,194.8-108.1,195.6z"/>
	<path class="st2" d="M-103,194.9c0-0.6,0-1,0-1.5h0.7l0,0.8h0c0.3-0.5,0.9-0.9,1.6-0.9c1.1,0,1.9,0.9,1.9,2.3c0,1.6-1,2.4-2,2.4
		c-0.6,0-1.1-0.3-1.4-0.7h0v2.4h-0.8V194.9z M-102.2,196.1c0,0.1,0,0.2,0,0.3c0.1,0.6,0.6,1,1.2,1c0.9,0,1.4-0.7,1.4-1.7
		c0-0.9-0.5-1.7-1.3-1.7c-0.6,0-1.1,0.4-1.2,1c0,0.1-0.1,0.2-0.1,0.3V196.1z"/>
	<path class="st2" d="M-97.3,194.6c0-0.5,0-0.8,0-1.2h0.7l0,0.7h0c0.3-0.4,0.7-0.8,1.4-0.8c0.6,0,1.1,0.4,1.3,0.9h0
		c0.1-0.3,0.3-0.4,0.5-0.6c0.3-0.2,0.6-0.3,1-0.3c0.6,0,1.5,0.4,1.5,2v2.6h-0.8v-2.5c0-0.9-0.3-1.4-1-1.4c-0.5,0-0.8,0.3-1,0.7
		c0,0.1-0.1,0.3-0.1,0.4v2.8h-0.8v-2.7c0-0.7-0.3-1.2-0.9-1.2c-0.5,0-0.9,0.4-1,0.8c0,0.1-0.1,0.3-0.1,0.4v2.7h-0.8V194.6z"/>
	<path class="st2" d="M-88.6,195.8c0,1.1,0.7,1.6,1.5,1.6c0.6,0,0.9-0.1,1.2-0.2l0.1,0.6c-0.3,0.1-0.8,0.3-1.5,0.3
		c-1.4,0-2.2-0.9-2.2-2.3c0-1.4,0.8-2.4,2.1-2.4c1.5,0,1.9,1.3,1.9,2.1c0,0.2,0,0.3,0,0.4H-88.6z M-86.2,195.2
		c0-0.5-0.2-1.3-1.1-1.3c-0.8,0-1.2,0.8-1.3,1.3H-86.2z"/>
	<path class="st2" d="M-84,194.6c0-0.5,0-0.8,0-1.2h0.7l0,0.7h0c0.2-0.4,0.7-0.8,1.5-0.8c0.6,0,1.6,0.4,1.6,1.9v2.7H-81v-2.6
		c0-0.7-0.3-1.3-1-1.3c-0.5,0-1,0.4-1.1,0.8c0,0.1-0.1,0.2-0.1,0.4v2.7H-84V194.6z"/>
	<path class="st2" d="M-77.5,192.1v1.3h1.2v0.6h-1.2v2.4c0,0.6,0.2,0.9,0.6,0.9c0.2,0,0.4,0,0.5-0.1l0,0.6c-0.2,0.1-0.4,0.1-0.7,0.1
		c-0.4,0-0.7-0.1-0.9-0.3c-0.2-0.2-0.3-0.6-0.3-1.2V194H-79v-0.6h0.7v-1.1L-77.5,192.1z"/>
</g>
<path class="st3" d="M-33,170c-0.5-0.5-1.4-0.6-2.5-0.2c-0.8,0.3-1.6,0.7-2.1,1.2l0,0c0,0-1.1,1.1-2.3,2.3c-1.4,1.1-3.5,1.1-5.3,1.2
	c-0.6,0-1.2,0-1.8,0.1c-1.1,0.1-2.2,0.6-2.9,1.4l-0.4,0.4l2.7,4.8l-0.9,0.9l3.6,3.6l0.9-0.9l4.8,2.7l0.4-0.4c0.8-0.8,1.3-1.9,1.4-3
	c0-0.5,0-1,0.1-1.5c0.1-2,0.1-4.5,1.3-5.8c1.1-1.1,2-2,2-2c0.5-0.5,0.9-1.3,1.2-2.1C-32.4,171.4-32.5,170.5-33,170z M-35.1,171.1
	c0.7-0.2,1-0.2,1.1-0.1c0,0,0.1,0.4-0.1,1.1c-0.1,0.3-0.2,0.6-0.4,0.9l-1.4-1.4C-35.7,171.4-35.4,171.2-35.1,171.1z M-46.5,181.9
	l1.1-1l0,0c0.2-0.2,0.5-0.3,0.8-0.3c0.3,0,0.6,0.1,0.8,0.3c0.2,0.2,0.3,0.5,0.3,0.8c0,0.3-0.1,0.6-0.3,0.8l-1.1,1.1L-46.5,181.9z
	 M-38.8,182.3c0,0.5,0,1-0.1,1.4c0,0.6-0.3,1.2-0.6,1.7l-3.4-1.9l0.1-0.1l0,0c0.5-0.5,0.7-1.1,0.7-1.8c0-0.7-0.3-1.3-0.7-1.8
	c-0.5-0.5-1.1-0.7-1.8-0.7c-0.7,0-1.3,0.3-1.8,0.7l-0.1,0.1l-1.9-3.4c0.5-0.3,1-0.5,1.6-0.6c0.5,0,1.1,0,1.7-0.1
	c0.9,0,1.9,0,2.9-0.2c-0.5,0.6-1,1-1.4,1.4l1,1c0.8-0.8,5.2-5.3,5.6-5.6l1.6,1.6c-0.4,0.4-4.7,4.7-5.6,5.6l1,1
	c0.4-0.4,0.9-0.9,1.4-1.4C-38.8,180.2-38.8,181.3-38.8,182.3z M-47.2,185.3l-2.9,2.9l-1-1l2.9-2.9L-47.2,185.3z M-46.5,186.1l1,1
	l-1,1l-1-1L-46.5,186.1z M-49.1,183.5l-1,1l-1-1l1-1L-49.1,183.5z"/>
</svg>
