<?xml version="1.0" encoding="utf-8"?>
<!-- Generator: Adobe Illustrator 23.1.0, SVG Export Plug-In . SVG Version: 6.00 Build 0)  -->
<svg version="1.1" id="Capa_1" xmlns="http://www.w3.org/2000/svg" xmlns:xlink="http://www.w3.org/1999/xlink" x="0px" y="0px"
	 viewBox="0 0 146.84 76" style="enable-background:new 0 0 146.84 76;" xml:space="preserve">
<style type="text/css">
	.st0{fill:#F1F1F0;}
	.st1{fill:#EB3C46;}
	.st2{fill:#0F69B4;}
	.st3{fill:#838384;}
</style>
<path class="st0" d="M39.78,38c0-18.5,15-33.5,33.5-33.5s33.5,15,33.5,33.5s-15,33.5-33.5,33.5l0,0C54.78,71.5,39.78,56.5,39.78,38"
	/>
<path class="st1" d="M73.28,0c-2.85,0-5.69,0.32-8.47,0.95l1.14,4.99c17.71-4.03,35.33,7.06,39.36,24.77s-7.06,35.33-24.77,39.36
	c-4.81,1.09-9.8,1.09-14.6,0l-1.14,4.99c20.46,4.66,40.83-8.15,45.49-28.61c4.66-20.46-8.15-40.83-28.61-45.49
	C78.93,0.32,76.11,0,73.28,0"/>
<path class="st2" d="M40.39,38C40.39,22.66,51,9.36,65.95,5.93l-1.14-4.99C44.35,5.63,31.56,26.02,36.24,46.48
	c3.25,14.21,14.35,25.31,28.56,28.57l1.14-4.99C51,66.64,40.4,53.34,40.39,38"/>
<path class="st3" d="M67.81,19.52c1.83,0.59,3.4,1.77,4.49,3.35c0.9,1.28,1.54,2.73,1.88,4.26c0.32,1.43,0.49,2.9,0.5,4.36
	c0.1,3.1-0.63,6.18-2.11,8.91c-1.76,3.2-5.2,5.11-8.84,4.92H52.37V18.95h11.36C65.11,18.94,66.49,19.13,67.81,19.52 M57.71,23.53
	v17.21h5.09c2.47,0.09,4.7-1.48,5.44-3.85c0.6-1.61,0.88-3.31,0.84-5.03c0.12-2.13-0.31-4.26-1.26-6.18
	c-0.84-1.44-2.52-2.16-5.03-2.16L57.71,23.53z"/>
<path class="st3" d="M94.2,18.95v4.67h-7.89v21.69h-5.54V23.62h-7.92v-4.67H94.2z"/>
<path class="st3" d="M56.73,49.3c0.31,0.1,0.58,0.3,0.77,0.57c0.15,0.22,0.26,0.47,0.32,0.73c0.06,0.24,0.08,0.49,0.09,0.75
	c0.02,0.53-0.11,1.05-0.36,1.52c-0.3,0.55-0.89,0.87-1.51,0.84h-1.94v-4.5h1.94C56.27,49.2,56.51,49.24,56.73,49.3 M55.01,49.99
	v2.93h0.87c0.42,0.02,0.8-0.25,0.93-0.66c0.1-0.27,0.15-0.57,0.14-0.86c0.02-0.36-0.05-0.73-0.22-1.06
	c-0.2-0.27-0.53-0.41-0.86-0.37L55.01,49.99z"/>
<path class="st3" d="M59.44,49.98h-0.88v-0.8h0.88V49.98z M58.56,50.38h0.88v3.33h-0.88V50.38z"/>
<path class="st3" d="M62.13,50.3h0.08v0.89c-0.06-0.01-0.1-0.01-0.15-0.01h-0.1c-0.28-0.03-0.56,0.1-0.71,0.34
	c-0.08,0.19-0.11,0.39-0.1,0.59v1.59h-0.88v-3.33h0.83v0.58c0.09-0.17,0.21-0.32,0.35-0.46c0.18-0.14,0.41-0.21,0.64-0.2L62.13,50.3
	"/>
<path class="st3" d="M64.89,50.44c0.23,0.11,0.43,0.28,0.58,0.49c0.14,0.21,0.23,0.44,0.26,0.69c0.03,0.22,0.04,0.44,0.03,0.66
	h-2.43c-0.01,0.28,0.12,0.54,0.35,0.7c0.14,0.09,0.31,0.13,0.48,0.13c0.28,0.02,0.54-0.13,0.66-0.38h0.89
	c-0.04,0.23-0.15,0.44-0.32,0.6c-0.33,0.34-0.78,0.51-1.25,0.49c-0.43,0.01-0.84-0.14-1.17-0.41c-0.37-0.34-0.55-0.83-0.51-1.33
	c-0.03-0.49,0.13-0.97,0.46-1.33c0.32-0.31,0.75-0.48,1.19-0.46C64.37,50.27,64.64,50.33,64.89,50.44 M63.59,51.19
	c-0.13,0.14-0.21,0.32-0.23,0.51h1.5c0-0.2-0.09-0.39-0.23-0.53c-0.14-0.12-0.33-0.19-0.52-0.18
	C63.91,50.98,63.72,51.05,63.59,51.19"/>
<path class="st3" d="M68.19,51.57c-0.01-0.12-0.06-0.24-0.13-0.34c-0.11-0.14-0.28-0.21-0.46-0.2c-0.28-0.01-0.52,0.17-0.6,0.44
	c-0.06,0.2-0.09,0.41-0.09,0.61c-0.01,0.2,0.02,0.4,0.09,0.59c0.08,0.26,0.32,0.43,0.59,0.42c0.16,0.02,0.32-0.04,0.43-0.17
	c0.09-0.13,0.15-0.27,0.16-0.43h0.89c-0.02,0.27-0.12,0.53-0.29,0.75c-0.28,0.38-0.74,0.6-1.21,0.57c-0.45,0.04-0.89-0.14-1.18-0.48
	c-0.27-0.36-0.4-0.79-0.38-1.24c-0.03-0.48,0.12-0.96,0.42-1.33c0.29-0.32,0.72-0.5,1.16-0.48c0.36-0.02,0.72,0.08,1.03,0.28
	c0.3,0.25,0.47,0.61,0.47,0.99L68.19,51.57L68.19,51.57z"/>
<path class="st3" d="M71.67,51.57c-0.01-0.12-0.06-0.24-0.13-0.34c-0.11-0.14-0.28-0.21-0.46-0.2c-0.28-0.01-0.52,0.17-0.6,0.44
	c-0.06,0.2-0.09,0.41-0.09,0.61c-0.01,0.2,0.02,0.4,0.09,0.59c0.08,0.26,0.32,0.43,0.59,0.42c0.16,0.02,0.32-0.04,0.43-0.17
	c0.09-0.12,0.15-0.27,0.16-0.43h0.89c-0.02,0.27-0.12,0.53-0.29,0.75c-0.28,0.38-0.74,0.6-1.21,0.57c-0.45,0.04-0.89-0.14-1.18-0.48
	c-0.27-0.36-0.4-0.79-0.38-1.24c-0.03-0.48,0.12-0.96,0.42-1.33c0.29-0.32,0.72-0.5,1.16-0.48c0.36-0.02,0.72,0.08,1.03,0.28
	c0.3,0.25,0.47,0.61,0.47,0.99L71.67,51.57L71.67,51.57z"/>
<path class="st3" d="M74.05,49.98h-0.88v-0.8h0.88V49.98z M73.17,50.38h0.88v3.33h-0.88V50.38z"/>
<path class="st3" d="M77.67,53.3c-0.71,0.69-1.85,0.69-2.56,0c-0.56-0.74-0.56-1.76,0-2.5c0.71-0.7,1.85-0.7,2.56,0
	C78.23,51.54,78.23,52.56,77.67,53.3 M76.97,52.82c0.27-0.48,0.27-1.06,0-1.54c-0.28-0.32-0.77-0.36-1.09-0.08
	c-0.03,0.03-0.06,0.05-0.08,0.08c-0.28,0.48-0.28,1.06,0,1.54c0.28,0.32,0.76,0.36,1.09,0.09C76.92,52.88,76.94,52.85,76.97,52.82
	 M77.43,49.02l-0.93,0.91h-0.63l0.59-0.91H77.43z"/>
<path class="st3" d="M81.4,50.57c0.24,0.23,0.36,0.57,0.33,0.9v2.24h-0.89v-2.03c0.01-0.14-0.02-0.27-0.07-0.4
	c-0.09-0.18-0.29-0.28-0.49-0.26c-0.26-0.02-0.5,0.13-0.6,0.38c-0.06,0.16-0.09,0.33-0.08,0.51v1.8h-0.87v-3.33h0.84v0.49
	c0.08-0.14,0.19-0.26,0.32-0.37c0.2-0.14,0.44-0.21,0.68-0.2C80.87,50.28,81.17,50.38,81.4,50.57"/>
<path class="st3" d="M86.04,50.43c0.16,0.09,0.29,0.21,0.38,0.37v-1.59h0.88v4.5h-0.85v-0.46c-0.1,0.18-0.25,0.33-0.43,0.43
	c-0.18,0.1-0.39,0.14-0.59,0.13c-0.38,0-0.75-0.17-0.98-0.47c-0.28-0.34-0.42-0.77-0.4-1.21c-0.03-0.48,0.11-0.95,0.39-1.34
	c0.25-0.32,0.64-0.5,1.05-0.49C85.69,50.29,85.88,50.34,86.04,50.43 M86.26,52.8c0.14-0.21,0.2-0.46,0.19-0.71
	c0.03-0.32-0.08-0.64-0.31-0.87c-0.12-0.1-0.28-0.16-0.44-0.16c-0.23-0.01-0.44,0.1-0.56,0.29c-0.24,0.45-0.24,1,0,1.45
	c0.12,0.18,0.33,0.29,0.55,0.28C85.91,53.09,86.13,52.99,86.26,52.8"/>
<path class="st3" d="M90.27,50.44c0.23,0.11,0.43,0.28,0.57,0.49c0.14,0.21,0.23,0.44,0.26,0.69c0.03,0.22,0.04,0.44,0.03,0.66
	h-2.42c-0.01,0.28,0.12,0.54,0.35,0.7c0.14,0.09,0.31,0.13,0.48,0.13c0.17,0.01,0.35-0.05,0.48-0.15c0.07-0.06,0.14-0.14,0.18-0.23
	h0.88c-0.04,0.23-0.15,0.44-0.32,0.6c-0.33,0.34-0.78,0.51-1.25,0.49c-0.43,0.01-0.84-0.14-1.17-0.41
	c-0.37-0.34-0.55-0.83-0.51-1.33c-0.03-0.49,0.13-0.97,0.46-1.33c0.32-0.31,0.75-0.48,1.19-0.46
	C89.75,50.27,90.02,50.33,90.27,50.44 M88.97,51.19c-0.13,0.14-0.21,0.32-0.23,0.51h1.5c0-0.2-0.09-0.39-0.23-0.53
	c-0.14-0.12-0.33-0.19-0.52-0.18C89.29,50.98,89.1,51.05,88.97,51.19"/>
<rect x="91.6" y="49.2" class="st3" width="0.87" height="4.5"/>
<path class="st3" d="M65.89,56.71v0.8h-1.35v3.71h-0.95v-3.71h-1.35v-0.8L65.89,56.71z"/>
<path class="st3" d="M67.87,57.81h0.07v0.89c-0.06-0.01-0.1-0.01-0.15-0.01h-0.1c-0.28-0.03-0.56,0.1-0.71,0.34
	c-0.08,0.19-0.11,0.39-0.1,0.59v1.59h-0.88v-3.33h0.83v0.58c0.09-0.17,0.21-0.32,0.35-0.46c0.18-0.14,0.41-0.21,0.64-0.2
	L67.87,57.81"/>
<path class="st3" d="M69.78,59.19c0.12-0.01,0.24-0.04,0.35-0.08c0.11-0.03,0.19-0.13,0.19-0.25c0.01-0.11-0.04-0.23-0.14-0.28
	c-0.13-0.06-0.28-0.09-0.42-0.08c-0.16-0.02-0.33,0.04-0.44,0.15c-0.07,0.09-0.11,0.19-0.12,0.31h-0.84
	c0.01-0.26,0.09-0.51,0.25-0.72c0.31-0.32,0.75-0.49,1.19-0.44c0.34-0.01,0.67,0.07,0.98,0.22c0.29,0.16,0.46,0.48,0.43,0.82v1.53
	c0,0.11,0,0.23,0.01,0.39c0,0.08,0.02,0.16,0.05,0.23c0.03,0.04,0.08,0.08,0.13,0.1v0.13h-0.95c-0.02-0.06-0.04-0.12-0.06-0.19
	c-0.01-0.06-0.02-0.13-0.03-0.2c-0.12,0.13-0.26,0.24-0.42,0.33c-0.19,0.11-0.42,0.17-0.64,0.16c-0.27,0.01-0.54-0.08-0.75-0.26
	c-0.21-0.19-0.32-0.46-0.3-0.73c-0.02-0.36,0.16-0.71,0.48-0.89c0.24-0.12,0.5-0.19,0.77-0.21L69.78,59.19z M70.31,59.6
	c-0.05,0.03-0.11,0.06-0.17,0.08c-0.08,0.03-0.15,0.05-0.23,0.06l-0.2,0.04c-0.14,0.02-0.27,0.06-0.4,0.12
	c-0.13,0.07-0.21,0.22-0.21,0.37c-0.01,0.12,0.04,0.24,0.13,0.32c0.09,0.07,0.2,0.1,0.31,0.1c0.19,0,0.37-0.06,0.53-0.17
	c0.18-0.15,0.27-0.37,0.25-0.6L70.31,59.6L70.31,59.6z"/>
<path class="st3" d="M74.78,58.29c0.26,0.35,0.39,0.78,0.37,1.22c0.02,0.46-0.11,0.91-0.37,1.29c-0.4,0.52-1.13,0.66-1.7,0.35
	c-0.13-0.09-0.24-0.21-0.32-0.34v0.42H71.9v-4.5h0.87v1.6c0.1-0.14,0.22-0.26,0.37-0.35c0.18-0.11,0.39-0.16,0.6-0.15
	c0.4-0.02,0.79,0.16,1.04,0.47 M74.05,60.31c0.13-0.21,0.2-0.46,0.19-0.71c0.01-0.2-0.02-0.4-0.09-0.59
	c-0.09-0.28-0.36-0.46-0.65-0.44c-0.29-0.02-0.56,0.16-0.66,0.43c-0.07,0.19-0.1,0.39-0.09,0.59c-0.01,0.25,0.06,0.5,0.19,0.71
	c0.13,0.19,0.35,0.3,0.58,0.28C73.74,60.59,73.94,60.49,74.05,60.31"/>
<path class="st3" d="M77.08,59.19c0.12-0.01,0.24-0.04,0.35-0.08c0.11-0.03,0.19-0.13,0.19-0.25c0.01-0.11-0.04-0.23-0.14-0.28
	c-0.13-0.06-0.28-0.09-0.42-0.08c-0.16-0.02-0.33,0.04-0.44,0.15c-0.07,0.09-0.11,0.19-0.12,0.31h-0.84
	c0.01-0.26,0.09-0.51,0.25-0.72c0.31-0.32,0.75-0.49,1.19-0.44c0.34-0.01,0.67,0.07,0.98,0.22c0.29,0.16,0.46,0.48,0.43,0.82v1.53
	c0,0.11,0,0.23,0.01,0.39c0,0.08,0.02,0.16,0.05,0.23c0.03,0.04,0.08,0.08,0.13,0.1v0.13h-0.95c-0.02-0.06-0.04-0.12-0.05-0.19
	c-0.01-0.06-0.02-0.13-0.03-0.2c-0.12,0.13-0.26,0.24-0.42,0.33c-0.19,0.11-0.42,0.17-0.64,0.16c-0.27,0.01-0.54-0.08-0.75-0.26
	c-0.21-0.19-0.32-0.46-0.3-0.73c-0.02-0.36,0.16-0.71,0.48-0.89c0.24-0.12,0.5-0.19,0.77-0.21L77.08,59.19z M77.61,59.6
	c-0.05,0.03-0.11,0.06-0.17,0.08c-0.08,0.03-0.15,0.05-0.23,0.06l-0.2,0.04c-0.14,0.02-0.27,0.06-0.4,0.12
	c-0.13,0.07-0.21,0.22-0.21,0.37c-0.01,0.12,0.04,0.24,0.13,0.32c0.09,0.07,0.2,0.1,0.31,0.1c0.19,0,0.37-0.06,0.52-0.17
	c0.18-0.15,0.27-0.37,0.25-0.6L77.61,59.6L77.61,59.6z"/>
<path class="st3" d="M78.86,61.85l0.1,0.01h0.06c0.07,0.01,0.14-0.02,0.19-0.06c0.05-0.07,0.08-0.16,0.07-0.24V57.9h0.87v3.67
	c0.02,0.26-0.05,0.53-0.2,0.75c-0.21,0.19-0.5,0.28-0.78,0.24c-0.03,0-0.07,0-0.12,0l-0.19-0.01L78.86,61.85z M80.15,57.49h-0.87
	v-0.8h0.87V57.49z"/>
<path class="st3" d="M83.75,60.81c-0.71,0.69-1.85,0.69-2.56,0c-0.56-0.74-0.56-1.76,0-2.5c0.71-0.7,1.85-0.7,2.56,0
	C84.31,59.05,84.31,60.07,83.75,60.81 M83.05,60.33c0.27-0.48,0.27-1.06,0-1.54c-0.28-0.32-0.77-0.36-1.09-0.08
	c-0.03,0.03-0.06,0.05-0.08,0.08c-0.27,0.48-0.27,1.06,0,1.54c0.28,0.32,0.76,0.36,1.09,0.09C82.99,60.39,83.02,60.36,83.05,60.33"
	/>
</svg>
