<?xml version="1.0" encoding="utf-8"?>
<!-- Generator: Adobe Illustrator 23.1.0, SVG Export Plug-In . SVG Version: 6.00 Build 0)  -->
<svg version="1.1" id="Capa_1" xmlns="http://www.w3.org/2000/svg" xmlns:xlink="http://www.w3.org/1999/xlink" x="0px" y="0px"
	 viewBox="0 0 146.84 76" style="enable-background:new 0 0 146.84 76;" xml:space="preserve">
<style type="text/css">
	.st0{fill:#696158;}
</style>
<path class="st0" d="M62.1,28.49c1.71-3,4.58-1.64,7.22-1.96v22.09c-2.54-0.13-5.34,1.1-7.14-1.8c-1.15,0.69-2.34,1.29-3.58,1.81
	c-3.29,1.1-6.08,0.04-8.3-2.45c-3.55-4.29-4.12-10.31-1.44-15.19C51.93,25.73,56.59,24.8,62.1,28.49z M62.72,37.52v-1.47
	c0-2.5-1.34-3.81-3.82-3.77c-2.22,0.05-4.15,1.54-4.76,3.67c-0.7,2.23,0.09,4.66,1.97,6.04c1.49,1.05,3.43,1.2,5.06,0.38
	c1.74-0.78,1.6-2.27,1.55-3.75C62.71,38.25,62.72,37.89,62.72,37.52L62.72,37.52z"/>
<path class="st0" d="M17.28,46.81C10.74,52.15,3.49,47.18,2.62,39c-0.38-3.16,0.41-6.34,2.21-8.96c2.92-4.27,7.71-5.09,11.87-2.02
	c0.19,0.14,0.39,0.26,0.57,0.38c2.62-2.01,3.62-2.23,7.41-1.63v21.68C21.32,49.13,19.8,48.8,17.28,46.81z M18.12,37.62
	c-0.32-1.55,0.71-3.43-1.28-4.62c-2.1-1.19-4.75-0.74-6.35,1.06c-1.65,2.1-1.63,5.07,0.05,7.14c1.58,1.74,4.14,2.17,6.2,1.05
	C18.78,41.11,17.85,39.24,18.12,37.62L18.12,37.62z"/>
<path class="st0" d="M144.29,37.61c0.11,6.21-4.84,11.34-11.05,11.44c-0.13,0-0.26,0-0.39,0c-6.33-0.01-11.45-5.15-11.44-11.47
	s5.15-11.45,11.47-11.44l0,0c6.21-0.1,11.32,4.86,11.41,11.07C144.3,37.34,144.3,37.48,144.29,37.61L144.29,37.61z M137.65,37.63
	c0.01-3.04-1.94-5.29-4.65-5.35c-2.69-0.07-4.77,2.18-4.81,5.19c-0.05,3.18,1.92,5.43,4.74,5.43
	C135.68,42.88,137.64,40.7,137.65,37.63L137.65,37.63z"/>
<path class="st0" d="M74.02,26.67h6.64v15.1h7.17V26.68h6.66v22h-9.77c-5.91,0-5.92,0.01-9.9-4.32c-0.4-0.36-0.67-0.85-0.77-1.38
	C74,37.58,74.02,32.18,74.02,26.67z"/>
<path class="st0" d="M119.15,30.53l-4.58,4.21c-2.95-2.85-5.64-3.21-7.75-0.85c-1.9,2.35-1.69,5.76,0.48,7.86
	c2.29,1.92,4.98,1.4,7.34-1.5l4.32,4.68c-2.14,3.36-7.25,4.95-12.15,3.57c-6.02-1.88-9.37-8.29-7.49-14.31
	c1.15-3.69,4.1-6.54,7.82-7.59C111.57,25.27,116.79,26.96,119.15,30.53z"/>
<path class="st0" d="M29.37,26.66h6.53l0.22,3.58c1.53-1.34,2.67-2.93,4.2-3.51c1.5-0.57,3.38-0.13,5.16-0.13v6.66H36v15.3h-6.63
	L29.37,26.66z"/>
</svg>
