<?xml version="1.0" encoding="utf-8"?>
<!-- Generator: Adobe Illustrator 23.1.0, SVG Export Plug-In . SVG Version: 6.00 Build 0)  -->
<svg version="1.1" id="Capa_1" xmlns="http://www.w3.org/2000/svg" xmlns:xlink="http://www.w3.org/1999/xlink" x="0px" y="0px"
	 viewBox="0 0 146.8 76" style="enable-background:new 0 0 146.8 76;" xml:space="preserve">
<style type="text/css">
	.st0{fill:#F7F9FB;}
	.st1{fill:#696158;}
</style>
<rect class="st0" width="146.8" height="76"/>
<path class="st1" d="M62.1,28.5c1.7-3,4.6-1.6,7.2-2v22.1c-2.5-0.1-5.3,1.1-7.1-1.8c-1.2,0.7-2.3,1.3-3.6,1.8
	c-3.3,1.1-6.1,0-8.3-2.5c-3.5-4.3-4.1-10.3-1.4-15.2C51.9,25.7,56.6,24.8,62.1,28.5z M62.7,37.5V36c0-2.5-1.3-3.8-3.8-3.8
	c-2.2,0-4.2,1.5-4.8,3.7c-0.7,2.2,0.1,4.7,2,6c1.5,1,3.4,1.2,5.1,0.4c1.7-0.8,1.6-2.3,1.5-3.8C62.7,38.3,62.7,37.9,62.7,37.5
	L62.7,37.5z"/>
<path class="st1" d="M17.3,46.8C10.7,52.2,3.5,47.2,2.6,39c-0.4-3.2,0.4-6.3,2.2-9c2.9-4.3,7.7-5.1,11.9-2c0.2,0.1,0.4,0.3,0.6,0.4
	c2.6-2,3.6-2.2,7.4-1.6v21.7C21.3,49.1,19.8,48.8,17.3,46.8z M18.1,37.6c-0.3-1.5,0.7-3.4-1.3-4.6c-2.1-1.2-4.8-0.7-6.4,1.1
	c-1.6,2.1-1.6,5.1,0.1,7.1c1.6,1.7,4.1,2.2,6.2,1C18.8,41.1,17.9,39.2,18.1,37.6L18.1,37.6z"/>
<path class="st1" d="M144.3,37.6c0.1,6.2-4.8,11.3-11.1,11.4c-0.1,0-0.3,0-0.4,0c-6.3,0-11.4-5.2-11.4-11.5s5.2-11.5,11.5-11.4l0,0
	c6.2-0.1,11.3,4.9,11.4,11.1C144.3,37.3,144.3,37.5,144.3,37.6L144.3,37.6z M137.6,37.6c0-3-1.9-5.3-4.6-5.3
	c-2.7-0.1-4.8,2.2-4.8,5.2c-0.1,3.2,1.9,5.4,4.7,5.4C135.7,42.9,137.6,40.7,137.6,37.6L137.6,37.6z"/>
<path class="st1" d="M74,26.7h6.6v15.1h7.2V26.7h6.7v22h-9.8c-5.9,0-5.9,0-9.9-4.3C74.4,44,74.1,43.5,74,43C74,37.6,74,32.2,74,26.7
	z"/>
<path class="st1" d="M119.2,30.5l-4.6,4.2c-2.9-2.9-5.6-3.2-7.8-0.8c-1.9,2.3-1.7,5.8,0.5,7.9c2.3,1.9,5,1.4,7.3-1.5l4.3,4.7
	c-2.1,3.4-7.3,5-12.2,3.6c-6-1.9-9.4-8.3-7.5-14.3c1.2-3.7,4.1-6.5,7.8-7.6C111.6,25.3,116.8,27,119.2,30.5z"/>
<path class="st1" d="M29.4,26.7h6.5l0.2,3.6c1.5-1.3,2.7-2.9,4.2-3.5c1.5-0.6,3.4-0.1,5.2-0.1v6.7H36v15.3h-6.6L29.4,26.7z"/>
</svg>
