<?xml version="1.0" encoding="utf-8"?>
<!-- Generator: Adobe Illustrator 23.1.0, SVG Export Plug-In . SVG Version: 6.00 Build 0)  -->
<svg version="1.1" id="Capa_1" xmlns="http://www.w3.org/2000/svg" xmlns:xlink="http://www.w3.org/1999/xlink" x="0px" y="0px"
	 viewBox="0 0 146.8 76" style="enable-background:new 0 0 146.8 76;" xml:space="preserve">
<style type="text/css">
	.st0{fill:#F7F9FB;}
	.st1{fill:#FFFFFF;}
	.st2{fill:#FDC600;}
</style>
<rect x="-0.4" y="0.5" class="st0" width="146.8" height="76"/>
<rect id="Rectángulo_3462" x="1" y="20.5" class="st1" width="144.4" height="36"/>
<g id="Grupo_14549" transform="translate(0 0)">
	<g id="Grupo_14548">
		<g id="Grupo_14547">
			<g id="Grupo_14546">
				<rect id="Rectángulo_3463" x="0.9" y="20.4" class="st2" width="108.5" height="36.1"/>
				<path id="Trazado_3438" d="M30,35.7c0.5,0,0.7-0.2,0.8-0.7l0.2-1.4c0-0.2,0-0.4,0-0.5c0-0.3-0.2-0.5-0.6-0.5h-5.5
					c-0.8,0-1.5,0.1-2.3,0.3c-1,0.3-1.9,1-2.3,2c-0.2,0.4-0.3,0.9-0.3,1.3l-1,7.3c0,0.2,0,0.3-0.1,0.5c0,0.3,0.2,0.5,0.6,0.5h2
					c0.5,0,0.7-0.2,0.8-0.7l0.3-2.5H29c0.5,0,0.7-0.2,0.8-0.7l0.2-1.4c0-0.2,0-0.4,0-0.5c0-0.3-0.2-0.5-0.6-0.5h-6.3l0.2-1.7
					c0.1-0.6,0.3-0.7,0.9-0.7L30,35.7L30,35.7z"/>
				<path id="Trazado_3439" d="M36.6,33.6c0-0.2,0-0.4,0-0.5c0-0.3-0.2-0.5-0.6-0.5h-2c-0.5,0-0.7,0.2-0.8,0.7l-1.4,10.1
					c0,0.2,0,0.4-0.1,0.5c0,0.3,0.2,0.5,0.6,0.5h2c0.5,0,0.7-0.2,0.8-0.7L36.6,33.6L36.6,33.6z"/>
				<path id="Trazado_3440" d="M71.6,33.6c0-0.2,0-0.4,0-0.5c0-0.3-0.2-0.5-0.6-0.5h-2c-0.5,0-0.7,0.2-0.8,0.7l-1.4,10.1
					c0,0.2,0,0.3-0.1,0.5c0,0.3,0.2,0.5,0.6,0.5h2c0.5,0,0.7-0.2,0.8-0.7L71.6,33.6L71.6,33.6z"/>
				<path id="Trazado_3441" d="M81.4,43.4c0,0.2,0,0.3-0.1,0.5c0,0.3,0.2,0.5,0.6,0.5h2c0.5,0,0.7-0.2,0.8-0.7l0.9-6.6
					c0.1-0.4,0.1-0.8,0.1-1.2c0.1-1.1-0.5-2.1-1.4-2.7c-0.9-0.5-1.9-0.7-3-0.6H75c-0.5,0-0.7,0.2-0.8,0.7l-1.4,10.1
					c0,0.2,0,0.3-0.1,0.5c0,0.3,0.2,0.5,0.6,0.5h2c0.5,0,0.7-0.2,0.8-0.7l1.1-8h4.2c0.6,0,0.8,0.3,0.8,0.7c0,0.2,0,0.5-0.1,0.6
					L81.4,43.4L81.4,43.4z"/>
				<path id="Trazado_3442" d="M60.9,43.4c0,0.2,0,0.3-0.1,0.5c0,0.3,0.2,0.5,0.6,0.5h2c0.5,0,0.7-0.2,0.8-0.7l0.9-6.6
					c0.1-0.4,0.1-0.8,0.1-1.2c0.1-1.1-0.5-2.1-1.4-2.7c-0.9-0.5-1.9-0.7-3-0.6h-6.4c-0.5,0-0.7,0.2-0.8,0.7l-1.4,10.1
					c0,0.2,0,0.3-0.1,0.5c0,0.3,0.2,0.5,0.6,0.5h2c0.5,0,0.7-0.2,0.8-0.7l1.1-8h4.2c0.6,0,0.8,0.3,0.8,0.7c0,0.2,0,0.5-0.1,0.6
					L60.9,43.4L60.9,43.4z"/>
				<path id="Trazado_3443" d="M46.4,43.4c0,0.2,0,0.3-0.1,0.5c0,0.3,0.2,0.5,0.6,0.5h2c0.5,0,0.7-0.2,0.8-0.7l0.9-6.6
					c0.1-0.4,0.1-0.8,0.1-1.2c0.1-1.1-0.5-2.1-1.4-2.7c-0.9-0.5-1.9-0.7-3-0.6H40c-0.5,0-0.7,0.2-0.8,0.7l-1.4,10.1
					c0,0.2,0,0.3-0.1,0.5c0,0.3,0.2,0.5,0.6,0.5h2c0.5,0,0.7-0.2,0.8-0.7l1.1-8h4.2c0.6,0,0.8,0.3,0.8,0.7c0,0.2,0,0.5-0.1,0.6
					L46.4,43.4L46.4,43.4z"/>
				<path id="Trazado_3444" d="M90.9,40.6c0-0.2,0-0.4,0-0.5l0.5-3.7c0.1-0.6,0.3-0.7,0.9-0.7H99c0.5,0,0.7-0.2,0.8-0.7l0.2-1.4
					c0-0.2,0-0.4,0-0.5c0-0.3-0.2-0.5-0.6-0.5H93c-0.8,0-1.5,0.1-2.3,0.3c-1,0.3-1.9,1-2.3,2c-0.2,0.4-0.3,0.9-0.3,1.3l-0.5,4.1
					c-0.1,0.4-0.1,0.8-0.1,1.2c0,1,0.4,2,1.3,2.5s1.8,0.7,2.8,0.6h6.3c0.5,0,0.7-0.2,0.8-0.7l0.7-5.4c0-0.1,0.1-0.4,0.1-0.6
					c0-0.3-0.2-0.5-0.6-0.5h-4.6c-0.5,0-0.7,0.2-0.8,0.7L93.4,39c0,0.2,0,0.4,0,0.5c0,0.3,0.2,0.5,0.6,0.5h1.9l-0.2,1.4h-4
					C91.1,41.3,90.9,41,90.9,40.6L90.9,40.6z"/>
			</g>
		</g>
	</g>
</g>
<path id="Trazado_3445" d="M109.3,56.5V20.4h36.1v36.1H109.3z M121.4,43.9c0.5-0.4,0.8-1.1,0.8-1.8v-2.5h-3.5V43
	c0,0.5-0.4,0.9-0.9,0.9l0,0c-0.5,0-0.8-0.4-0.8-0.9l0,0v-9.5c0-0.5,0.3-0.9,0.8-0.9l0,0c0.5,0,0.9,0.4,0.9,0.9l0,0v3.4h3.5v-3.5l0,0
	c0-1.9-1.3-3.6-4.4-3.6l0,0c-3.2,0-4.4,1.6-4.4,3.6v10c0,1.9,1.5,3.4,3.4,3.4h0.1h1.1L121.4,43.9z M117,43.1v-9.6
	c0-0.5,0.3-0.9,0.8-0.9l0,0 M138,46.7h1V33.4h2.4v-3.2h-8.7v3.2h2.4v11L138,46.7z M130.6,30.2h-4.8L123,42.8l5.2-4.2l5.5,4.6
	L130.6,30.2z M129.2,37.8l-0.9-4.8l-0.9,4.8H129.2z M143.1,32.1c0.6,0,1-0.5,1-1c0-0.6-0.5-1-1-1c-0.6,0-1,0.5-1,1
	C142.1,31.6,142.5,32.1,143.1,32.1L143.1,32.1z M143.1,31.9c-0.5,0-0.8-0.4-0.8-0.8c0-0.5,0.4-0.8,0.8-0.8c0.5,0,0.8,0.4,0.8,0.8
	C143.9,31.5,143.6,31.9,143.1,31.9L143.1,31.9L143.1,31.9z M143,31.1c0.1,0,0.1,0,0.2,0c0.1,0,0.1,0.1,0.1,0.2s0,0.1,0,0.2h0.2
	c0-0.1-0.1-0.2-0.1-0.3c0-0.1,0-0.2-0.2-0.2l0,0c0.1,0,0.3-0.1,0.2-0.3c0-0.3-0.2-0.3-0.4-0.3h-0.4v1.2h0.2v-0.5L143,31.1L143,31.1z
	 M142.9,30.9v-0.3h0.2c0.1,0,0.2,0,0.2,0.1s0,0.2-0.2,0.2L142.9,30.9z M136.7,46.7l-8.4-7.1l-8.7,7.1H136.7z"/>
<path id="Trazado_3446" class="st2" d="M136.7,46.7l-8.4-7.1l-8.7,7.1H136.7z"/>
</svg>
