<?xml version="1.0" encoding="utf-8"?>
<!-- Generator: Adobe Illustrator 23.1.0, SVG Export Plug-In . SVG Version: 6.00 Build 0)  -->
<svg version="1.1" id="Capa_1" xmlns="http://www.w3.org/2000/svg" xmlns:xlink="http://www.w3.org/1999/xlink" x="0px" y="0px"
	 viewBox="0 0 146.8 76" style="enable-background:new 0 0 146.8 76;" xml:space="preserve">
<style type="text/css">
	.st0{fill:#FFFFFF;}
	.st1{fill:#A8C947;}
</style>
<rect y="-0.2" class="st0" width="147.4" height="76.9"/>
<g id="Grupo_14554" transform="translate(-2091.405 -1862)">
	<g id="Grupo_14545" transform="translate(2091.405 1862)">
		<g id="Grupo_14544">
			<path id="Trazado_3428" class="st1" d="M14,24.5c0.7-3.1,1.3-5.8,3.7-8.1c1.6-1.6,3.8-2.5,6-2.5c0.5,0,1,0,1.4,0.1l-0.2,1
				c-0.6-0.1-1.3-0.1-1.9,0c-0.8,0.2-1.6,0.7-2.2,1.3c-1.3,1.3-1.7,2.7-2.4,6.1l-2.5,11.2h6.2l-0.4,1.5h-6.2l-3.9,17.4
				c-0.7,3.1-1.3,5.8-3.7,8.2c-1.6,1.6-3.8,2.5-6.1,2.5H0.9l0.4-1.3c0.2,0,0.5,0,0.7-0.1c1.1-0.1,2.1-0.6,2.8-1.5
				c1.2-1.5,1.4-2.4,2.3-5.7l4.3-19.4h-6l0.4-1.5h6.1L14,24.5z"/>
			<path id="Trazado_3429" class="st1" d="M98.9,40.7H90c0.6-2.3,2.4-5.9,5.7-5.9C99.3,34.8,99.4,38.4,98.9,40.7 M96.1,33
				c-4.8,0-9,3.4-9.8,8.1c-1.7,8.4,4.6,10,7.2,10c1.9,0,3.8-0.6,5.4-1.8l-1.2-1.4c-1,0.6-2.1,1-3.3,1c-4.3,0-5-3.7-4.7-6.3h12.5
				C103.4,38.5,102,33,96.1,33"/>
			<path id="Trazado_3430" class="st1" d="M44.8,20.4c0,0-5.2,22.5-5.7,25.2c-0.7,4.2,1.5,4.8,2.6,5c1.2,0.2,2.4,0.2,3.5-0.1
				l0.2-1.4c-0.6,0.2-1.2,0.2-1.8,0.1c-1.3-0.2-1.5-1-1.2-3.3c0.4-2.6,5.9-25.6,5.9-25.6L44.8,20.4L44.8,20.4z"/>
			<path id="Trazado_3431" class="st1" d="M109.7,20.4c0,0-5.2,22.5-5.7,25.2c-0.7,4.2,1.5,4.8,2.6,5c1.2,0.2,2.4,0.2,3.5-0.1
				l0.2-1.4c-0.6,0.2-1.2,0.2-1.8,0.1c-1.3-0.2-1.5-1-1.2-3.3c0.4-2.6,5.9-25.6,5.9-25.6L109.7,20.4L109.7,20.4L109.7,20.4z"/>
			<path id="Trazado_3432" class="st1" d="M117.7,20.4c0,0-5.2,22.5-5.7,25.2c-0.7,4.2,1.4,4.8,2.6,5s2.4,0.2,3.5-0.1l0.2-1.4
				c-0.6,0.2-1.2,0.2-1.8,0.1c-1.3-0.2-1.5-1-1.2-3.3c0.4-2.6,5.9-25.6,5.9-25.6L117.7,20.4L117.7,20.4z"/>
			<path id="Trazado_3433" class="st1" d="M32.3,43.2c-0.4,1.4-2.1,6.3-6,6.3c-4.7,0-2.4-7.1-2-8.5c0.4-1.3,2.1-6.3,5.9-6.3
				C34.7,34.7,32.8,41.8,32.3,43.2 M34.4,33.5L34,35.2h-0.1c-0.9-1.8-2.6-2.3-4.4-2.3c-5.3,0-8.4,4.4-9.3,8.6
				c-1.3,6,0.6,9.5,5.6,9.5c2.3,0,4.4-0.9,6-2.5l0.9,1.9h1.8l3.7-17L34.4,33.5L34.4,33.5z"/>
			<path id="Trazado_3434" class="st1" d="M60.4,43.2c-0.4,1.4-2.1,6.3-6,6.3c-4.7,0-2.4-7.1-2-8.5c0.4-1.3,2.1-6.4,5.8-6.4
				C62.8,34.7,60.8,41.8,60.4,43.2 M62.5,33.5L62,35.2l0,0c-1-1.7-2.7-2.2-4.4-2.2c-5.3,0-8.4,4.4-9.3,8.6c-1.3,6,0.6,9.5,5.6,9.5
				c2.3,0,4.4-0.9,6-2.5l0.9,1.9h1.8l3.7-17H62.5L62.5,33.5z"/>
			<path id="Trazado_3435" class="st1" d="M132.9,43.2c-0.4,1.4-2.1,6.3-6,6.3c-4.7,0-2.4-7.1-2-8.5c0.4-1.3,2-6.4,5.8-6.4
				C135.3,34.7,133.3,41.8,132.9,43.2 M134.9,33.5l-0.4,1.8h-0.1c-0.9-1.6-2.6-2.4-4.4-2.3c-5.3,0-8.3,4.4-9.3,8.6
				c-1.3,6,0.6,9.5,5.6,9.5c2.3,0,4.4-0.9,6-2.5l0.9,1.9h1.8l3.7-17H134.9L134.9,33.5z"/>
			<path id="Trazado_3436" class="st1" d="M79.8,43.4c-0.4,1.4-2,6.3-5.6,6.3c-4.2,0-2.8-7.1-2.4-8.5c0.6-2.2,1.8-6.3,5.3-6.3
				C81.8,35,80.2,42,79.8,43.4 M78.4,33.1c-2.1,0-4.1,0.9-5.4,2.5h-0.1l3.5-15.2h-3.9c0,0-5.4,23.4-6.9,30.3h2.2l1.8-1.9
				c1,1.7,2.9,2.7,4.9,2.5c5,0,8.3-3.5,9.6-9.5C85,37.5,83.8,33.1,78.4,33.1"/>
		</g>
		<path id="Trazado_3437" class="st1" d="M140.7,48c0-1.3,1.1-2.4,2.4-2.4c1.3,0,2.4,1.1,2.4,2.4s-1.1,2.4-2.4,2.4
			S140.7,49.3,140.7,48L140.7,48"/>
	</g>
</g>
</svg>
