<?xml version="1.0" encoding="utf-8"?>
<!-- Generator: Adobe Illustrator 23.1.0, SVG Export Plug-In . SVG Version: 6.00 Build 0)  -->
<svg version="1.1" id="Capa_1" xmlns="http://www.w3.org/2000/svg" xmlns:xlink="http://www.w3.org/1999/xlink" x="0px" y="0px"
	 viewBox="0 0 146.8 76" style="enable-background:new 0 0 146.8 76;" xml:space="preserve">
<style type="text/css">
	.st0{fill:#F7F9FB;}
	.st1{fill:#001D8A;}
	.st2{fill:#0090DF;}
</style>
<rect x="-0.2" class="st0" width="146.8" height="76"/>
<g id="logo-forus" transform="translate(698 1891)">
	<g id="Grupo_117" transform="translate(-698 -1891)">
		<path id="Trazado_154" class="st1" d="M3,16.8h23.1v6.1H9.7v6.4h14.5v6.1H9.7v11.7H3V16.8z"/>
		<path id="Trazado_155" class="st1" d="M63.4,16.8h13.8c3.9,0,6.8,1.1,8.8,3.1c1.8,1.9,2.7,4.4,2.6,6.9v0.1
			c0.2,4.2-2.5,8.1-6.5,9.4l7.4,10.8h-7.8l-6.5-9.7H70v9.7h-6.7L63.4,16.8L63.4,16.8z M76.9,31.5c3.2,0,5.1-1.7,5.1-4.3v-0.1
			c0-2.9-2-4.3-5.2-4.3h-6.6v8.7H76.9z"/>
		<path id="Trazado_156" class="st1" d="M92.5,34.1V16.8h6.7v17.1c0,4.9,2.5,7.5,6.5,7.5s6.5-2.5,6.5-7.3V16.8h6.7v17.1
			c0,9.2-5.1,13.7-13.3,13.7S92.5,43,92.5,34.1z"/>
		<path id="Trazado_157" class="st1" d="M121,42.7l3.9-4.7c2.7,2.2,5.6,3.7,9,3.7c2.7,0,4.4-1.1,4.4-2.9v-0.1c0-1.7-1-2.6-6.1-3.9
			c-6.1-1.6-10-3.2-10-9.3v-0.1c0-5.5,4.4-9.1,10.6-9.1c4.1-0.1,8.1,1.3,11.3,3.9l-3.5,5c-2.7-1.9-5.3-3-7.9-3s-3.9,1.2-3.9,2.6V25
			c0,2,1.3,2.6,6.5,4c6.1,1.6,9.6,3.8,9.6,9.1v0.1c0,6-4.6,9.4-11.1,9.4C129.2,47.5,124.6,45.8,121,42.7z"/>
		<g id="Grupo_112" transform="translate(0 41.362)">
			<path id="Trazado_158" class="st1" d="M1.4,18.4L1.4,18.4c0-1.9,1.4-3.4,3.3-3.4h0.1c1,0,1.9,0.3,2.6,1l-0.7,0.9
				c-0.5-0.5-1.2-0.8-1.9-0.8c-1.2,0-2.2,1-2.2,2.3v0.1l0,0c-0.1,1.2,0.9,2.3,2.1,2.3c0,0,0,0,0.1,0c0.7,0,1.4-0.3,1.9-0.9l0.7,0.8
				c-0.7,0.8-1.7,1.2-2.7,1.2c-1.8,0-3.3-1.5-3.4-3.3C1.4,18.5,1.4,18.5,1.4,18.4z"/>
			<path id="Trazado_159" class="st1" d="M10.8,18.4L10.8,18.4c0-1.9,1.6-3.5,3.5-3.4c1.9,0,3.4,1.5,3.4,3.4l0,0
				c0,1.9-1.6,3.4-3.5,3.4C12.4,21.8,10.9,20.3,10.8,18.4z M16.5,18.4L16.5,18.4c0-1.3-0.9-2.3-2.2-2.4c0,0,0,0-0.1,0
				C13,16,12,17,12,18.2v0.1l0,0c0,1.3,0.9,2.3,2.2,2.4c0,0,0,0,0.1,0C15.5,20.8,16.5,19.8,16.5,18.4C16.5,18.5,16.5,18.5,16.5,18.4
				z"/>
			<path id="Trazado_160" class="st1" d="M21.8,15.1h1.1l3.5,4.6v-4.6h1.1v6.6h-1L22.9,17v4.7h-1.1V15.1z"/>
			<path id="Trazado_161" class="st1" d="M31.5,20.8l0.7-0.8c0.6,0.5,1.3,0.9,2.1,0.9c0.7,0,1.2-0.3,1.2-0.8l0,0
				c0-0.5-0.3-0.7-1.5-1c-1.4-0.3-2.2-0.8-2.2-2l0,0c0.1-1.1,1-2,2.1-1.9H34c0.9,0,1.7,0.3,2.4,0.8l-0.6,0.9
				c-0.5-0.4-1.1-0.7-1.8-0.7s-1.1,0.3-1.1,0.8l0,0c0,0.5,0.3,0.7,1.6,1c1.4,0.3,2.1,0.8,2.1,1.9l0,0c0,1.2-1,2-2.4,2
				C33.2,21.8,32.2,21.4,31.5,20.8z"/>
			<path id="Trazado_162" class="st1" d="M40.5,18.9v-3.8h1.2v3.8c0,1.2,0.6,1.9,1.7,1.9c1,0,1.7-0.6,1.7-1.8v-3.8h1.2V19
				c0.2,1.4-0.8,2.8-2.3,3c-0.2,0-0.4,0-0.6,0c-1.4,0.1-2.7-0.9-2.8-2.4C40.5,19.3,40.5,19.1,40.5,18.9z"/>
			<path id="Trazado_163" class="st1" d="M50.4,15.1h1.2l2,3.1l2-3.1h1.2v6.6h-1.2V17l-2.1,3.1l0,0L51.6,17v4.7h-1.1L50.4,15.1
				L50.4,15.1z"/>
			<path id="Trazado_164" class="st1" d="M61.3,15.1h4.9v1h-3.7v1.7h3.3v1h-3.3v1.8h3.8v1h-5C61.3,21.6,61.3,15.1,61.3,15.1z"/>
			<path id="Trazado_165" class="st1" d="M70.2,15.1h2.9c0.7,0,1.4,0.2,1.9,0.7c0.4,0.4,0.6,0.9,0.5,1.4l0,0c0,1-0.6,1.8-1.6,2
				l1.8,2.5h-1.4l-1.6-2.3h-1.5v2.3H70L70.2,15.1z M73.1,18.4c0.8,0,1.4-0.4,1.4-1.1l0,0c0-0.7-0.5-1.1-1.4-1.1h-1.7v2.2H73.1z"/>
			<path id="Trazado_166" class="st1" d="M85.2,15.1h4.9v1.1h-3.8V18h3.3v1h-3.3v2.7h-1.2L85.2,15.1z"/>
			<path id="Trazado_167" class="st1" d="M95.6,15.1h1.1l2.9,6.7h-1.2l-0.7-1.6h-3.1l-0.7,1.6h-1.2L95.6,15.1z M97.3,19.1l-1.1-2.6
				L95,19.1H97.3z"/>
			<path id="Trazado_168" class="st1" d="M103.4,15.1h1.1l3.5,4.6v-4.6h1.1v6.6h-1l-3.6-4.7v4.7h-1.1V15.1z"/>
			<path id="Trazado_169" class="st1" d="M115.8,15.1h1.1l2.9,6.7h-1.2l-0.7-1.6h-3.1l-0.7,1.6h-1.2L115.8,15.1z M117.5,19.1
				l-1.1-2.6l-1.1,2.6H117.5z"/>
			<path id="Trazado_170" class="st1" d="M124.4,16.2h-2.1v-1.1h5.4v1.1h-2.1v5.5h-1.2L124.4,16.2z"/>
			<path id="Trazado_171" class="st1" d="M131.6,15.1h1.2v6.6h-1.2V15.1z"/>
			<path id="Trazado_172" class="st1" d="M136.9,18.4L136.9,18.4c0-1.9,1.4-3.4,3.3-3.4h0.1c1,0,1.9,0.3,2.6,1l-0.7,0.9
				c-0.5-0.5-1.2-0.8-1.9-0.8c-1.2,0-2.2,1-2.2,2.3v0.1l0,0c-0.1,1.2,0.9,2.3,2.1,2.3c0,0,0,0,0.1,0c0.7,0,1.4-0.3,1.9-0.9l0.7,0.8
				c-0.7,0.8-1.7,1.2-2.7,1.2c-1.8,0-3.3-1.5-3.4-3.3C136.9,18.5,136.9,18.5,136.9,18.4z"/>
		</g>
		<path id="Trazado_173" class="st1" d="M48.6,40.3c-4.6,2.5-10.4,0.8-12.9-3.8s-0.8-10.4,3.8-12.9c2.6-1.4,5.8-1.6,8.5-0.3
			c0.5,0.2,1.2,0.1,1.6-0.3l2.7-2.7c0.6-0.6,0.6-1.5,0-2c-0.1-0.1-0.2-0.2-0.3-0.2c-7.7-4.4-17.4-1.7-21.8,6s-1.7,17.4,6,21.8
			c5.3,3,11.8,2.8,16.8-0.6c0.7-0.4,0.8-1.3,0.4-2c-0.1-0.1-0.2-0.2-0.2-0.3l-2.9-2.5C49.7,40.1,49.1,40,48.6,40.3z"/>
		<path id="Trazado_174" class="st2" d="M54.3,21.6l-2.8,2.8c-0.5,0.5-0.5,1.2-0.1,1.7c2.6,3.3,2.8,7.8,0.4,11.3
			c-0.4,0.5-0.3,1.2,0.2,1.7l3,2.6c0.5,0.5,1.3,0.4,1.8-0.1c0,0,0-0.1,0.1-0.1c4.3-6,4-14.1-0.7-19.7C55.7,21.1,54.9,21,54.3,21.6
			C54.4,21.5,54.4,21.5,54.3,21.6z"/>
	</g>
</g>
</svg>
