<?xml version="1.0" encoding="utf-8"?>
<!-- Generator: Adobe Illustrator 23.1.0, SVG Export Plug-In . SVG Version: 6.00 Build 0)  -->
<svg version="1.1" id="Capa_1" xmlns="http://www.w3.org/2000/svg" xmlns:xlink="http://www.w3.org/1999/xlink" x="0px" y="0px"
	 viewBox="0 0 118 42" style="enable-background:new 0 0 118 42;" xml:space="preserve">
<style type="text/css">
	.st0{fill:#0C0C0C;}
	.st1{fill:#D43B58;}
	.st2{fill:#979797;}
	.st3{fill:#FFFFFF;}
</style>
<g>
	<g id="Grupo_1_14_" transform="translate(59.812 59.06)">
		<path id="Trazado_2_14_" class="st0" d="M-49.6-44.5c0.7-0.4,1.6-0.6,2.4-0.6c0.7,0,1.5,0.2,2.1,0.5c0.7,0.3,1.2,0.8,1.6,1.5
			l1.9-1.2c-0.5-0.9-1.3-1.7-2.3-2.2s-2.2-0.8-3.3-0.8c-1.3,0-2.6,0.3-3.7,0.9c-1.1,0.6-2,1.4-2.6,2.5c-1.2,2.2-1.2,4.9,0,7.2
			c0.6,1,1.5,1.9,2.6,2.5s2.4,0.9,3.7,0.9c1.2,0,2.3-0.2,3.3-0.8c1-0.5,1.7-1.2,2.3-2.2l-1.9-1.2c-0.4,0.6-0.9,1.1-1.6,1.5
			c-0.7,0.3-1.4,0.5-2.1,0.5c-0.8,0-1.7-0.2-2.4-0.6c-0.7-0.4-1.3-1-1.7-1.7c-0.4-0.8-0.6-1.7-0.6-2.5c0-0.9,0.2-1.7,0.6-2.5
			C-50.8-43.5-50.3-44.1-49.6-44.5z"/>
		<rect id="Rectángulo_1_14_" x="-39.2" y="-52.6" class="st0" width="2.5" height="19"/>
		<path id="Trazado_3_14_" class="st0" d="M-23.7-46.4c-1.1-0.6-2.3-0.9-3.5-0.9s-2.4,0.3-3.5,0.9c-1,0.6-1.9,1.4-2.4,2.5
			c-0.6,1.1-0.9,2.3-0.9,3.6s0.3,2.5,0.9,3.6c0.6,1.1,1.5,1.9,2.6,2.5c2.1,1.1,4.6,1.2,6.9,0.3c0.9-0.4,1.7-0.9,2.3-1.6l-1.4-1.6
			c-1,1.1-2.4,1.7-3.9,1.6c-1.2,0-2.4-0.3-3.4-1.1c-0.9-0.7-1.5-1.8-1.6-2.9h11c0-0.3,0-0.5,0-0.8c0-1.3-0.3-2.5-0.9-3.7
			C-21.8-44.9-22.6-45.8-23.7-46.4z M-31.5-41.3c0.1-1.1,0.6-2.1,1.4-2.8c1.7-1.4,4.2-1.4,5.9,0c0.8,0.7,1.3,1.7,1.4,2.8H-31.5z"/>
		<path id="Trazado_4_14_" class="st0" d="M-13-36.2l-4.7-10.9h-2.6l6,13.6h2.5l6-13.6h-2.4L-13-36.2z"/>
		<path id="Trazado_5_14_" class="st0" d="M4.5-46.4C3.4-47,2.2-47.3,1-47.3s-2.4,0.3-3.5,0.9c-1,0.6-1.9,1.4-2.4,2.5
			c-0.6,1.1-0.9,2.3-0.9,3.6s0.3,2.5,0.9,3.6s1.5,1.9,2.6,2.5c2.2,1.1,4.7,1.2,6.9,0.3c0.9-0.3,1.7-0.9,2.3-1.6l-1.4-1.6
			c-1,1.1-2.4,1.7-3.9,1.6c-1.2,0-2.4-0.3-3.3-1.1c-0.9-0.7-1.5-1.8-1.6-2.9h11c0-0.3,0.1-0.5,0.1-0.8c0-1.3-0.3-2.5-0.9-3.7
			C6.3-44.9,5.5-45.8,4.5-46.4z M-3.3-41.3c0.1-1.1,0.6-2.1,1.4-2.8c1.7-1.4,4.2-1.4,5.9,0c0.8,0.7,1.3,1.7,1.4,2.8H-3.3z"/>
		<path id="Trazado_6_14_" class="st0" d="M12.9-44.8v-2.3h-2.4v13.6H13v-6.8c-0.1-1.2,0.3-2.5,1.1-3.4c0.8-0.8,2-1.3,3.1-1.2
			c0.2,0,0.4,0,0.6,0v-2.4c-1,0-2.1,0.2-3.1,0.6C14-46.3,13.3-45.6,12.9-44.8z"/>
	</g>
	<g>
		<path class="st1" d="M105,30.5H91.2c-4.2,0-7.6-3.4-7.6-7.6V9.1c0-4.2,3.4-7.6,7.6-7.6H105c4.2,0,7.6,3.4,7.6,7.6V23
			C112.6,27.1,109.2,30.5,105,30.5z"/>
	</g>
	<g>
		<path class="st2" d="M6.3,37.3v-7.9h2.2c0.7,0,1.3,0.2,1.8,0.5s0.9,0.7,1.2,1.3c0.3,0.6,0.4,1.2,0.4,1.9v0.5
			c0,0.7-0.1,1.4-0.4,1.9c-0.3,0.6-0.7,1-1.2,1.3s-1.1,0.5-1.9,0.5H6.3z M7.4,30.3v6.2h1.1c0.8,0,1.4-0.2,1.9-0.7
			c0.4-0.5,0.7-1.2,0.7-2.1v-0.5c0-0.9-0.2-1.6-0.6-2.1c-0.4-0.5-1-0.7-1.8-0.8C8.7,30.3,7.4,30.3,7.4,30.3z"/>
		<path class="st2" d="M16.4,37.4c-0.8,0-1.4-0.3-1.9-0.8s-0.7-1.2-0.7-2.1v-0.2c0-0.6,0.1-1.1,0.3-1.6s0.5-0.8,0.9-1.1
			c0.4-0.3,0.8-0.4,1.3-0.4c0.8,0,1.3,0.3,1.8,0.8c0.4,0.5,0.6,1.2,0.6,2.1v0.4h-4c0,0.6,0.2,1,0.5,1.4s0.7,0.5,1.2,0.5
			c0.4,0,0.7-0.1,0.9-0.2c0.2-0.1,0.5-0.3,0.6-0.6l0.6,0.5C18.1,37.1,17.4,37.4,16.4,37.4z M16.3,32.2c-0.4,0-0.7,0.1-1,0.4
			c-0.3,0.3-0.4,0.7-0.5,1.2h2.9v-0.1c0-0.5-0.2-0.9-0.4-1.2C17,32.3,16.7,32.2,16.3,32.2z"/>
		<path class="st2" d="M22.2,36l1.4-4.5h1l-2.1,5.8h-0.8l-2.1-5.8h1L22.2,36z"/>
		<path class="st2" d="M32.5,33.7c0,0.8-0.1,1.4-0.4,2c-0.3,0.6-0.6,1-1.1,1.3s-1,0.5-1.7,0.5c-0.6,0-1.2-0.2-1.6-0.5
			s-0.9-0.7-1.1-1.3c-0.3-0.6-0.4-1.2-0.4-2v-0.6c0-0.8,0.1-1.4,0.4-2s0.6-1,1.1-1.3s1-0.5,1.6-0.5s1.2,0.2,1.7,0.5s0.9,0.7,1.1,1.3
			c0.3,0.6,0.4,1.2,0.4,2V33.7z M31.4,33.1c0-0.9-0.2-1.6-0.6-2.1s-0.9-0.7-1.6-0.7S28,30.5,27.7,31c-0.4,0.5-0.6,1.2-0.6,2.1v0.6
			c0,0.9,0.2,1.6,0.6,2.1s0.9,0.8,1.6,0.8s1.2-0.2,1.6-0.7s0.6-1.2,0.6-2.1v-0.7H31.4z"/>
		<path class="st2" d="M39.4,34.5c0,0.9-0.2,1.6-0.6,2.1c-0.4,0.5-1,0.8-1.7,0.8s-1.3-0.2-1.7-0.7v2.8h-1v-8.1h0.9V32
			c0.4-0.5,1-0.8,1.7-0.8s1.3,0.3,1.7,0.8C39.2,32.7,39.4,33.4,39.4,34.5L39.4,34.5z M38.4,34.4c0-0.7-0.1-1.2-0.4-1.6
			s-0.7-0.6-1.2-0.6c-0.6,0-1.1,0.3-1.4,0.8v2.8c0.3,0.5,0.8,0.8,1.4,0.8c0.5,0,0.9-0.2,1.1-0.6C38.3,35.7,38.4,35.1,38.4,34.4z"/>
		<path class="st2" d="M44.6,35.8c0-0.3-0.1-0.5-0.3-0.6s-0.6-0.3-1.1-0.4c-0.5-0.1-0.9-0.2-1.2-0.4s-0.5-0.3-0.7-0.5
			c-0.1-0.2-0.2-0.5-0.2-0.7c0-0.5,0.2-0.9,0.6-1.2c0.4-0.3,0.9-0.5,1.6-0.5c0.7,0,1.2,0.2,1.6,0.5c0.4,0.3,0.6,0.8,0.6,1.3h-1
			c0-0.3-0.1-0.5-0.3-0.7s-0.5-0.3-0.9-0.3s-0.6,0.1-0.9,0.2c-0.2,0.2-0.3,0.4-0.3,0.6c0,0.2,0.1,0.4,0.3,0.5s0.5,0.2,1,0.4
			c0.5,0.1,0.9,0.2,1.2,0.4s0.5,0.3,0.7,0.6c0.1,0.2,0.2,0.5,0.2,0.8c0,0.5-0.2,0.9-0.6,1.3c-0.4,0.3-1,0.5-1.6,0.5
			c-0.5,0-0.9-0.1-1.2-0.2c-0.4-0.2-0.6-0.4-0.8-0.7s-0.3-0.6-0.3-1h1c0,0.3,0.2,0.6,0.4,0.8s0.6,0.3,1,0.3s0.7-0.1,0.9-0.2
			C44.5,36.2,44.6,36,44.6,35.8z"/>
	</g>
</g>
<path class="st3" d="M107.2,6.7c-0.5-0.5-1.4-0.6-2.6-0.2c-0.8,0.3-1.5,0.7-2.1,1.2l0,0c0,0-1.1,1.1-2.4,2.4
	c-1.4,1.1-3.6,1.2-5.4,1.2c-0.6,0-1.3,0-1.8,0.1c-1.1,0.1-2.2,0.6-3,1.4l-0.4,0.4l2.8,4.9L91.2,19l3.7,3.7l0.9-0.9l4.9,2.8l0.5-0.5
	c0.8-0.8,1.3-1.9,1.4-3.1c0-0.5,0-1,0.1-1.6c0.1-2.1,0.1-4.6,1.4-5.9l2.1-2.1c0.6-0.6,1-1.3,1.2-2.1C107.8,8.1,107.8,7.2,107.2,6.7z
	 M105,7.9c0.7-0.3,1.1-0.2,1.1-0.1c0,0,0.1,0.4-0.1,1.1c-0.1,0.3-0.2,0.6-0.4,0.9l-1.4-1.4C104.4,8.1,104.7,8,105,7.9z M93.4,19
	l1.1-1.1l0,0c0.5-0.4,1.2-0.4,1.6,0c0.4,0.4,0.4,1.1,0,1.5L95,20.6L93.4,19z M101.2,19.4c0,0.5,0,1-0.1,1.5c0,0.6-0.3,1.3-0.7,1.8
	l-3.5-2l0.1-0.1l0,0c1-1.1,0.9-2.7-0.2-3.7c-1-0.9-2.5-0.9-3.5,0L93.3,17l-2-3.5c0.5-0.4,1.1-0.6,1.7-0.6c0.5,0,1.1-0.1,1.7-0.1
	c1,0,2,0,2.9-0.2L96.2,14l1.1,1.1c0.8-0.8,5.4-5.4,5.7-5.8l1.6,1.6c-0.4,0.4-4.8,4.8-5.7,5.7l1.1,1l1.5-1.5
	C101.3,17.3,101.3,18.3,101.2,19.4L101.2,19.4z M92.6,22.4l-3,3l-1.1-1.1l3-3L92.6,22.4z M93.4,23.3l1.1,1.1l-1.1,1.1l-1.1-1.1
	L93.4,23.3z M90.7,20.6l-1.1,1.1l-1.1-1.1l1.1-1.1L90.7,20.6z"/>
</svg>
