<?xml version="1.0" encoding="utf-8"?>
<!-- Generator: Adobe Illustrator 19.0.0, SVG Export Plug-In . SVG Version: 6.00 Build 0)  -->
<svg version="1.1" id="Capa_1" xmlns="http://www.w3.org/2000/svg" xmlns:xlink="http://www.w3.org/1999/xlink" x="0px" y="0px"
	 viewBox="-140 163 118 42" style="enable-background:new -140 163 118 42;" xml:space="preserve">
<style type="text/css">
	.st0{fill:#0C0C0C;}
	.st1{fill:#F0C74B;}
	.st2{fill:#979797;}
	.st3{fill:#FFFFFF;}
</style>
<g id="Grupo_1_14_" transform="translate(59.812 59.06)">
	<path id="Trazado_2_14_" class="st0" d="M-189.6,118.5c0.7-0.4,1.6-0.6,2.4-0.6c0.7,0,1.4,0.2,2.1,0.5c0.7,0.3,1.2,0.8,1.6,1.5
		l1.9-1.2c-0.5-0.9-1.3-1.7-2.3-2.2c-1-0.5-2.2-0.8-3.3-0.8c-1.3,0-2.6,0.3-3.7,0.9c-1.1,0.6-1.9,1.4-2.6,2.5
		c-1.2,2.2-1.2,4.9,0,7.2c0.6,1,1.5,1.9,2.6,2.5c1.1,0.6,2.4,0.9,3.7,0.9c1.1,0,2.3-0.2,3.3-0.8c0.9-0.5,1.7-1.2,2.3-2.2l-1.9-1.2
		c-0.4,0.6-0.9,1.1-1.6,1.5c-0.6,0.3-1.4,0.5-2.1,0.5c-0.8,0-1.7-0.2-2.4-0.6c-0.7-0.4-1.3-1-1.7-1.7c-0.4-0.8-0.6-1.7-0.6-2.5
		c0-0.9,0.2-1.7,0.6-2.5C-190.8,119.5-190.3,118.9-189.6,118.5z"/>
	<rect id="Rectángulo_1_14_" x="-179.2" y="110.4" class="st0" width="2.5" height="19"/>
	<path id="Trazado_3_14_" class="st0" d="M-163.7,116.6c-1.1-0.6-2.3-0.9-3.5-0.9c-1.2,0-2.4,0.3-3.5,0.9c-1,0.6-1.9,1.4-2.4,2.5
		c-0.6,1.1-0.9,2.3-0.9,3.6c0,1.3,0.3,2.5,0.9,3.6c0.6,1.1,1.5,1.9,2.6,2.5c2.2,1.1,4.7,1.2,6.9,0.3c0.9-0.4,1.7-0.9,2.3-1.6
		l-1.4-1.6c-1,1.1-2.4,1.7-3.9,1.6c-1.2,0-2.4-0.3-3.4-1.1c-0.9-0.7-1.5-1.8-1.6-2.9h11c0-0.3,0.1-0.5,0.1-0.8
		c0-1.3-0.3-2.5-0.9-3.7C-161.8,118.1-162.6,117.2-163.7,116.6z M-171.5,121.7c0.1-1.1,0.6-2.1,1.4-2.8c1.7-1.4,4.2-1.4,5.9,0
		c0.8,0.7,1.3,1.7,1.4,2.8H-171.5z"/>
	<path id="Trazado_4_14_" class="st0" d="M-153,126.8l-4.7-10.9h-2.6l6,13.6h2.5l6-13.6h-2.4L-153,126.8z"/>
	<path id="Trazado_5_14_" class="st0" d="M-135.5,116.6c-1.1-0.6-2.3-0.9-3.5-0.9c-1.2,0-2.4,0.3-3.5,0.9c-1,0.6-1.9,1.4-2.4,2.5
		c-0.6,1.1-0.9,2.3-0.9,3.6c0,1.3,0.3,2.5,0.9,3.6c0.6,1.1,1.5,1.9,2.6,2.5c2.2,1.1,4.6,1.2,6.9,0.3c0.9-0.4,1.7-0.9,2.3-1.6
		l-1.4-1.6c-1,1.1-2.4,1.7-3.9,1.6c-1.2,0-2.4-0.3-3.4-1.1c-0.9-0.7-1.5-1.8-1.6-2.9h11.1c0-0.3,0.1-0.5,0.1-0.8
		c0-1.3-0.3-2.5-0.9-3.7C-133.7,118.1-134.5,117.2-135.5,116.6z M-143.4,121.7c0.1-1.1,0.6-2.1,1.4-2.8c1.7-1.4,4.2-1.4,5.9,0
		c0.8,0.7,1.3,1.7,1.4,2.8H-143.4z"/>
	<path id="Trazado_6_14_" class="st0" d="M-127.1,118.2v-2.3h-2.4v13.6h2.5v-6.8c-0.1-1.2,0.3-2.5,1.1-3.4c0.8-0.8,2-1.3,3.1-1.2
		c0.2,0,0.4,0,0.6,0v-2.4c-1,0-2.1,0.2-3.1,0.6C-126,116.7-126.7,117.4-127.1,118.2z"/>
</g>
<g>
	<path class="st1" d="M-35,193.5h-13.8c-4.2,0-7.6-3.4-7.6-7.6v-13.8c0-4.2,3.4-7.6,7.6-7.6H-35c4.2,0,7.6,3.4,7.6,7.6v13.8
		C-27.4,190.1-30.8,193.5-35,193.5z"/>
</g>
<g>
	<path class="st2" d="M-131.3,196.5l-0.8,2.3h-1l2.5-7.3h1.1l2.5,7.3h-1l-0.8-2.3H-131.3z M-128.9,195.7l-0.7-2.1
		c-0.2-0.5-0.3-0.9-0.4-1.3h0c-0.1,0.4-0.2,0.9-0.4,1.3l-0.7,2.1H-128.9z"/>
	<path class="st2" d="M-121,193.5c0,0.4,0,0.8,0,1.4v3c0,1.2-0.2,1.9-0.7,2.4c-0.5,0.5-1.2,0.6-1.9,0.6c-0.6,0-1.3-0.2-1.7-0.4
		l0.2-0.7c0.3,0.2,0.9,0.4,1.5,0.4c1,0,1.7-0.5,1.7-1.8v-0.6h0c-0.3,0.5-0.9,0.9-1.7,0.9c-1.3,0-2.2-1.1-2.2-2.5
		c0-1.8,1.2-2.8,2.3-2.8c0.9,0,1.4,0.5,1.6,0.9h0l0-0.8H-121z M-122,195.6c0-0.2,0-0.3-0.1-0.4c-0.2-0.5-0.6-1-1.3-1
		c-0.9,0-1.5,0.8-1.5,2c0,1,0.5,1.9,1.5,1.9c0.6,0,1.1-0.4,1.3-1c0.1-0.2,0.1-0.3,0.1-0.5V195.6z"/>
	<path class="st2" d="M-118,192.1c0,0.3-0.2,0.6-0.6,0.6c-0.3,0-0.6-0.3-0.6-0.6c0-0.3,0.2-0.6,0.6-0.6
		C-118.2,191.5-118,191.7-118,192.1z M-119,198.8v-5.2h0.9v5.2H-119z"/>
	<path class="st2" d="M-116.1,191.1h0.9v7.6h-0.9V191.1z"/>
	<path class="st2" d="M-112.5,196.3c0,1.3,0.8,1.8,1.8,1.8c0.7,0,1.1-0.1,1.4-0.3l0.2,0.7c-0.3,0.2-0.9,0.3-1.7,0.3
		c-1.6,0-2.6-1.1-2.6-2.6c0-1.6,0.9-2.8,2.4-2.8c1.7,0,2.2,1.5,2.2,2.5c0,0.2,0,0.3,0,0.4H-112.5z M-109.7,195.6
		c0-0.6-0.2-1.5-1.3-1.5c-1,0-1.4,0.9-1.5,1.5H-109.7z"/>
</g>
<g>
	<path class="st3" d="M-44.6,179.1c0,1.5,1.2,2.7,2.7,2.7s2.7-1.2,2.7-2.7c0-1.5-1.2-2.7-2.7-2.7S-44.6,177.6-44.6,179.1z
		 M-40.5,179.1c0,0.7-0.6,1.4-1.4,1.4s-1.4-0.6-1.4-1.4s0.6-1.4,1.4-1.4S-40.5,178.3-40.5,179.1z M-35.2,177c-1.1,0-2,0.9-2,2
		s0.9,2,2,2c1.1,0,2-0.9,2-2S-34.1,177-35.2,177z M-35.2,179.7c-0.4,0-0.7-0.3-0.7-0.7c0-0.4,0.3-0.7,0.7-0.7c0.4,0,0.7,0.3,0.7,0.7
		C-34.6,179.4-34.9,179.7-35.2,179.7z M-48.5,177c-1.1,0-2,0.9-2,2s0.9,2,2,2c1.1,0,2-0.9,2-2S-47.4,177-48.5,177z M-48.5,179.7
		c-0.4,0-0.7-0.3-0.7-0.7c0-0.4,0.3-0.7,0.7-0.7c0.4,0,0.7,0.3,0.7,0.7C-47.9,179.4-48.2,179.7-48.5,179.7z M-50.3,176.2
		c-0.5-2-0.2-3.7,0.9-4.7c1.2-1.2,3.1-1.4,5.4-0.7c0.7,0.2,1.5,0.6,2.2,1c0.7-0.4,1.5-0.7,2.2-1c2.3-0.7,4.2-0.5,5.4,0.7
		c1.1,1.1,1.4,2.7,0.9,4.7c-0.4-0.2-0.8-0.4-1.3-0.5c0.1-0.6,0.2-1.2,0.1-1.7c-0.1-0.7-0.3-1.2-0.7-1.6c-0.4-0.4-0.9-0.6-1.6-0.7
		c-0.1,0-0.3,0-0.4,0c-0.6,0-1.3,0.1-2,0.3c-0.4,0.1-0.8,0.3-1.3,0.5c1,0.7,1.9,1.4,2.8,2.3c0.4,0.4,0.7,0.7,1,1.1
		c-0.4,0.2-0.8,0.5-1.1,0.8c-0.3-0.3-0.6-0.7-0.9-1c-1-1-2.1-1.9-3.2-2.5c-1.1,0.7-2.2,1.5-3.2,2.5c-0.3,0.3-0.6,0.6-0.9,1
		c-0.3-0.3-0.7-0.6-1.1-0.8c0.3-0.4,0.7-0.7,1-1.1c0.9-0.9,1.8-1.7,2.8-2.3c-0.4-0.2-0.9-0.4-1.3-0.5c-0.9-0.3-1.7-0.4-2.4-0.3
		c-0.7,0.1-1.2,0.3-1.6,0.7c-0.4,0.4-0.6,0.9-0.7,1.6c-0.1,0.5,0,1.1,0.1,1.7C-49.5,175.8-50,175.9-50.3,176.2z M-33.4,181.9
		c0.5,2,0.2,3.7-0.9,4.7c-0.7,0.7-1.7,1.1-3,1.1c-0.7,0-1.6-0.1-2.4-0.4c-0.7-0.2-1.5-0.6-2.2-1c-0.7,0.4-1.5,0.7-2.2,1
		c-0.9,0.3-1.7,0.4-2.4,0.4c-1.2,0-2.2-0.4-3-1.1c-1.1-1.1-1.4-2.7-0.9-4.7c0.4,0.2,0.8,0.4,1.3,0.5c-0.1,0.6-0.2,1.2-0.1,1.7
		c0.1,0.7,0.3,1.2,0.7,1.6c0.4,0.4,0.9,0.6,1.6,0.7c0.7,0.1,1.5,0,2.4-0.3c0.4-0.1,0.8-0.3,1.3-0.5c-1-0.7-1.9-1.4-2.8-2.3
		c-0.4-0.4-0.7-0.7-1-1.1c0.4-0.2,0.8-0.5,1.1-0.8c0.3,0.3,0.6,0.7,0.9,1c1,1,2.1,1.9,3.2,2.5c1.1-0.7,2.2-1.5,3.2-2.5
		c0.3-0.3,0.6-0.6,0.9-1c0.3,0.3,0.7,0.6,1.1,0.8c-0.3,0.4-0.7,0.7-1,1.1c-0.9,0.9-1.8,1.7-2.8,2.3c0.4,0.2,0.9,0.4,1.3,0.5
		c0.9,0.3,1.7,0.4,2.4,0.3c0.7-0.1,1.2-0.3,1.6-0.7c0.4-0.4,0.6-0.9,0.7-1.6c0.1-0.5,0-1.1-0.1-1.7
		C-34.2,182.3-33.8,182.2-33.4,181.9z"/>
</g>
</svg>
