<?xml version="1.0" encoding="utf-8"?>
<!-- Generator: Adobe Illustrator 23.1.0, SVG Export Plug-In . SVG Version: 6.00 Build 0)  -->
<svg version="1.1" id="Capa_1" xmlns="http://www.w3.org/2000/svg" xmlns:xlink="http://www.w3.org/1999/xlink" x="0px" y="0px"
	 viewBox="0 0 118 42" style="enable-background:new 0 0 118 42;" xml:space="preserve">
<style type="text/css">
	.st0{fill:#0C0C0C;}
	.st1{fill:#7DDBC1;}
	.st2{fill:#979797;}
	.st3{fill:#FFFFFF;}
</style>
<g id="Grupo_1_14_" transform="translate(59.812 59.06)">
	<path id="Trazado_2_14_" class="st0" d="M-49.6-44.5c0.7-0.4,1.6-0.6,2.4-0.6c0.7,0,1.4,0.2,2.1,0.5c0.7,0.3,1.2,0.8,1.6,1.5
		l1.9-1.2c-0.5-0.9-1.3-1.7-2.3-2.2s-2.2-0.8-3.3-0.8c-1.3,0-2.6,0.3-3.7,0.9c-1.1,0.6-1.9,1.4-2.6,2.5c-1.2,2.2-1.2,4.9,0,7.2
		c0.6,1,1.5,1.9,2.6,2.5s2.4,0.9,3.7,0.9c1.1,0,2.3-0.2,3.3-0.8c0.9-0.5,1.7-1.2,2.3-2.2l-1.9-1.2c-0.4,0.6-0.9,1.1-1.6,1.5
		c-0.6,0.3-1.4,0.5-2.1,0.5c-0.8,0-1.7-0.2-2.4-0.6s-1.3-1-1.7-1.7c-0.4-0.8-0.6-1.7-0.6-2.5c0-0.9,0.2-1.7,0.6-2.5
		C-50.8-43.5-50.3-44.1-49.6-44.5z"/>
	<rect id="Rectángulo_1_14_" x="-39.2" y="-52.6" class="st0" width="2.5" height="19"/>
	<path id="Trazado_3_14_" class="st0" d="M-23.7-46.4c-1.1-0.6-2.3-0.9-3.5-0.9s-2.4,0.3-3.5,0.9c-1,0.6-1.9,1.4-2.4,2.5
		c-0.6,1.1-0.9,2.3-0.9,3.6c0,1.3,0.3,2.5,0.9,3.6c0.6,1.1,1.5,1.9,2.6,2.5c2.2,1.1,4.7,1.2,6.9,0.3c0.9-0.4,1.7-0.9,2.3-1.6
		l-1.4-1.6c-1,1.1-2.4,1.7-3.9,1.6c-1.2,0-2.4-0.3-3.4-1.1c-0.9-0.7-1.5-1.8-1.6-2.9h11c0-0.3,0.1-0.5,0.1-0.8
		c0-1.3-0.3-2.5-0.9-3.7C-21.8-44.9-22.6-45.8-23.7-46.4z M-31.5-41.3c0.1-1.1,0.6-2.1,1.4-2.8c1.7-1.4,4.2-1.4,5.9,0
		c0.8,0.7,1.3,1.7,1.4,2.8H-31.5z"/>
	<path id="Trazado_4_14_" class="st0" d="M-13-36.2l-4.7-10.9h-2.6l6,13.6h2.5l6-13.6h-2.4L-13-36.2z"/>
	<path id="Trazado_5_14_" class="st0" d="M4.5-46.4C3.4-47,2.2-47.3,1-47.3s-2.4,0.3-3.5,0.9c-1,0.6-1.9,1.4-2.4,2.5
		c-0.6,1.1-0.9,2.3-0.9,3.6c0,1.3,0.3,2.5,0.9,3.6c0.6,1.1,1.5,1.9,2.6,2.5c2.2,1.1,4.6,1.2,6.9,0.3c0.9-0.4,1.7-0.9,2.3-1.6
		l-1.4-1.6c-1,1.1-2.4,1.7-3.9,1.6c-1.2,0-2.4-0.3-3.4-1.1c-0.9-0.7-1.5-1.8-1.6-2.9H7.7c0-0.3,0.1-0.5,0.1-0.8
		c0-1.3-0.3-2.5-0.9-3.7C6.3-44.9,5.5-45.8,4.5-46.4z M-3.4-41.3c0.1-1.1,0.6-2.1,1.4-2.8c1.7-1.4,4.2-1.4,5.9,0
		c0.8,0.7,1.3,1.7,1.4,2.8H-3.4z"/>
	<path id="Trazado_6_14_" class="st0" d="M12.9-44.8v-2.3h-2.4v13.6H13v-6.8c-0.1-1.2,0.3-2.5,1.1-3.4c0.8-0.8,2-1.3,3.1-1.2
		c0.2,0,0.4,0,0.6,0v-2.4c-1,0-2.1,0.2-3.1,0.6C14-46.3,13.3-45.6,12.9-44.8z"/>
</g>
<g>
	<path class="st1" d="M105,30.5H91.2c-4.2,0-7.6-3.4-7.6-7.6V9.1c0-4.2,3.4-7.6,7.6-7.6H105c4.2,0,7.6,3.4,7.6,7.6v13.8
		C112.6,27.1,109.2,30.5,105,30.5z"/>
</g>
<g>
	<path class="st2" d="M7.2,28.7c0.5-0.1,1.1-0.1,1.7-0.1c1.2,0,2,0.3,2.5,0.8c0.6,0.5,0.9,1.2,0.9,2.2S12,33.5,11.4,34
		c-0.6,0.6-1.6,0.9-2.8,0.9c-0.6,0-1.1,0-1.5-0.1v-6.1H7.2z M8,34.2c0.2,0,0.5,0,0.8,0c1.7,0,2.7-1,2.7-2.7c0-1.5-0.8-2.4-2.5-2.4
		c-0.4,0-0.7,0-0.9,0.1v5H8z"/>
	<path class="st2" d="M14.3,32.8c0,1.1,0.7,1.6,1.5,1.6c0.6,0,0.9-0.1,1.2-0.2l0.1,0.6c-0.3,0.1-0.8,0.3-1.5,0.3
		c-1.4,0-2.2-0.9-2.2-2.3c0-1.4,0.8-2.4,2.1-2.4c1.5,0,1.9,1.3,1.9,2.1c0,0.2,0,0.3,0,0.4h-3.1V32.8z M16.7,32.2
		c0-0.5-0.2-1.3-1.1-1.3c-0.8,0-1.2,0.8-1.3,1.3H16.7z"/>
	<path class="st2" d="M19.2,30.4l0.9,2.5c0.1,0.4,0.3,0.8,0.4,1.2l0,0c0.1-0.4,0.2-0.7,0.4-1.2l0.9-2.5h0.9l-1.8,4.5h-0.8l-1.7-4.5
		H19.2z"/>
	<path class="st2" d="M24.1,32.8c0,1.1,0.7,1.6,1.5,1.6c0.6,0,0.9-0.1,1.2-0.2l0.1,0.6c-0.3,0.1-0.8,0.3-1.5,0.3
		c-1.4,0-2.2-0.9-2.2-2.3c0-1.4,0.8-2.4,2.1-2.4c1.5,0,1.9,1.3,1.9,2.1c0,0.2,0,0.3,0,0.4h-3.1V32.8z M26.5,32.2
		c0-0.5-0.2-1.3-1.1-1.3c-0.8,0-1.2,0.8-1.3,1.3H26.5z"/>
	<path class="st2" d="M28.8,28.3h0.8v6.6h-0.8V28.3z"/>
	<path class="st2" d="M35.5,32.6c0,1.7-1.2,2.4-2.2,2.4c-1.2,0-2.2-0.9-2.2-2.3c0-1.5,1-2.4,2.2-2.4C34.6,30.3,35.5,31.2,35.5,32.6z
		 M31.9,32.6c0,1,0.6,1.7,1.4,1.7s1.4-0.7,1.4-1.7c0-0.8-0.4-1.7-1.3-1.7C32.3,30.9,31.9,31.8,31.9,32.6z"/>
	<path class="st2" d="M37,31.9c0-0.6,0-1,0-1.5h0.7v0.8l0,0c0.3-0.5,0.9-0.9,1.6-0.9c1.1,0,1.9,0.9,1.9,2.3c0,1.6-1,2.4-2,2.4
		c-0.6,0-1.1-0.3-1.4-0.7l0,0v2.4H37C37,36.7,37,31.9,37,31.9z M37.8,33.1c0,0.1,0,0.2,0,0.3c0.1,0.6,0.6,1,1.2,1
		c0.9,0,1.4-0.7,1.4-1.7c0-0.9-0.5-1.7-1.3-1.7c-0.6,0-1.1,0.4-1.2,1c0,0.1-0.1,0.2-0.1,0.3V33.1z"/>
	<path class="st2" d="M42.7,31.6c0-0.5,0-0.8,0-1.2h0.7v0.7l0,0c0.3-0.4,0.7-0.8,1.4-0.8c0.6,0,1.1,0.4,1.3,0.9l0,0
		c0.1-0.3,0.3-0.4,0.5-0.6c0.3-0.2,0.6-0.3,1-0.3c0.6,0,1.5,0.4,1.5,2v2.6h-0.8v-2.5c0-0.9-0.3-1.4-1-1.4c-0.5,0-0.8,0.3-1,0.7
		c0,0.1-0.1,0.3-0.1,0.4v2.8h-0.8v-2.7c0-0.7-0.3-1.2-0.9-1.2c-0.5,0-0.9,0.4-1,0.8c0,0.1-0.1,0.3-0.1,0.4v2.7h-0.8v-3.3H42.7z"/>
	<path class="st2" d="M51.4,32.8c0,1.1,0.7,1.6,1.5,1.6c0.6,0,0.9-0.1,1.2-0.2l0.1,0.6c-0.3,0.1-0.8,0.3-1.5,0.3
		c-1.4,0-2.2-0.9-2.2-2.3c0-1.4,0.8-2.4,2.1-2.4c1.5,0,1.9,1.3,1.9,2.1c0,0.2,0,0.3,0,0.4h-3.1V32.8z M53.8,32.2
		c0-0.5-0.2-1.3-1.1-1.3c-0.8,0-1.2,0.8-1.3,1.3H53.8z"/>
	<path class="st2" d="M56,31.6c0-0.5,0-0.8,0-1.2h0.7v0.7l0,0c0.2-0.4,0.7-0.8,1.5-0.8c0.6,0,1.6,0.4,1.6,1.9v2.7H59v-2.6
		c0-0.7-0.3-1.3-1-1.3c-0.5,0-1,0.4-1.1,0.8c0,0.1-0.1,0.2-0.1,0.4v2.7H56V31.6z"/>
	<path class="st2" d="M62.5,29.1v1.3h1.2V31h-1.2v2.4c0,0.6,0.2,0.9,0.6,0.9c0.2,0,0.4,0,0.5-0.1v0.6c-0.2,0.1-0.4,0.1-0.7,0.1
		c-0.4,0-0.7-0.1-0.9-0.3c-0.2-0.2-0.3-0.6-0.3-1.2V31H61v-0.6h0.7v-1.1L62.5,29.1z"/>
</g>
<path class="st3" d="M90.6,22.7c-0.8,0-1.4-0.6-1.4-1.4c0-0.4,0.1-0.7,0.4-1l4.7-4.7l-4.7-4.7c-0.5-0.6-0.5-1.5,0.1-2
	c0.5-0.5,1.4-0.5,1.9,0l5.7,5.7c0.6,0.6,0.6,1.5,0,2l-5.7,5.7C91.3,22.6,90.9,22.7,90.6,22.7z M108.5,21.3c0-0.8-0.6-1.4-1.4-1.4
	c0,0,0,0,0,0h-8.3c-0.8,0-1.4,0.6-1.4,1.4c0,0.8,0.6,1.4,1.4,1.4h8.3C107.8,22.7,108.5,22.1,108.5,21.3
	C108.5,21.3,108.5,21.3,108.5,21.3z"/>
</svg>
