<?xml version="1.0" encoding="utf-8"?>
<!-- Generator: Adobe Illustrator 23.1.0, SVG Export Plug-In . SVG Version: 6.00 Build 0)  -->
<svg version="1.1" id="Capa_1" xmlns="http://www.w3.org/2000/svg" xmlns:xlink="http://www.w3.org/1999/xlink" x="0px" y="0px"
	 viewBox="0 0 173 61" style="enable-background:new 0 0 173 61;" xml:space="preserve">
<style type="text/css">
	.st0{fill:#FFFFFF;}
</style>
<g id="Grupo_14677" transform="translate(5250.289 -384.567)">
	<g id="Grupo_1" transform="translate(-5250.289 392.477)">
		<g id="Trazado_2" transform="translate(0 8.586)">
			<path id="Trazado_3566" class="st0" d="M7.7,4.4c1.2-0.6,2.5-1,3.9-1c1.2,0,2.3,0.3,3.4,0.8c1,0.5,1.9,1.4,2.6,2.4l3-2
				c-0.8-1.5-2.1-2.7-3.6-3.5C15.3,0.4,13.5,0,11.6,0c-2.1,0-4.2,0.5-6,1.4c-1.7,0.9-3.1,2.3-4.1,4c-2,3.6-2,8,0,11.6
				c1,1.7,2.4,3.1,4.1,4c1.8,1,3.9,1.5,6,1.5c1.9,0,3.7-0.4,5.3-1.2c1.5-0.8,2.8-2,3.6-3.5l-3-1.9c-0.6,1-1.5,1.8-2.6,2.4
				c-1.1,0.5-2.2,0.8-3.4,0.8c-1.4,0-2.7-0.3-3.9-1c-1.1-0.6-2.1-1.6-2.7-2.7c-0.7-1.3-1-2.7-1-4.1c0-1.4,0.3-2.8,1-4
				C5.6,6,6.6,5.1,7.7,4.4z"/>
		</g>
		<g id="Rectángulo_1" transform="translate(24.396)">
			<rect id="Rectángulo_3490" x="0" y="0" class="st0" width="4" height="30.8"/>
		</g>
		<g id="Trazado_3" transform="translate(32.898 8.586)">
			<path id="Trazado_3567" class="st0" d="M16.7,1.4C14.9,0.5,13,0,11,0c-2,0-3.9,0.5-5.7,1.4c-1.7,0.9-3,2.3-3.9,4
				C0.5,7.2,0,9.2,0,11.2c0,2,0.5,4,1.5,5.8c1,1.7,2.4,3.1,4.2,4c3.5,1.7,7.5,1.9,11.1,0.5c1.4-0.6,2.7-1.5,3.7-2.7l-2.2-2.6
				c-1.6,1.8-3.9,2.8-6.3,2.7c-2,0.1-3.9-0.6-5.4-1.8C5.1,16,4.2,14.4,4,12.5h17.8c0-0.4,0.1-0.8,0.1-1.2c0-2-0.4-4.1-1.4-5.9
				C19.6,3.8,18.3,2.4,16.7,1.4z M4,9.7c0.2-1.8,1-3.4,2.3-4.6c2.8-2.3,6.8-2.3,9.6,0c1.3,1.2,2.1,2.8,2.3,4.5L4,9.7z"/>
		</g>
		<g id="Trazado_4" transform="translate(55.016 8.796)">
			<path id="Trazado_3568" class="st0" d="M11.7,17.6L4.1,0H0l9.6,22h4.1l9.6-22h-3.9L11.7,17.6z"/>
		</g>
		<g id="Trazado_5" transform="translate(78.37 8.586)">
			<path id="Trazado_3569" class="st0" d="M16.7,1.4C14.9,0.5,13,0,11,0c-2,0-3.9,0.5-5.7,1.4c-1.7,0.9-3,2.3-3.9,4
				C0.5,7.2,0,9.2,0,11.2c0,2,0.5,4,1.5,5.8c1,1.7,2.4,3.1,4.2,4c3.5,1.7,7.5,1.9,11.1,0.5c1.4-0.6,2.7-1.5,3.7-2.6l-2.2-2.6
				c-1.6,1.8-3.9,2.8-6.3,2.7c-2,0.1-3.9-0.6-5.4-1.8C5.1,16,4.2,14.4,4,12.5h17.8c0-0.4,0.1-0.8,0.1-1.2c0-2-0.4-4.1-1.4-5.9
				C19.6,3.8,18.3,2.4,16.7,1.4z M4,9.7c0.2-1.8,1-3.4,2.3-4.6c2.8-2.3,6.8-2.3,9.6,0c1.3,1.2,2.1,2.8,2.3,4.5L4,9.7z"/>
		</g>
		<g id="Trazado_6" transform="translate(104.758 8.584)">
			<path id="Trazado_3570" class="st0" d="M3.8,3.9V0.2H0v22h4v-11c-0.1-2,0.5-4,1.8-5.5c1.3-1.3,3.2-2,5.1-1.9c0.3,0,0.6,0,0.9,0V0
				c-1.7,0-3.4,0.3-4.9,1C5.6,1.6,4.5,2.6,3.8,3.9z"/>
		</g>
	</g>
	<g id="Grupo_14670" transform="translate(-5250.078 429.744)">
		<path id="Trazado_3571" class="st0" d="M7.6,9.3H2.7l-1.1,3.1H0L4.5,0.6h1.4l4.5,11.7H8.7L7.6,9.3z M3.2,8.1h4l-2-5.5L3.2,8.1z"/>
		<path id="Trazado_3572" class="st0" d="M12,8c-0.1-1.2,0.3-2.3,0.9-3.2c0.6-0.8,1.5-1.2,2.5-1.2c1,0,1.9,0.4,2.5,1.1l0.1-1h1.4
			v8.5c0.1,1-0.3,2-1,2.7c-0.7,0.7-1.7,1-2.7,1c-0.6,0-1.3-0.1-1.8-0.4c-0.6-0.2-1-0.6-1.4-1.1l0.8-0.9c0.5,0.7,1.4,1.2,2.3,1.2
			c0.6,0,1.2-0.2,1.7-0.6c0.4-0.5,0.6-1.1,0.6-1.7v-0.8c-0.6,0.7-1.5,1.1-2.4,1c-1,0-1.9-0.4-2.5-1.2C12.3,10.3,11.9,9.2,12,8z
			 M13.5,8.1c0,0.8,0.2,1.6,0.6,2.3c0.4,0.6,1,0.9,1.7,0.8c0.9,0,1.7-0.5,2.1-1.3V6c-0.4-0.8-1.2-1.3-2.1-1.3
			c-0.7,0-1.3,0.3-1.7,0.8C13.6,6.4,13.4,7.2,13.5,8.1L13.5,8.1z"/>
		<path id="Trazado_3573" class="st0" d="M22.5,1.3c0-0.2,0.1-0.4,0.2-0.6c0.2-0.2,0.4-0.3,0.7-0.3c0.2,0,0.5,0.1,0.7,0.3
			c0.2,0.2,0.2,0.4,0.2,0.6c0,0.2-0.1,0.4-0.2,0.6c-0.2,0.2-0.4,0.3-0.7,0.2c-0.2,0-0.5-0.1-0.7-0.2C22.5,1.8,22.4,1.6,22.5,1.3z
			 M24.1,12.4h-1.5V3.7h1.5V12.4z"/>
		<path id="Trazado_3574" class="st0" d="M28.8,12.4h-1.5V0h1.5V12.4z"/>
		<path id="Trazado_3575" class="st0" d="M35.7,12.6c-1.1,0-2.1-0.4-2.9-1.2c-0.8-0.9-1.2-2-1.1-3.1V8c0-0.8,0.2-1.6,0.5-2.3
			c0.3-0.7,0.8-1.2,1.4-1.6c0.6-0.4,1.2-0.6,1.9-0.6c1-0.1,2,0.4,2.6,1.1c0.7,0.9,1,2.1,0.9,3.2v0.6h-5.9c0,0.8,0.3,1.5,0.8,2.1
			c0.5,0.5,1.1,0.8,1.8,0.8c0.5,0,0.9-0.1,1.3-0.3c0.4-0.2,0.7-0.5,1-0.9l0.9,0.7C38.2,12,37,12.6,35.7,12.6z M35.5,4.7
			c-0.6,0-1.1,0.2-1.5,0.7c-0.4,0.5-0.7,1.2-0.8,1.8h4.4V7.1c0-0.6-0.2-1.3-0.6-1.8C36.6,4.9,36,4.7,35.5,4.7L35.5,4.7z"/>
	</g>
	<g id="Grupo_14671" transform="translate(-5124 384.567)">
		<path id="Trazado_3576" class="st0" d="M33.5,22.4c-0.6,0-1,0.5-1,1c0,0.6,0.5,1,1,1c0.6,0,1-0.5,1-1
			C34.6,22.8,34.1,22.4,33.5,22.4z"/>
		<path id="Trazado_3577" class="st0" d="M21.2,23.4c0,1.2,0.9,2.1,2.1,2.1c1.2,0,2.1-0.9,2.1-2.1c0-1.2-0.9-2.1-2.1-2.1
			C22.1,21.3,21.2,22.3,21.2,23.4z"/>
		<path id="Trazado_3578" class="st0" d="M13,22.4c-0.6,0-1,0.5-1,1c0,0.6,0.5,1,1,1c0.6,0,1-0.5,1-1C14,22.8,13.6,22.4,13,22.4z"/>
		<path id="Trazado_3579" class="st0" d="M34.9,0h-23C5.3,0,0,5.3,0,11.8v23c0,6.5,5.3,11.8,11.8,11.8h23c6.5,0,11.8-5.3,11.8-11.8
			v-23C46.7,5.3,41.4,0,34.9,0z M11.5,11.7c1.8-1.8,4.7-2.2,8.3-1.1c1.2,0.4,2.3,0.9,3.4,1.5c1.1-0.6,2.2-1.1,3.4-1.5
			c3.5-1.1,6.5-0.8,8.3,1.1c1.6,1.6,2.1,4.2,1.3,7.3c-0.6-0.4-1.3-0.6-2-0.7c0.2-0.9,0.3-1.7,0.2-2.6c-0.1-0.9-0.4-1.8-1-2.4
			c-0.7-0.6-1.5-1-2.4-1c-0.2,0-0.4,0-0.6,0c-1.1,0-2.1,0.2-3.1,0.5c-0.7,0.2-1.3,0.5-2,0.8c1.5,1.1,3,2.3,4.3,3.6
			c0.6,0.6,1.1,1.1,1.6,1.7C30.6,19,30,19.4,29.6,20c-0.4-0.5-0.9-1-1.4-1.5c-1.5-1.5-3.1-2.8-4.9-3.9c-1.8,1.1-3.4,2.4-4.9,3.9
			c-0.5,0.5-0.9,1-1.4,1.5c-0.5-0.5-1-1-1.7-1.3c0.5-0.6,1-1.1,1.6-1.7c1.3-1.3,2.8-2.5,4.3-3.6c-0.6-0.3-1.3-0.6-2-0.8
			c-1.2-0.4-2.5-0.6-3.7-0.5c-0.9,0.1-1.8,0.4-2.4,1c-0.6,0.7-1,1.5-1,2.4c-0.1,0.9,0,1.8,0.2,2.6c-0.7,0.1-1.4,0.4-2,0.7
			C9.4,15.9,9.9,13.3,11.5,11.7L11.5,11.7z M36.7,23.4c0,1.7-1.4,3.1-3.1,3.1c-1.7,0-3.1-1.4-3.1-3.1c0-1.7,1.4-3.1,3.1-3.1
			C35.2,20.3,36.6,21.7,36.7,23.4L36.7,23.4z M27.4,23.4c0,2.3-1.9,4.2-4.2,4.2c-2.3,0-4.2-1.9-4.2-4.2c0-2.3,1.9-4.2,4.2-4.2
			C25.6,19.2,27.4,21.1,27.4,23.4L27.4,23.4z M16.1,23.4c0,1.7-1.4,3.1-3.1,3.1c-1.7,0-3.1-1.4-3.1-3.1c0-1.7,1.4-3.1,3.1-3.1
			C14.7,20.3,16.1,21.7,16.1,23.4L16.1,23.4z M35,35.1c-1.2,1.2-2.9,1.8-4.6,1.7c-1.3,0-2.5-0.2-3.7-0.6c-1.2-0.4-2.3-0.9-3.4-1.5
			c-1.1,0.6-2.2,1.1-3.4,1.5c-1.2,0.4-2.5,0.6-3.7,0.6c-1.7,0.1-3.3-0.5-4.6-1.7c-1.6-1.6-2.1-4.2-1.3-7.3c0.6,0.4,1.3,0.6,2,0.7
			c-0.2,0.9-0.3,1.7-0.2,2.6c0.1,0.9,0.4,1.8,1,2.4c0.7,0.6,1.5,1,2.4,1c1.3,0.1,2.5-0.1,3.7-0.5c0.7-0.2,1.3-0.5,2-0.8
			c-1.5-1.1-3-2.3-4.3-3.6c-0.6-0.6-1.1-1.1-1.6-1.7c0.6-0.3,1.2-0.7,1.7-1.3c0.4,0.5,0.9,1,1.4,1.5c1.5,1.5,3.1,2.8,4.9,3.9
			c1.8-1.1,3.4-2.4,4.9-3.9c0.5-0.5,0.9-1,1.4-1.5c0.5,0.5,1,1,1.7,1.3c-0.5,0.6-1,1.1-1.6,1.7c-1.3,1.3-2.8,2.5-4.3,3.6
			c0.6,0.3,1.3,0.6,2,0.8c1.2,0.4,2.5,0.6,3.7,0.5c0.9-0.1,1.8-0.4,2.4-1c0.6-0.7,1-1.5,1-2.4c0.1-0.9,0-1.8-0.2-2.6
			c0.7-0.1,1.4-0.4,2-0.7C37.1,30.9,36.6,33.5,35,35.1L35,35.1z"/>
	</g>
</g>
</svg>
