<?xml version="1.0" encoding="utf-8"?>
<!-- Generator: Adobe Illustrator 19.0.0, SVG Export Plug-In . SVG Version: 6.00 Build 0)  -->
<svg version="1.1" id="Capa_1" xmlns="http://www.w3.org/2000/svg" xmlns:xlink="http://www.w3.org/1999/xlink" x="0px" y="0px"
	 viewBox="-140 163 118 42" style="enable-background:new -140 163 118 42;" xml:space="preserve">
<style type="text/css">
	.st0{fill:#0C0C0C;}
	.st1{fill:#8DF49B;}
	.st2{fill:#979797;}
	.st3{fill:#FFFFFF;}
</style>
<g id="Grupo_1_14_" transform="translate(59.812 59.06)">
	<path id="Trazado_2_14_" class="st0" d="M-189.6,118.5c0.7-0.4,1.6-0.6,2.4-0.6c0.7,0,1.4,0.2,2.1,0.5c0.7,0.3,1.2,0.8,1.6,1.5
		l1.9-1.2c-0.5-0.9-1.3-1.7-2.3-2.2c-1-0.5-2.2-0.8-3.3-0.8c-1.3,0-2.6,0.3-3.7,0.9c-1.1,0.6-1.9,1.4-2.6,2.5
		c-1.2,2.2-1.2,4.9,0,7.2c0.6,1,1.5,1.9,2.6,2.5c1.1,0.6,2.4,0.9,3.7,0.9c1.1,0,2.3-0.2,3.3-0.8c0.9-0.5,1.7-1.2,2.3-2.2l-1.9-1.2
		c-0.4,0.6-0.9,1.1-1.6,1.5c-0.6,0.3-1.4,0.5-2.1,0.5c-0.8,0-1.7-0.2-2.4-0.6c-0.7-0.4-1.3-1-1.7-1.7c-0.4-0.8-0.6-1.7-0.6-2.5
		c0-0.9,0.2-1.7,0.6-2.5C-190.8,119.5-190.3,118.9-189.6,118.5z"/>
	<rect id="Rectángulo_1_14_" x="-179.2" y="110.4" class="st0" width="2.5" height="19"/>
	<path id="Trazado_3_14_" class="st0" d="M-163.7,116.6c-1.1-0.6-2.3-0.9-3.5-0.9c-1.2,0-2.4,0.3-3.5,0.9c-1,0.6-1.9,1.4-2.4,2.5
		c-0.6,1.1-0.9,2.3-0.9,3.6c0,1.3,0.3,2.5,0.9,3.6c0.6,1.1,1.5,1.9,2.6,2.5c2.2,1.1,4.7,1.2,6.9,0.3c0.9-0.4,1.7-0.9,2.3-1.6
		l-1.4-1.6c-1,1.1-2.4,1.7-3.9,1.6c-1.2,0-2.4-0.3-3.4-1.1c-0.9-0.7-1.5-1.8-1.6-2.9h11c0-0.3,0.1-0.5,0.1-0.8
		c0-1.3-0.3-2.5-0.9-3.7C-161.8,118.1-162.6,117.2-163.7,116.6z M-171.5,121.7c0.1-1.1,0.6-2.1,1.4-2.8c1.7-1.4,4.2-1.4,5.9,0
		c0.8,0.7,1.3,1.7,1.4,2.8H-171.5z"/>
	<path id="Trazado_4_14_" class="st0" d="M-153,126.8l-4.7-10.9h-2.6l6,13.6h2.5l6-13.6h-2.4L-153,126.8z"/>
	<path id="Trazado_5_14_" class="st0" d="M-135.5,116.6c-1.1-0.6-2.3-0.9-3.5-0.9c-1.2,0-2.4,0.3-3.5,0.9c-1,0.6-1.9,1.4-2.4,2.5
		c-0.6,1.1-0.9,2.3-0.9,3.6c0,1.3,0.3,2.5,0.9,3.6c0.6,1.1,1.5,1.9,2.6,2.5c2.2,1.1,4.6,1.2,6.9,0.3c0.9-0.4,1.7-0.9,2.3-1.6
		l-1.4-1.6c-1,1.1-2.4,1.7-3.9,1.6c-1.2,0-2.4-0.3-3.4-1.1c-0.9-0.7-1.5-1.8-1.6-2.9h11.1c0-0.3,0.1-0.5,0.1-0.8
		c0-1.3-0.3-2.5-0.9-3.7C-133.7,118.1-134.5,117.2-135.5,116.6z M-143.4,121.7c0.1-1.1,0.6-2.1,1.4-2.8c1.7-1.4,4.2-1.4,5.9,0
		c0.8,0.7,1.3,1.7,1.4,2.8H-143.4z"/>
	<path id="Trazado_6_14_" class="st0" d="M-127.1,118.2v-2.3h-2.4v13.6h2.5v-6.8c-0.1-1.2,0.3-2.5,1.1-3.4c0.8-0.8,2-1.3,3.1-1.2
		c0.2,0,0.4,0,0.6,0v-2.4c-1,0-2.1,0.2-3.1,0.6C-126,116.7-126.7,117.4-127.1,118.2z"/>
</g>
<g>
	<path class="st1" d="M-35,193.5h-13.8c-4.2,0-7.6-3.4-7.6-7.6v-13.8c0-4.2,3.4-7.6,7.6-7.6H-35c4.2,0,7.6,3.4,7.6,7.6v13.8
		C-27.4,190.1-30.8,193.5-35,193.5z"/>
</g>
<g>
	<path class="st2" d="M-126.7,199.4c-0.9-0.2-1.7-0.5-2.4-0.7c-0.1,0-0.3-0.1-0.4-0.1c-1.5-0.1-2.8-1.2-2.8-3.2c0-2,1.2-3.3,3-3.3
		c1.7,0,2.8,1.3,2.8,3.2c0,1.6-0.8,2.7-1.8,3v0c0.6,0.2,1.3,0.3,1.9,0.4L-126.7,199.4z M-127.3,195.2c0-1.3-0.7-2.6-2-2.6
		c-1.4,0-2.1,1.3-2.1,2.7c0,1.3,0.7,2.6,2,2.6C-128.1,197.9-127.3,196.7-127.3,195.2z"/>
	<path class="st2" d="M-121.1,197.2c0,0.5,0,0.9,0,1.2h-0.7l0-0.7h0c-0.2,0.4-0.7,0.8-1.5,0.8c-0.7,0-1.6-0.4-1.6-2v-2.7h0.8v2.5
		c0,0.9,0.3,1.4,1,1.4c0.6,0,0.9-0.4,1.1-0.8c0-0.1,0.1-0.3,0.1-0.4v-2.8h0.8V197.2z"/>
	<path class="st2" d="M-116.8,198.4l-0.1-0.6h0c-0.3,0.4-0.7,0.7-1.4,0.7c-0.9,0-1.4-0.6-1.4-1.3c0-1.1,1-1.7,2.7-1.7v-0.1
		c0-0.4-0.1-1.1-1-1.1c-0.4,0-0.9,0.1-1.2,0.3l-0.2-0.5c0.4-0.2,0.9-0.4,1.5-0.4c1.4,0,1.7,1,1.7,1.9v1.7c0,0.4,0,0.8,0.1,1.1
		H-116.8z M-117,196.1c-0.9,0-1.9,0.1-1.9,1c0,0.5,0.4,0.8,0.8,0.8c0.6,0,1-0.4,1.1-0.8c0-0.1,0-0.2,0-0.3V196.1z"/>
	<path class="st2" d="M-114.4,191.8h0.8v6.7h-0.8V191.8z"/>
	<path class="st2" d="M-110.9,192.6c0,0.3-0.2,0.5-0.5,0.5c-0.3,0-0.5-0.2-0.5-0.5c0-0.3,0.2-0.5,0.5-0.5
		C-111.1,192.1-110.9,192.3-110.9,192.6z M-111.8,198.4v-4.6h0.8v4.6H-111.8z"/>
	<path class="st2" d="M-108.2,192.6v1.3h1.2v0.6h-1.2v2.5c0,0.6,0.2,0.9,0.6,0.9c0.2,0,0.4,0,0.5-0.1l0,0.6
		c-0.2,0.1-0.4,0.1-0.7,0.1c-0.4,0-0.7-0.1-0.9-0.3c-0.2-0.2-0.3-0.6-0.3-1.2v-2.5h-0.7v-0.6h0.7v-1.1L-108.2,192.6z"/>
	<path class="st2" d="M-105.1,193.9l1,2.7c0.1,0.3,0.2,0.7,0.3,0.9h0c0.1-0.3,0.2-0.6,0.3-1l0.9-2.7h0.9l-1.2,3.2
		c-0.6,1.6-1,2.4-1.6,2.9c-0.4,0.4-0.8,0.5-1,0.5l-0.2-0.7c0.2-0.1,0.5-0.2,0.7-0.4c0.2-0.2,0.5-0.5,0.7-0.9c0-0.1,0.1-0.2,0.1-0.2
		s0-0.1-0.1-0.2l-1.7-4.2H-105.1z"/>
</g>
<g>
	<path class="st3" d="M-41.8,181.3l9.4-10.3l1.2,1.1l-10.5,11.6l-5.7-5.5l1.2-1.2L-41.8,181.3z M-31.8,175.3l-1.3,1.4
		c0.2,0.7,0.3,1.5,0.3,2.3c0,5-4.1,9-9,9s-9-4.1-9-9c0-5,4.1-9,9-9c2.3,0,4.4,0.9,6,2.3l1.1-1.2c-2-1.8-4.5-2.7-7.1-2.7
		c-2.9,0-5.6,1.1-7.6,3.1s-3.1,4.7-3.1,7.6s1.1,5.6,3.1,7.6s4.7,3.1,7.6,3.1s5.6-1.1,7.6-3.1s3.1-4.7,3.1-7.6
		C-31.2,177.8-31.4,176.5-31.8,175.3z"/>
</g>
</svg>
