<?xml version="1.0" encoding="utf-8"?>
<!-- Generator: Adobe Illustrator 23.1.0, SVG Export Plug-In . SVG Version: 6.00 Build 0)  -->
<svg version="1.1" id="Capa_1" xmlns="http://www.w3.org/2000/svg" xmlns:xlink="http://www.w3.org/1999/xlink" x="0px" y="0px"
	 viewBox="0 0 173 60.9" style="enable-background:new 0 0 173 60.9;" xml:space="preserve">
<style type="text/css">
	.st0{fill:#FFFFFF;}
</style>
<g id="Grupo_14676" transform="translate(878.121 -1178.133)">
	<g id="Grupo_1" transform="translate(-878.12 1186.043)">
		<g id="Trazado_2" transform="translate(0 8.585)">
			<path id="Trazado_3549" class="st0" d="M7.7,4.4c1.2-0.6,2.5-1,3.9-1c1.2,0,2.3,0.3,3.4,0.8c1,0.5,1.9,1.4,2.6,2.4l3-1.9
				c-0.8-1.5-2.1-2.7-3.6-3.5C15.3,0.4,13.5,0,11.6,0c-2.1,0-4.2,0.5-6,1.4c-1.7,0.9-3.1,2.3-4.1,4c-2,3.6-2,8,0,11.6
				c1,1.7,2.4,3.1,4.1,4c1.8,1,3.9,1.5,6,1.5c1.9,0,3.7-0.4,5.3-1.2c1.5-0.8,2.8-2,3.6-3.5l-3-1.9c-0.6,1-1.5,1.8-2.6,2.4
				c-1.1,0.5-2.2,0.8-3.4,0.8c-1.4,0-2.7-0.3-3.9-1c-1.1-0.6-2.1-1.6-2.7-2.7c-0.7-1.3-1-2.7-1-4.1c0-1.4,0.3-2.8,1-4
				C5.6,6,6.6,5.1,7.7,4.4z"/>
		</g>
		<g id="Rectángulo_1" transform="translate(24.396)">
			<rect id="Rectángulo_3484" x="0" y="0" class="st0" width="4" height="30.8"/>
		</g>
		<g id="Trazado_3" transform="translate(32.899 8.586)">
			<path id="Trazado_3550" class="st0" d="M16.7,1.4C14.9,0.5,13,0,11,0c-2,0-3.9,0.5-5.7,1.4c-1.7,0.9-3,2.3-3.9,4
				C0.5,7.2,0,9.2,0,11.2c0,2,0.5,4,1.5,5.8c1,1.7,2.4,3.1,4.2,4c3.5,1.7,7.5,1.9,11.1,0.5c1.4-0.6,2.7-1.5,3.7-2.7l-2.2-2.6
				c-1.6,1.8-3.9,2.8-6.3,2.7c-2,0.1-3.9-0.6-5.4-1.8C5.1,16,4.2,14.4,4,12.5h17.8c0-0.4,0.1-0.8,0.1-1.2c0-2-0.4-4.1-1.4-5.9
				C19.6,3.8,18.3,2.4,16.7,1.4z M4,9.7c0.2-1.8,1-3.4,2.3-4.6c2.8-2.3,6.8-2.3,9.6,0c1.3,1.2,2.1,2.8,2.3,4.5L4,9.7z"/>
		</g>
		<g id="Trazado_4" transform="translate(55.016 8.796)">
			<path id="Trazado_3551" class="st0" d="M11.7,17.6L4.1,0H0l9.6,22h4.1l9.6-22h-3.9L11.7,17.6z"/>
		</g>
		<g id="Trazado_5" transform="translate(78.371 8.586)">
			<path id="Trazado_3552" class="st0" d="M16.7,1.4C14.9,0.5,13,0,11,0c-2,0-3.9,0.5-5.7,1.4c-1.7,0.9-3,2.3-3.9,4
				C0.5,7.2,0,9.2,0,11.2c0,2,0.5,4,1.5,5.8c1,1.7,2.4,3.1,4.2,4c3.5,1.7,7.5,1.9,11.1,0.5c1.4-0.6,2.7-1.5,3.7-2.7l-2.2-2.6
				c-1.6,1.8-3.9,2.8-6.3,2.7c-2,0.1-3.9-0.6-5.4-1.8C5.1,16,4.2,14.4,4,12.5h17.8c0-0.4,0.1-0.8,0.1-1.2c0-2-0.4-4.1-1.4-5.9
				C19.6,3.8,18.3,2.4,16.7,1.4z M4,9.7c0.2-1.8,1-3.4,2.3-4.6c2.8-2.3,6.8-2.3,9.6,0c1.3,1.2,2.1,2.8,2.3,4.5L4,9.7z"/>
		</g>
		<g id="Trazado_6" transform="translate(104.758 8.584)">
			<path id="Trazado_3553" class="st0" d="M3.8,3.9V0.2H0v22h4v-11c-0.1-2,0.5-4,1.8-5.5c1.3-1.3,3.2-2,5.1-1.9c0.3,0,0.6,0,0.9,0V0
				c-1.7,0-3.4,0.3-4.9,1C5.6,1.6,4.5,2.6,3.8,3.9z"/>
		</g>
	</g>
	<g id="Grupo_14666" transform="translate(-876.772 1223.793)">
		<path id="Trazado_3554" class="st0" d="M6.6,6.5H1.5v4.2h5.9v1.3H0V0.2h7.4v1.3H1.5v3.8h5.1L6.6,6.5z"/>
		<path id="Trazado_3555" class="st0" d="M13.4,6.4l1.9-3.2H17l-2.9,4.3l2.9,4.4h-1.7l-2-3.3l-2,3.3H9.6l2.9-4.4L9.7,3.2h1.7
			L13.4,6.4z"/>
		<path id="Trazado_3556" class="st0" d="M26.8,7.6c0.1,1.1-0.3,2.3-0.9,3.2c-0.6,0.8-1.5,1.3-2.5,1.2c-0.9,0-1.9-0.3-2.5-1v4.2
			h-1.5V3.2h1.4l0.1,1C21.5,3.4,22.5,3,23.4,3c1,0,1.9,0.4,2.5,1.2c0.7,1,1,2.1,0.9,3.3V7.6z M25.4,7.5c0-0.8-0.2-1.6-0.6-2.3
			c-0.4-0.6-1-0.9-1.7-0.9c-0.9,0-1.6,0.4-2,1.2v4.2c0.4,0.8,1.2,1.2,2,1.2c0.7,0,1.3-0.3,1.7-0.9C25.2,9.2,25.4,8.4,25.4,7.5
			L25.4,7.5z"/>
		<path id="Trazado_3557" class="st0" d="M33.2,12.1c-1.1,0-2.1-0.4-2.9-1.2c-0.8-0.9-1.2-2-1.1-3.1V7.5c0-0.8,0.2-1.6,0.5-2.3
			C30,4.5,30.5,4,31.1,3.6C31.7,3.2,32.4,3,33.1,3c1-0.1,2,0.4,2.6,1.1c0.7,0.9,1,2.1,0.9,3.2V8h-5.9c0,0.8,0.3,1.5,0.8,2.1
			c0.5,0.5,1.1,0.8,1.8,0.8c0.5,0,0.9-0.1,1.3-0.3c0.4-0.2,0.7-0.5,1-0.9l0.9,0.7C35.8,11.5,34.6,12.1,33.2,12.1z M33.1,4.2
			c-0.6,0-1.1,0.2-1.5,0.7c-0.4,0.5-0.7,1.2-0.8,1.8h4.4V6.6c0-0.6-0.2-1.3-0.6-1.8C34.2,4.4,33.6,4.2,33.1,4.2L33.1,4.2z"/>
		<path id="Trazado_3558" class="st0" d="M43.6,4.5c-0.2,0-0.5-0.1-0.7-0.1c-0.9-0.1-1.7,0.4-2,1.3v6.2h-1.5V3.2h1.5l0,1
			C41.2,3.4,42,3,42.9,3c0.2,0,0.5,0,0.7,0.1V4.5z"/>
		<path id="Trazado_3559" class="st0" d="M45.8,0.9c0-0.2,0.1-0.4,0.2-0.6C46.2,0.1,46.4,0,46.7,0c0.2,0,0.5,0.1,0.7,0.3
			c0.2,0.2,0.2,0.4,0.2,0.6c0,0.2-0.1,0.4-0.2,0.6c-0.2,0.2-0.4,0.3-0.7,0.2c-0.2,0-0.5-0.1-0.7-0.2C45.8,1.3,45.8,1.1,45.8,0.9z
			 M47.4,11.9h-1.5V3.2h1.5V11.9z"/>
		<path id="Trazado_3560" class="st0" d="M54.2,12.1c-1.1,0-2.1-0.4-2.9-1.2c-0.8-0.9-1.2-2-1.1-3.1V7.5c0-0.8,0.2-1.6,0.5-2.3
			C51,4.5,51.5,4,52.1,3.6C52.6,3.2,53.3,3,54,3c1-0.1,2,0.4,2.6,1.1c0.7,0.9,1,2.1,0.9,3.2V8h-5.9c0,0.8,0.3,1.5,0.8,2.1
			c0.5,0.5,1.1,0.8,1.8,0.8c0.5,0,0.9-0.1,1.3-0.3c0.4-0.2,0.7-0.5,1-0.9l0.9,0.7C56.8,11.5,55.5,12.1,54.2,12.1z M54,4.2
			c-0.6,0-1.1,0.2-1.5,0.7c-0.4,0.5-0.7,1.2-0.8,1.8h4.4V6.6c0-0.6-0.2-1.3-0.6-1.8C55.1,4.4,54.5,4.2,54,4.2L54,4.2z"/>
		<path id="Trazado_3561" class="st0" d="M61.7,3.2l0,1.1C62.3,3.5,63.3,3,64.3,3c1.8,0,2.8,1,2.8,3.1v5.8h-1.5V6.1
			c0-0.5-0.1-1-0.4-1.4c-0.4-0.3-0.8-0.5-1.3-0.5c-0.5,0-0.9,0.1-1.3,0.4c-0.4,0.3-0.7,0.6-0.9,1v6.2h-1.5V3.2L61.7,3.2z"/>
		<path id="Trazado_3562" class="st0" d="M73.7,10.9c0.5,0,1-0.2,1.4-0.5c0.4-0.3,0.6-0.7,0.7-1.2h1.4c0,0.5-0.2,1-0.5,1.4
			c-0.3,0.5-0.8,0.8-1.3,1.1c-0.5,0.3-1.1,0.4-1.7,0.4c-1.1,0-2.1-0.4-2.8-1.2c-0.7-0.9-1.1-2.1-1.1-3.3V7.4c0-0.8,0.1-1.6,0.5-2.3
			c0.3-0.6,0.8-1.2,1.3-1.5C72.3,3.2,73,3,73.7,3c0.9,0,1.8,0.3,2.4,0.9c0.6,0.6,1,1.4,1,2.3h-1.4c0-0.5-0.3-1-0.6-1.4
			c-0.4-0.4-0.9-0.6-1.4-0.5c-0.7,0-1.3,0.3-1.8,0.8c-0.5,0.7-0.7,1.5-0.6,2.4v0.3C71.3,8.5,71.5,9.3,72,10
			C72.4,10.6,73,10.9,73.7,10.9z"/>
		<path id="Trazado_3563" class="st0" d="M83.4,12.1c-1.1,0-2.1-0.4-2.9-1.2c-0.8-0.9-1.2-2-1.1-3.1V7.5c0-0.8,0.2-1.6,0.5-2.3
			c0.3-0.7,0.8-1.2,1.4-1.6C81.9,3.2,82.6,3,83.2,3c1-0.1,2,0.4,2.6,1.1c0.7,0.9,1,2.1,0.9,3.2V8h-5.9c0,0.8,0.3,1.5,0.8,2.1
			c0.5,0.5,1.1,0.8,1.8,0.8c0.5,0,0.9-0.1,1.3-0.3c0.4-0.2,0.7-0.5,1-0.9l0.9,0.7C86,11.5,84.7,12.1,83.4,12.1z M83.2,4.2
			c-0.6,0-1.1,0.2-1.5,0.7C81.3,5.4,81,6.1,81,6.7h4.4V6.6c0-0.6-0.2-1.3-0.6-1.8C84.3,4.4,83.8,4.2,83.2,4.2L83.2,4.2z"/>
	</g>
	<path id="Trazado_3564" class="st0" d="M-717,1178.1h-23c-6.5,0-11.8,5.3-11.8,11.8l0,0v23c0,6.5,5.3,11.8,11.8,11.8h0h23
		c6.5,0,11.8-5.3,11.8-11.8l0,0v-23C-705.1,1183.4-710.4,1178.1-717,1178.1L-717,1178.1z M-731.6,1210.4c-2.2-0.5-4.3-1.1-6.4-1.6
		c-2.2-0.6-4.5-1.2-6.7-1.7c-0.5-0.1-1.1-0.2-1.2-0.8c-0.1-0.5,0.3-0.8,0.6-1.1c3.3-3.3,6.6-6.6,9.9-9.9c0.8-0.8,1.3-0.7,1.6,0.4
		c1.2,4.5,2.4,8.9,3.6,13.4c0,0.1,0,0.2,0,0.3C-730.1,1210.4-730.6,1210.7-731.6,1210.4L-731.6,1210.4z M-729.7,1199.5
		c0-2.3,0-4.6,0-7v-6.8c0-1.5,0.4-1.7,1.7-1c3.3,1.9,6.6,3.8,9.9,5.7c0.6,0.4,1.2,0.7,1.8,1.1c1.1,0.7,1.1,1.3,0,2
		c-2.2,1.3-4.4,2.6-6.7,4c-1.6,1-3.3,2-4.9,3C-729.3,1201.2-729.7,1201-729.7,1199.5L-729.7,1199.5z M-713,1213.8
		c-4.5,1.2-8.9,2.4-13.4,3.6c-0.8,0.2-1.4-0.2-1.3-1c0.4-1.7,0.9-3.3,1.3-5c0.7-2.9,1.5-5.9,2.2-8.8c0.3-1.3,0.8-1.4,1.7-0.5
		c3.3,3.3,6.6,6.6,9.9,9.9C-711.7,1213-711.8,1213.5-713,1213.8L-713,1213.8z"/>
</g>
</svg>
