<?xml version="1.0" encoding="utf-8"?>
<!-- Generator: Adobe Illustrator 23.1.0, SVG Export Plug-In . SVG Version: 6.00 Build 0)  -->
<svg version="1.1" xmlns="http://www.w3.org/2000/svg" xmlns:xlink="http://www.w3.org/1999/xlink" x="0px" y="0px"
	 viewBox="0 0 130 40.53" style="enable-background:new 0 0 130 40.53;" xml:space="preserve">
<style type="text/css">
	.st0{display:none;}
	.st1{display:inline;}
	.st2{fill:#FFFFFF;}
</style>
<g id="Capa_2" class="st0">
	<rect x="0" class="st1" width="130" height="40.53"/>
</g>
<g id="Capa_1">
	<path class="st2" d="M127.74,7.7c-0.03-3.78-2.51-6.24-6.29-6.26c-5.86-0.02-11.71-0.02-17.57,0c-3.74,0.01-6.3,2.5-6.32,6.27
		c-0.05,8.37-0.04,16.74,0,25.11c0.02,3.73,2.37,6.26,6.08,6.33c6.03,0.11,12.07,0.11,18.09,0c3.75-0.07,6-2.56,6.02-6.34
		c0.02-4.15,0.01-8.31,0.01-12.46C127.74,16.13,127.77,11.91,127.74,7.7z M108.05,30.98l-3.09,0.01c0,0,0.03-5.97,0.03-8.31
		c0-2.28-0.04-8.07-0.04-8.07l3.1-0.02L108.05,30.98z M106.49,11.33c-1.24-0.12-2.01-0.74-1.96-2c0.06-1.25,0.91-1.89,2.09-1.84
		c1.1,0.05,1.86,0.7,1.84,1.9C108.45,10.67,107.69,11.25,106.49,11.33z M120.99,30.79c-4,1.68-7.56-0.64-7.64-4.96
		c-0.02-1.23,0-2.45,0-3.68c0-0.88-0.02-5.41-0.02-5.41l-2.72-0.04l0.03-1.93l2.82-0.06l0-3.57l2.74-0.02l0.02,3.49l4.51-0.01
		l-0.01,2.1l-4.29,0.12c0,0-0.07,7.1-0.04,8.91c0.05,2.5,1.42,3.56,3.78,2.73c0.45-0.16,0.88-0.34,0.88-0.34l0.95,2
		C122,30.14,121.38,30.62,120.99,30.79z"/>
	<g id="Grupo_1_14_" transform="translate(59.812 59.06)">
		<path id="Trazado_2_14_" class="st2" d="M-52.27-38.95c0.95-0.52,2.01-0.78,3.09-0.76c0.94-0.01,1.87,0.2,2.71,0.63
			c0.84,0.44,1.54,1.09,2.05,1.89l2.42-1.56c-0.67-1.2-1.67-2.16-2.89-2.78c-1.32-0.66-2.78-0.99-4.25-0.96
			c-1.66-0.03-3.31,0.36-4.78,1.14c-1.37,0.73-2.51,1.83-3.29,3.18c-1.59,2.87-1.59,6.36,0,9.23c0.78,1.35,1.92,2.45,3.29,3.19
			c1.47,0.79,3.11,1.19,4.78,1.16c1.48,0.03,2.94-0.31,4.25-0.98c1.22-0.63,2.23-1.6,2.89-2.8l-2.42-1.52
			c-0.51,0.8-1.21,1.45-2.05,1.89c-0.84,0.43-1.77,0.64-2.71,0.63c-1.08,0.02-2.15-0.24-3.09-0.76c-0.91-0.5-1.66-1.25-2.15-2.17
			c-0.53-1-0.8-2.12-0.78-3.26c-0.02-1.12,0.25-2.24,0.78-3.23C-53.93-37.7-53.18-38.45-52.27-38.95z"/>
		<rect id="Rectángulo_1_14_" x="-38.96" y="-49.34" class="st2" width="3.18" height="24.55"/>
		<path id="Trazado_3_14_" class="st2" d="M-18.89-41.35c-1.37-0.77-2.91-1.17-4.48-1.14c-1.58-0.02-3.14,0.37-4.52,1.14
			c-1.32,0.75-2.41,1.86-3.14,3.19c-0.77,1.41-1.16,2.99-1.14,4.6c-0.03,1.62,0.38,3.22,1.18,4.63c0.78,1.36,1.93,2.47,3.33,3.19
			c2.78,1.36,5.99,1.51,8.88,0.41c1.14-0.46,2.16-1.18,2.96-2.12l-1.76-2.05c-1.29,1.42-3.14,2.19-5.06,2.12
			c-1.56,0.05-3.09-0.44-4.32-1.41c-1.15-0.92-1.88-2.26-2.03-3.72h14.23c0.04-0.32,0.06-0.64,0.07-0.96
			c0.03-1.63-0.35-3.25-1.11-4.7C-16.52-39.49-17.59-40.6-18.89-41.35z M-29-34.78c0.12-1.4,0.77-2.69,1.8-3.64
			c2.21-1.86,5.44-1.85,7.64,0.02c1.03,0.94,1.67,2.23,1.8,3.62L-29-34.78z"/>
		<path id="Trazado_4_14_" class="st2" d="M-5.21-28.27l-6.02-14.06h-3.31l7.68,17.53h3.24l7.68-17.53H0.95L-5.21-28.27z"/>
		<path id="Trazado_5_14_" class="st2" d="M17.37-41.35c-1.37-0.77-2.91-1.17-4.48-1.14c-1.58-0.02-3.14,0.37-4.52,1.14
			c-1.32,0.75-2.41,1.86-3.14,3.19c-0.77,1.41-1.16,2.99-1.14,4.6c-0.03,1.62,0.38,3.22,1.18,4.63c0.78,1.36,1.93,2.47,3.33,3.19
			c2.78,1.36,5.99,1.51,8.88,0.41c1.14-0.46,2.16-1.18,2.96-2.11l-1.75-2.05c-1.29,1.42-3.14,2.19-5.06,2.12
			c-1.56,0.05-3.09-0.44-4.32-1.41c-1.15-0.92-1.88-2.26-2.03-3.72h14.23c0.04-0.32,0.06-0.64,0.07-0.96
			c0.03-1.63-0.35-3.25-1.11-4.7C19.74-39.49,18.68-40.6,17.37-41.35z M7.26-34.78c0.12-1.4,0.77-2.69,1.8-3.64
			c2.21-1.86,5.44-1.85,7.64,0.02c1.03,0.94,1.67,2.23,1.8,3.62L7.26-34.78z"/>
		<path id="Trazado_6_14_" class="st2" d="M28.17-39.38v-2.95h-3.04v17.53h3.18v-8.73c-0.1-1.6,0.42-3.17,1.47-4.38
			c1.07-1.06,2.55-1.62,4.05-1.54c0.24,0,0.49,0.01,0.73,0.03v-3.08c-1.36-0.04-2.7,0.23-3.94,0.79
			C29.58-41.21,28.72-40.4,28.17-39.38z"/>
	</g>
</g>
</svg>
