<?xml version="1.0" encoding="utf-8"?>
<!-- Generator: Adobe Illustrator 23.1.0, SVG Export Plug-In . SVG Version: 6.00 Build 0)  -->
<svg version="1.1" id="Capa_1" xmlns="http://www.w3.org/2000/svg" xmlns:xlink="http://www.w3.org/1999/xlink" x="0px" y="0px"
	 viewBox="0 0 130 40.5" style="enable-background:new 0 0 130 40.5;" xml:space="preserve">
<style type="text/css">
	.st0{display:none;}
	.st1{display:inline;}
	.st2{fill:#371A9F;}
</style>
<g class="st0">
	<rect class="st1" width="130" height="40.5"/>
</g>
<g>
	<path class="st2" d="M127.7,7.7c0-3.8-2.5-6.2-6.3-6.3c-5.9,0-11.7,0-17.6,0c-3.7,0-6.3,2.5-6.3,6.3c-0.1,8.4,0,16.7,0,25.1
		c0,3.7,2.4,6.3,6.1,6.3c6,0.1,12.1,0.1,18.1,0c3.8-0.1,6-2.6,6-6.3c0-4.1,0-8.3,0-12.5C127.7,16.1,127.8,11.9,127.7,7.7z M108.1,31
		H105c0,0,0-6,0-8.3s0-8.1,0-8.1h3.1V31z M106.5,11.3c-1.2-0.1-2-0.7-2-2c0.1-1.3,0.9-1.9,2.1-1.8c1.1,0.1,1.9,0.7,1.8,1.9
		C108.4,10.7,107.7,11.3,106.5,11.3z M121,30.8c-4,1.7-7.6-0.6-7.6-5c0-1.2,0-2.5,0-3.7c0-0.9,0-5.4,0-5.4h-2.7v-1.9l2.8-0.1v-3.6
		h2.7v3.5h4.5v2.1l-4.3,0.1c0,0-0.1,7.1,0,8.9c0.1,2.5,1.4,3.6,3.8,2.7c0.4-0.2,0.9-0.3,0.9-0.3l0.9,2C122,30.1,121.4,30.6,121,30.8
		z"/>
	<g id="Grupo_1_14_" transform="translate(59.812 59.06)">
		<path id="Trazado_2_14_" class="st2" d="M-52.3-39c1-0.5,2-0.8,3.1-0.8c0.9,0,1.9,0.2,2.7,0.6c0.8,0.4,1.5,1.1,2,1.9l2.4-1.6
			c-0.7-1.2-1.7-2.2-2.9-2.8c-1.3-0.7-2.8-1-4.3-1c-1.7,0-3.3,0.4-4.8,1.1c-1.4,0.7-2.5,1.8-3.3,3.2c-1.6,2.9-1.6,6.4,0,9.2
			c0.8,1.4,1.9,2.5,3.3,3.2c1.5,0.8,3.1,1.2,4.8,1.2c1.5,0,2.9-0.3,4.3-1c1.2-0.6,2.2-1.6,2.9-2.8l-2.4-1.5c-0.5,0.8-1.2,1.5-2,1.9
			s-1.8,0.6-2.7,0.6c-1.1,0-2.2-0.2-3.1-0.8c-0.9-0.5-1.7-1.3-2.2-2.2c-0.5-1-0.8-2.1-0.8-3.3c0-1.1,0.3-2.2,0.8-3.2
			C-53.9-37.7-53.2-38.5-52.3-39z"/>
		<rect id="Rectángulo_1_14_" x="-39" y="-49.3" class="st2" width="3.2" height="24.5"/>
		<path id="Trazado_3_14_" class="st2" d="M-18.9-41.3c-1.4-0.8-2.9-1.2-4.5-1.1c-1.6,0-3.1,0.4-4.5,1.1c-1.3,0.8-2.4,1.9-3.1,3.2
			c-0.8,1.4-1.2,3-1.1,4.6c0,1.6,0.4,3.2,1.2,4.6c0.8,1.4,1.9,2.5,3.3,3.2c2.8,1.4,6,1.5,8.9,0.4c1.1-0.5,2.2-1.2,3-2.1l-1.8-2
			c-1.3,1.4-3.1,2.2-5.1,2.1c-1.6,0-3.1-0.4-4.3-1.4c-1.1-0.9-1.9-2.3-2-3.7h14.2c0-0.3,0.1-0.6,0.1-1c0-1.6-0.4-3.3-1.1-4.7
			C-16.5-39.5-17.6-40.6-18.9-41.3z M-29-34.8c0.1-1.4,0.8-2.7,1.8-3.6c2.2-1.9,5.4-1.8,7.6,0c1,0.9,1.7,2.2,1.8,3.6H-29z"/>
		<path id="Trazado_4_14_" class="st2" d="M-5.2-28.3l-6-14.1h-3.3l7.7,17.5h3.2l7.7-17.5H1L-5.2-28.3z"/>
		<path id="Trazado_5_14_" class="st2" d="M17.4-41.3c-1.4-0.8-2.9-1.2-4.5-1.1c-1.6,0-3.1,0.4-4.5,1.1c-1.3,0.8-2.4,1.9-3.1,3.2
			c-0.8,1.4-1.2,3-1.1,4.6c0,1.6,0.4,3.2,1.2,4.6s1.9,2.5,3.3,3.2c2.8,1.4,6,1.5,8.9,0.4c1.1-0.5,2.2-1.2,3-2.1l-1.8-2
			c-1.3,1.4-3.1,2.2-5.1,2.1c-1.6,0-3.1-0.4-4.3-1.4c-1.1-0.9-1.9-2.3-2-3.7h14.2c0-0.3,0.1-0.6,0.1-1c0-1.6-0.4-3.3-1.1-4.7
			C19.7-39.5,18.7-40.6,17.4-41.3z M7.3-34.8c0.1-1.4,0.8-2.7,1.8-3.6c2.2-1.9,5.4-1.8,7.6,0c1,0.9,1.7,2.2,1.8,3.6H7.3z"/>
		<path id="Trazado_6_14_" class="st2" d="M28.2-39.4v-3h-3v17.5h3.2v-8.7c-0.1-1.6,0.4-3.2,1.5-4.4c1.1-1.1,2.6-1.6,4.1-1.5
			c0.2,0,0.5,0,0.7,0v-3.1c-1.4,0-2.7,0.2-3.9,0.8C29.6-41.2,28.7-40.4,28.2-39.4z"/>
	</g>
</g>
</svg>
