<?xml version="1.0" encoding="utf-8"?>
<!-- Generator: Adobe Illustrator 23.1.0, SVG Export Plug-In . SVG Version: 6.00 Build 0)  -->
<svg version="1.1" id="Capa_1" xmlns="http://www.w3.org/2000/svg" xmlns:xlink="http://www.w3.org/1999/xlink" x="0px" y="0px"
	 viewBox="0 0 118 42" style="enable-background:new 0 0 118 42;" xml:space="preserve">
<style type="text/css">
	.st0{fill:#0C0C0C;}
	.st1{fill:#7E0CF5;}
	.st2{fill:#999999;}
	.st3{fill:#FFFFFF;}
</style>
<g>
	<g id="Grupo_1_14_" transform="translate(59.812 59.06)">
		<path id="Trazado_2_14_" class="st0" d="M-49.57-44.51c0.74-0.4,1.56-0.6,2.4-0.59c0.73-0.01,1.45,0.16,2.11,0.49
			c0.65,0.34,1.2,0.85,1.59,1.46l1.87-1.21c-0.52-0.93-1.3-1.68-2.25-2.16c-1.02-0.51-2.16-0.77-3.3-0.75
			c-1.29-0.02-2.57,0.28-3.71,0.89c-1.06,0.57-1.95,1.42-2.56,2.47c-1.23,2.23-1.23,4.94,0,7.16c0.61,1.04,1.49,1.9,2.56,2.48
			c1.14,0.61,2.42,0.92,3.71,0.9c1.15,0.02,2.28-0.24,3.3-0.76c0.95-0.49,1.73-1.24,2.25-2.17l-1.87-1.18
			c-0.39,0.62-0.94,1.12-1.59,1.46c-0.65,0.33-1.37,0.5-2.11,0.49c-0.84,0.01-1.67-0.19-2.4-0.59c-0.71-0.39-1.29-0.97-1.67-1.68
			c-0.41-0.78-0.62-1.65-0.6-2.53c-0.02-0.87,0.19-1.74,0.6-2.5C-50.85-43.53-50.27-44.12-49.57-44.51z"/>
		<rect id="Rectángulo_1_14_" x="-39.23" y="-52.57" class="st0" width="2.47" height="19.05"/>
		<path id="Trazado_3_14_" class="st0" d="M-23.66-46.37c-1.06-0.6-2.26-0.91-3.48-0.89c-1.23-0.02-2.44,0.29-3.51,0.89
			c-1.03,0.58-1.87,1.44-2.44,2.48c-0.6,1.09-0.9,2.32-0.89,3.57c-0.02,1.26,0.3,2.5,0.91,3.6c0.6,1.06,1.5,1.92,2.58,2.48
			c2.15,1.06,4.65,1.17,6.9,0.32c0.89-0.36,1.67-0.92,2.3-1.64l-1.36-1.59c-1,1.1-2.44,1.7-3.93,1.64c-1.21,0.04-2.4-0.34-3.35-1.09
			c-0.89-0.71-1.46-1.75-1.58-2.89h11.04c0.03-0.25,0.05-0.5,0.05-0.75c0.02-1.27-0.27-2.52-0.86-3.65
			C-21.82-44.92-22.64-45.78-23.66-46.37z M-31.5-41.27c0.1-1.08,0.6-2.09,1.4-2.82c1.72-1.44,4.22-1.44,5.93,0.01
			c0.8,0.73,1.3,1.73,1.4,2.81L-31.5-41.27z"/>
		<path id="Trazado_4_14_" class="st0" d="M-13.03-36.21l-4.67-10.91h-2.57l5.96,13.61h2.52l5.96-13.61h-2.41L-13.03-36.21z"/>
		<path id="Trazado_5_14_" class="st0" d="M4.49-46.37c-1.06-0.6-2.26-0.91-3.48-0.89c-1.23-0.02-2.44,0.29-3.51,0.89
			c-1.03,0.58-1.87,1.44-2.44,2.48c-0.6,1.09-0.9,2.32-0.89,3.57c-0.02,1.26,0.3,2.5,0.91,3.6c0.6,1.06,1.5,1.92,2.58,2.48
			c2.16,1.06,4.65,1.17,6.9,0.32c0.89-0.35,1.67-0.92,2.3-1.64l-1.36-1.59c-1,1.1-2.44,1.7-3.93,1.64c-1.21,0.04-2.4-0.34-3.35-1.09
			c-0.89-0.71-1.46-1.75-1.58-2.89H7.69c0.03-0.25,0.05-0.5,0.05-0.75c0.02-1.27-0.27-2.52-0.86-3.65
			C6.33-44.92,5.5-45.78,4.49-46.37z M-3.35-41.27c0.1-1.08,0.6-2.09,1.4-2.82c1.72-1.44,4.22-1.44,5.93,0.01
			c0.8,0.73,1.3,1.73,1.4,2.81L-3.35-41.27z"/>
		<path id="Trazado_6_14_" class="st0" d="M12.88-44.84v-2.29h-2.36v13.61h2.47v-6.78c-0.08-1.24,0.33-2.46,1.14-3.4
			c0.83-0.82,1.98-1.26,3.15-1.19c0.19,0,0.38,0.01,0.57,0.03v-2.39c-1.05-0.03-2.1,0.18-3.06,0.62
			C13.97-46.26,13.3-45.63,12.88-44.84z"/>
	</g>
	<g>
		<path class="st1" d="M105.01,30.51h-13.8c-4.17,0-7.56-3.38-7.56-7.56V9.15c0-4.17,3.38-7.56,7.56-7.56h13.8
			c4.17,0,7.56,3.38,7.56,7.56v13.8C112.57,27.12,109.18,30.51,105.01,30.51z"/>
	</g>
	<g>
		<path class="st2" d="M10.43,33.87H7.27v2.58h3.66v0.78H6.32v-7.27h4.57v0.78H7.27v2.34h3.15V33.87z"/>
		<path class="st2" d="M14.78,33.8l1.2-1.97h1.08l-1.77,2.67l1.82,2.73h-1.07l-1.25-2.02l-1.25,2.02h-1.07l1.82-2.73l-1.77-2.67
			h1.07L14.78,33.8z"/>
		<path class="st2" d="M23.34,34.59c0,0.82-0.19,1.48-0.56,1.99c-0.38,0.5-0.89,0.75-1.53,0.75c-0.66,0-1.17-0.21-1.55-0.62v2.6
			h-0.92v-7.48h0.84l0.04,0.6c0.38-0.47,0.9-0.7,1.57-0.7c0.65,0,1.16,0.25,1.54,0.73s0.57,1.17,0.57,2.04V34.59z M22.42,34.48
			c0-0.61-0.13-1.09-0.39-1.44c-0.26-0.35-0.62-0.53-1.07-0.53c-0.56,0-0.98,0.25-1.26,0.74v2.58c0.28,0.49,0.7,0.74,1.27,0.74
			c0.44,0,0.79-0.18,1.06-0.53C22.29,35.7,22.42,35.17,22.42,34.48z"/>
		<path class="st2" d="M27.51,37.33c-0.73,0-1.33-0.24-1.79-0.72c-0.46-0.48-0.69-1.12-0.69-1.93v-0.17c0-0.54,0.1-1.01,0.31-1.44
			c0.21-0.42,0.49-0.75,0.86-0.99c0.37-0.24,0.77-0.36,1.2-0.36c0.7,0,1.25,0.23,1.64,0.69s0.58,1.13,0.58,1.99v0.38h-3.66
			c0.01,0.53,0.17,0.96,0.47,1.29c0.3,0.33,0.68,0.49,1.14,0.49c0.33,0,0.6-0.07,0.83-0.2c0.23-0.13,0.42-0.31,0.59-0.53l0.56,0.44
			C29.09,36.98,28.41,37.33,27.51,37.33z M27.39,32.48c-0.37,0-0.69,0.13-0.94,0.41s-0.41,0.65-0.47,1.14h2.71v-0.07
			c-0.03-0.47-0.15-0.83-0.38-1.09S27.78,32.48,27.39,32.48z"/>
		<path class="st2" d="M34.09,32.65c-0.14-0.02-0.29-0.03-0.45-0.03c-0.61,0-1.02,0.26-1.23,0.77v3.84h-0.92v-5.4h0.9l0.02,0.63
			c0.3-0.48,0.73-0.72,1.29-0.72c0.18,0,0.32,0.02,0.41,0.07V32.65z"/>
		<path class="st2" d="M35.68,30.39c0-0.15,0.05-0.28,0.14-0.38c0.09-0.1,0.23-0.16,0.41-0.16s0.32,0.05,0.41,0.16
			s0.14,0.23,0.14,0.38c0,0.15-0.05,0.27-0.14,0.37c-0.09,0.1-0.23,0.15-0.41,0.15s-0.32-0.05-0.41-0.15
			C35.73,30.67,35.68,30.54,35.68,30.39z M36.68,37.23h-0.92v-5.4h0.92V37.23z"/>
		<path class="st2" d="M41.09,37.33c-0.73,0-1.33-0.24-1.79-0.72c-0.46-0.48-0.69-1.12-0.69-1.93v-0.17c0-0.54,0.1-1.01,0.31-1.44
			c0.21-0.42,0.49-0.75,0.86-0.99c0.37-0.24,0.77-0.36,1.2-0.36c0.7,0,1.25,0.23,1.64,0.69s0.58,1.13,0.58,1.99v0.38h-3.66
			c0.01,0.53,0.17,0.96,0.47,1.29c0.3,0.33,0.68,0.49,1.14,0.49c0.33,0,0.6-0.07,0.83-0.2c0.23-0.13,0.42-0.31,0.59-0.53l0.56,0.44
			C42.67,36.98,41.99,37.33,41.09,37.33z M40.97,32.48c-0.37,0-0.69,0.13-0.94,0.41s-0.41,0.65-0.47,1.14h2.71v-0.07
			c-0.03-0.47-0.15-0.83-0.38-1.09S41.36,32.48,40.97,32.48z"/>
		<path class="st2" d="M45.93,31.82l0.03,0.68c0.41-0.52,0.95-0.78,1.62-0.78c1.14,0,1.72,0.64,1.73,1.93v3.57h-0.92v-3.58
			c0-0.39-0.09-0.68-0.27-0.86c-0.17-0.19-0.45-0.28-0.82-0.28c-0.3,0-0.56,0.08-0.79,0.24c-0.23,0.16-0.4,0.37-0.53,0.63v3.85
			h-0.92v-5.4H45.93z"/>
		<path class="st2" d="M53.61,36.57c0.33,0,0.62-0.1,0.86-0.3c0.25-0.2,0.38-0.45,0.41-0.75h0.87c-0.02,0.31-0.12,0.6-0.32,0.88
			c-0.2,0.28-0.46,0.5-0.79,0.67c-0.33,0.17-0.68,0.25-1.04,0.25c-0.74,0-1.32-0.25-1.76-0.74s-0.65-1.16-0.65-2.02v-0.15
			c0-0.53,0.1-0.99,0.29-1.4c0.19-0.41,0.47-0.73,0.83-0.95s0.79-0.34,1.28-0.34c0.61,0,1.11,0.18,1.51,0.54
			c0.4,0.36,0.62,0.83,0.64,1.41h-0.87c-0.03-0.35-0.16-0.64-0.4-0.86c-0.24-0.22-0.53-0.34-0.88-0.34c-0.47,0-0.83,0.17-1.09,0.51
			c-0.26,0.34-0.39,0.83-0.39,1.47v0.17c0,0.62,0.13,1.1,0.38,1.44C52.77,36.41,53.13,36.57,53.61,36.57z"/>
		<path class="st2" d="M59.81,37.33c-0.73,0-1.33-0.24-1.79-0.72c-0.46-0.48-0.69-1.12-0.69-1.93v-0.17c0-0.54,0.1-1.01,0.31-1.44
			c0.21-0.42,0.49-0.75,0.86-0.99c0.37-0.24,0.77-0.36,1.2-0.36c0.7,0,1.25,0.23,1.64,0.69s0.58,1.13,0.58,1.99v0.38h-3.66
			c0.01,0.53,0.17,0.96,0.47,1.29c0.3,0.33,0.68,0.49,1.14,0.49c0.33,0,0.6-0.07,0.83-0.2c0.23-0.13,0.42-0.31,0.59-0.53l0.56,0.44
			C61.4,36.98,60.72,37.33,59.81,37.33z M59.7,32.48c-0.37,0-0.69,0.13-0.94,0.41s-0.41,0.65-0.47,1.14H61v-0.07
			c-0.03-0.47-0.15-0.83-0.38-1.09C60.39,32.61,60.08,32.48,59.7,32.48z"/>
	</g>
	<g id="Grupo_2_5_" transform="translate(2540.61 -193.213)">
		<path id="Trazado_16_5_" class="st3" d="M-2443.51,214.2c0,0.55-0.31,0.76-0.92,0.61c-1.33-0.33-2.66-0.66-3.99-1
			c-1.39-0.36-2.78-0.72-4.17-1.08c-0.31-0.08-0.66-0.13-0.75-0.47c-0.08-0.3,0.21-0.47,0.4-0.66c2.05-2.05,4.1-4.1,6.15-6.15
			c0.48-0.48,0.83-0.41,1.01,0.23c0.76,2.77,1.5,5.54,2.24,8.31C-2443.53,214.06-2443.52,214.13-2443.51,214.2z"/>
		<path id="Trazado_17_5_" class="st3" d="M-2443.27,203.7v-4.18c0-0.91,0.24-1.06,1.03-0.61c2.04,1.17,4.08,2.34,6.11,3.52
			c0.38,0.22,0.76,0.44,1.13,0.66c0.69,0.4,0.69,0.8-0.01,1.22c-1.37,0.82-2.75,1.64-4.13,2.46c-1.02,0.61-2.03,1.22-3.05,1.83
			c-0.82,0.48-1.08,0.34-1.08-0.58C-2443.27,206.58-2443.27,205.14-2443.27,203.7z"/>
		<path id="Trazado_18_5_" class="st3" d="M-2442.08,218.51c0.27-1.03,0.53-2.05,0.8-3.08c0.46-1.81,0.92-3.63,1.39-5.44
			c0.2-0.8,0.49-0.87,1.08-0.28c2.05,2.05,4.1,4.1,6.15,6.15c0.52,0.52,0.46,0.81-0.27,1.01c-2.77,0.76-5.54,1.51-8.31,2.24
			C-2441.75,219.24-2442.11,218.97-2442.08,218.51z"/>
	</g>
</g>
</svg>
