<?xml version="1.0" encoding="utf-8"?>
<!-- Generator: Adobe Illustrator 23.1.0, SVG Export Plug-In . SVG Version: 6.00 Build 0)  -->
<svg version="1.1" id="Capa_1" xmlns="http://www.w3.org/2000/svg" xmlns:xlink="http://www.w3.org/1999/xlink" x="0px" y="0px"
	 viewBox="0 0 146.8 76" style="enable-background:new 0 0 146.8 76;" xml:space="preserve">
<style type="text/css">
	.st0{fill:#FFFFFF;}
	.st1{fill:#00A82D;}
	.st2{fill:#3C3B3B;}
</style>
<rect x="-0.2" class="st0" width="146.8" height="76"/>
<g id="Grupo_61" transform="translate(0 0)">
	<path id="Trazado_1313" class="st1" d="M36.9,29.5l-16.8-12c-0.4-0.3-1-0.3-1.4,0l-17.1,12c-0.3,0.2-0.5,0.6-0.5,1v11.3
		c0,1.9,1.5,3.4,3.4,3.4H8c0.4,1.9,1.3,3.6,2.5,5.1c0,0.1,0.1,0.2,0.2,0.2l7.7,7.8c0.5,0.5,1.2,0.5,1.7,0l0,0l7.7-7.8
		c0.1-0.1,0.1-0.1,0.1-0.2c1.3-1.5,2.2-3.2,2.6-5.1H34c1.9,0,3.4-1.5,3.4-3.4V30.5C37.4,30.1,37.2,29.7,36.9,29.5z M19.6,45.2
		c0.7,0,1.2-0.5,1.2-1.2s-0.5-1.2-1.2-1.2c0,0,0,0-0.1,0h-9.4c0-5,4.1-9.1,9.1-9.1s9.1,4.1,9.1,9.1c0,2.2-0.8,4.4-2.3,6.1
		c0,0,0,0.1-0.1,0.1l-6.7,6.8L12.6,49l-0.1-0.1c-0.9-1-1.6-2.3-2-3.6L19.6,45.2z M34.9,41.8c0,0.5-0.4,0.9-0.9,0.9h-3.2
		c0-6.4-5.2-11.5-11.5-11.5c-6.4,0-11.5,5.2-11.5,11.5H4.5c-0.5,0-0.9-0.4-0.9-0.9V31.1l15.9-11.2L35,31.1L34.9,41.8z"/>
	<g id="Grupo_60" transform="translate(59.383 8.851)">
		<path id="Trazado_1314" class="st2" d="M-0.7,17.7c-0.8-0.7-1.7-1.1-2.7-1.4c-1.2-0.3-2.4-0.5-3.7-0.5h-6.4
			c-0.2,0-0.4,0.2-0.4,0.4l0,0v21.6c0,0.2,0.2,0.4,0.4,0.4h2.9c0.2,0,0.4-0.2,0.4-0.4v-7.7h3.1c1.2,0,2.4-0.2,3.6-0.5
			c1-0.3,1.9-0.8,2.7-1.5c0.7-0.6,1.3-1.4,1.6-2.3c0.4-0.9,0.6-1.9,0.6-2.9s-0.2-2-0.5-2.9C0.5,19.1,0,18.3-0.7,17.7z M-7.1,27h-3.1
			v-8.1h3.1c1.3-0.1,2.6,0.3,3.6,1.1c0.8,0.8,1.2,1.8,1.1,2.9c0,0.6-0.1,1.1-0.3,1.7c-0.2,0.5-0.5,0.9-0.9,1.3
			C-4,26.2-4.5,26.5-5,26.6C-5.7,26.9-6.4,27-7.1,27L-7.1,27z"/>
		<path id="Trazado_1315" class="st2" d="M12.7,22c-1.5-0.4-3-0.1-4.2,0.8c-0.5,0.4-1,0.9-1.4,1.5L7,23.2c0-0.3-0.1-0.6-0.3-0.8
			c-0.2-0.2-0.6-0.3-0.9-0.3H4.3c-0.2,0-0.4,0.2-0.4,0.4l0,0v15.3c0,0.2,0.2,0.4,0.4,0.4H7c0.2,0,0.4-0.2,0.4-0.4v-9.7
			c0.3-0.8,0.8-1.6,1.4-2.2c0.6-0.5,1.3-0.7,2.1-0.7c0.4,0,0.7,0,1.1,0.1c0.2,0.1,0.5,0.1,0.8,0.2c0.4,0,0.8-0.3,0.9-0.7l0.3-2
			c0-0.2,0-0.3-0.2-0.4C13.4,22.2,13.1,22.1,12.7,22z"/>
		<path id="Trazado_1316" class="st2" d="M28.2,24.1c-0.7-0.7-1.5-1.3-2.4-1.7c-2-0.8-4.3-0.8-6.4,0c-0.9,0.4-1.8,0.9-2.4,1.7
			c-0.7,0.8-1.2,1.6-1.5,2.6c-0.7,2.2-0.7,4.6,0,6.8c0.3,1,0.9,1.9,1.5,2.6c0.7,0.7,1.5,1.3,2.4,1.7c2,0.8,4.3,0.8,6.3,0
			c0.9-0.4,1.8-0.9,2.4-1.7c0.7-0.8,1.2-1.6,1.5-2.6c0.7-2.2,0.7-4.6,0-6.8C29.4,25.8,28.9,24.9,28.2,24.1z M22.6,24.7
			c1.2-0.1,2.3,0.4,3.1,1.4c1.4,2.5,1.4,5.5,0,8c-0.7,0.9-1.9,1.5-3.1,1.4c-0.6,0-1.3-0.1-1.8-0.4c-0.5-0.2-0.9-0.6-1.3-1
			c-0.4-0.5-0.6-1.1-0.8-1.7c-0.4-1.5-0.4-3.1,0-4.7c0.1-0.6,0.4-1.2,0.8-1.7c0.3-0.4,0.8-0.8,1.3-1C21.4,24.8,22,24.7,22.6,24.7
			L22.6,24.7z"/>
		<path id="Trazado_1317" class="st2" d="M46,23.8c-0.5-0.7-1.2-1.3-1.9-1.6c-0.8-0.4-1.6-0.6-2.5-0.6c-1.1,0-2.1,0.2-3,0.7
			c-0.6,0.3-1.2,0.8-1.7,1.3l-0.1-0.7c-0.1-0.3-0.2-0.6-0.5-0.8c-0.2-0.2-0.5-0.2-0.8-0.2H33c-0.2,0-0.4,0.2-0.4,0.4v20.5
			c0,0.2,0.2,0.4,0.4,0.4h3.7c0.2,0,0.4-0.2,0.4-0.4l0,0v-5.5c0.3,0.2,0.7,0.5,1.1,0.6c0.8,0.3,1.6,0.5,2.4,0.4c2,0,3.9-0.9,5.2-2.5
			c0.6-0.8,1.1-1.7,1.4-2.7c0.3-1.1,0.5-2.2,0.5-3.3c0-1.2-0.1-2.3-0.4-3.5C47,25.5,46.5,24.6,46,23.8z M43,29.9
			c0,0.8-0.1,1.5-0.2,2.2c-0.1,0.5-0.4,1-0.7,1.5c-0.3,0.4-0.6,0.7-1,0.8c-0.9,0.4-1.9,0.4-2.8,0c-0.4-0.2-0.8-0.5-1.1-0.9v-6.7
			c0.4-0.5,0.8-0.9,1.3-1.2c0.5-0.3,1.2-0.5,1.8-0.4c0.4,0,0.8,0.1,1.2,0.2c0.3,0.2,0.6,0.4,0.8,0.7c0.3,0.4,0.5,0.9,0.6,1.4
			C42.9,28.4,43,29.2,43,29.9L43,29.9z"/>
		<path id="Rectángulo_729" class="st2" d="M50.2,21.9h3.9c0.2,0,0.3,0.1,0.3,0.3v15.7c0,0.2-0.1,0.3-0.3,0.3h-3.9
			c-0.2,0-0.3-0.1-0.3-0.3V22.2C49.9,22,50,21.9,50.2,21.9z"/>
		<path id="Trazado_1318" class="st2" d="M54.2,15.8c-0.3-0.2-0.6-0.4-0.9-0.6c-0.7-0.3-1.5-0.3-2.2,0s-1.2,0.8-1.5,1.5
			c-0.1,0.3-0.2,0.7-0.2,1.1s0.1,0.7,0.2,1.1c0.1,0.3,0.3,0.6,0.6,0.9c0.2,0.2,0.5,0.4,0.9,0.6c0.3,0.1,0.7,0.2,1.1,0.2
			c0.4,0,0.7-0.1,1.1-0.2c0.3-0.1,0.6-0.3,0.9-0.6c0.2-0.2,0.5-0.5,0.6-0.9c0.2-0.3,0.2-0.7,0.2-1.1s-0.1-0.8-0.2-1.1
			C54.6,16.3,54.4,16,54.2,15.8z"/>
		<path id="Trazado_1319" class="st2" d="M70.7,23.4c-0.5-0.6-1.1-1-1.8-1.3c-0.8-0.3-1.6-0.5-2.4-0.5c-0.5,0-1,0-1.5,0.2
			c-0.5,0.1-0.9,0.3-1.3,0.5c-0.4,0.2-0.8,0.4-1.2,0.7c-0.2,0.1-0.3,0.3-0.5,0.4l-0.1-0.6c-0.2-0.6-0.7-1-1.3-0.9h-2.3
			c-0.2,0-0.4,0.2-0.4,0.4l0,0v15.5c0,0.2,0.2,0.4,0.4,0.4l0,0H62c0.2,0,0.4-0.2,0.4-0.4v-11c0.4-0.4,0.9-0.7,1.4-1s1.1-0.4,1.6-0.4
			c0.6-0.1,1.2,0.2,1.7,0.6c0.4,0.6,0.6,1.2,0.6,1.9v9.9c0,0.2,0.2,0.4,0.4,0.4h3.7c0.2,0,0.4-0.2,0.4-0.4v-9.9
			c0-0.8-0.1-1.7-0.4-2.5C71.6,24.7,71.2,24,70.7,23.4z"/>
		<path id="Trazado_1320" class="st2" d="M85.6,31.1c-0.2-0.5-0.6-0.9-1-1.3c-0.4-0.3-0.8-0.6-1.3-0.8c-0.5-0.2-0.9-0.4-1.4-0.6
			S81,28.1,80.5,28c-0.4-0.1-0.8-0.3-1.2-0.4c-0.3-0.1-0.5-0.3-0.7-0.5c-0.1-0.2-0.2-0.4-0.2-0.6c0-0.4,0.2-0.7,0.5-0.9
			c0.4-0.3,1-0.4,1.5-0.4c0.4,0,0.8,0,1.1,0.1c0.3,0.1,0.6,0.2,0.9,0.3c0.3,0.1,0.5,0.2,0.7,0.3c0.4,0.2,0.9,0.3,1.4,0
			c0.2-0.1,0.3-0.3,0.4-0.5l0.8-1.3c0.1-0.2,0.1-0.4-0.1-0.5c-0.7-0.6-1.5-1.1-2.3-1.5c-1-0.4-2-0.6-3.1-0.6c-0.9,0-1.8,0.1-2.7,0.4
			c-0.7,0.2-1.4,0.6-2,1.1c-0.5,0.5-0.9,1-1.2,1.6c-0.3,0.6-0.4,1.3-0.4,2s0.1,1.3,0.4,1.9c0.2,0.5,0.5,1,1,1.3
			c0.4,0.4,0.8,0.7,1.3,0.9c0.5,0.2,1,0.4,1.4,0.6c0.5,0.2,1,0.3,1.4,0.4s0.8,0.3,1.2,0.4c0.3,0.1,0.5,0.3,0.7,0.5s0.2,0.4,0.2,0.6
			c0,0.2,0,0.4-0.1,0.5c-0.1,0.2-0.2,0.3-0.3,0.4c-0.2,0.2-0.4,0.3-0.7,0.3c-0.3,0.1-0.7,0.1-1,0.1c-0.4,0-0.9,0-1.3-0.2
			c-0.3-0.1-0.6-0.2-0.9-0.4c-0.3-0.1-0.5-0.3-0.7-0.4c-0.7-0.5-1.6-0.3-2.1,0.4c0,0,0,0.1-0.1,0.1l-0.9,1.4
			c-0.1,0.2-0.1,0.4,0.1,0.5c0.3,0.3,0.7,0.6,1.1,0.8c0.4,0.3,0.9,0.5,1.4,0.6c0.5,0.2,1,0.3,1.5,0.4c0.5,0.1,1.1,0.2,1.6,0.1
			c0.9,0,1.9-0.1,2.8-0.4c0.8-0.2,1.5-0.6,2.1-1.1s1-1.1,1.3-1.8s0.4-1.5,0.4-2.2C86,32.2,85.9,31.6,85.6,31.1z"/>
	</g>
</g>
</svg>
